<svg width="35" height="34" viewBox="0 0 35 34" fill="none" xmlns="http://www.w3.org/2000/svg">
<path fill-rule="evenodd" clip-rule="evenodd" d="M21.0437 21.6272H15.2511V21.6275H5.11426V28.3164C5.11426 29.4209 6.00969 30.3164 7.11426 30.3164H29.1809C30.2855 30.3164 31.1809 29.4209 31.1809 28.3164V21.6275H21.0437V21.6272ZM21.0437 21.6275H15.2511V24.5235H21.0437V21.6275Z" fill="#84A667"/>
<path fill-rule="evenodd" clip-rule="evenodd" d="M14.3555 4.24976C13.2509 4.24976 12.3555 5.14519 12.3555 6.24976V10.9386C12.3555 12.0432 13.2509 12.9386 14.3555 12.9386H16.2182C15.6814 12.9209 15.2517 12.4802 15.2517 11.9392V8.1466C15.2517 7.59431 15.6995 7.1466 16.2517 7.1466H20.0443C20.5966 7.1466 21.0443 7.59432 21.0443 8.1466V11.9392C21.0443 12.4802 20.6146 12.9209 20.0779 12.9386H21.9406C23.0452 12.9386 23.9406 12.0432 23.9406 10.9386V6.24976C23.9406 5.14519 23.0452 4.24976 21.9406 4.24976H14.3555Z" fill="#AD966F"/>
<path fill-rule="evenodd" clip-rule="evenodd" d="M5.66602 10.0425C4.56145 10.0425 3.66602 10.9379 3.66602 12.0425V18.1795C3.66602 19.2841 4.56145 20.1795 5.66602 20.1795H30.6289C31.7335 20.1795 32.6289 19.2841 32.6289 18.1795V12.0425C32.6289 10.9379 31.7335 10.0425 30.6289 10.0425H5.66602ZM21.0436 17.2829H15.251V20.1792H21.0436V17.2829Z" fill="#84A667"/>
</svg>
