<svg width="35" height="34" viewBox="0 0 35 34" fill="none" xmlns="http://www.w3.org/2000/svg">
<path d="M31.3327 17.8783V20.7967C31.3327 21.59 30.681 22.2417 29.8735 22.2417H27.1393C25.6093 22.2417 24.2068 21.1225 24.0793 19.5925C23.9943 18.7 24.3343 17.8642 24.9293 17.2833C25.4535 16.745 26.176 16.4333 26.9693 16.4333H29.8735C30.681 16.4333 31.3327 17.085 31.3327 17.8783Z" fill="#AD966F"/>
<path d="M21.954 19.7766C21.8265 18.2891 22.3649 16.8299 23.4415 15.7674C24.3482 14.8466 25.609 14.3082 26.969 14.3082H27.7765C28.1732 14.3082 28.499 13.9824 28.4424 13.5857C28.0599 10.8374 25.6799 8.7124 22.8324 8.7124H8.66569C5.53486 8.7124 2.99902 11.2482 2.99902 14.3791V24.2957C2.99902 27.4266 5.53486 29.9624 8.66569 29.9624H22.8324C25.694 29.9624 28.0599 27.8374 28.4424 25.0891C28.499 24.6924 28.1732 24.3666 27.7765 24.3666H27.139C24.4474 24.3666 22.1807 22.3549 21.954 19.7766ZM18.5824 16.8582H10.0824C9.50152 16.8582 9.01986 16.3907 9.01986 15.7957C9.01986 15.2007 9.50152 14.7332 10.0824 14.7332H18.5824C19.1632 14.7332 19.6449 15.2149 19.6449 15.7957C19.6449 16.3766 19.1632 16.8582 18.5824 16.8582Z" fill="#84A667"/>
<path d="M20.2971 5.63843C20.6654 6.02093 20.3396 6.5876 19.8013 6.5876H8.70877C7.1646 6.5876 5.7196 7.04093 4.51544 7.8201C3.96294 8.17426 3.2121 7.79176 3.48127 7.1826C4.2746 5.32676 6.13044 4.0376 8.2696 4.0376H16.2313C17.8746 4.0376 19.3338 4.61843 20.2971 5.63843Z" fill="#AD966F"/>
</svg>
