<svg width="35" height="34" viewBox="0 0 35 34" fill="none" xmlns="http://www.w3.org/2000/svg">
<path d="M29.2232 9.66156L21.0632 3.95239C18.839 2.39406 15.4248 2.47906 13.2857 4.13656L6.18818 9.67572C4.77151 10.7807 3.65234 13.0474 3.65234 14.8324V24.6074C3.65234 28.2199 6.58484 31.1666 10.1973 31.1666H25.469C29.0815 31.1666 32.014 28.2341 32.014 24.6216V15.0166C32.014 13.1041 30.7815 10.7524 29.2232 9.66156ZM18.8957 25.4999C18.8957 26.0807 18.414 26.5624 17.8332 26.5624C17.2523 26.5624 16.7707 26.0807 16.7707 25.4999V21.2499C16.7707 20.6691 17.2523 20.1874 17.8332 20.1874C18.414 20.1874 18.8957 20.6691 18.8957 21.2499V25.4999Z" fill="#84A667"/>
</svg>
