<svg width="35" height="34" viewBox="0 0 35 34" fill="none" xmlns="http://www.w3.org/2000/svg">
<path d="M17.5 32.2291C16.9192 32.2291 16.4375 31.7474 16.4375 31.1666V28.3333C16.4375 27.7524 16.9192 27.2708 17.5 27.2708C18.0808 27.2708 18.5625 27.7524 18.5625 28.3333V31.1666C18.5625 31.7474 18.0808 32.2291 17.5 32.2291Z" fill="#84A667"/>
<path d="M17.5 26.5626C16.9192 26.5626 16.4375 26.0809 16.4375 25.5001V22.6667C16.4375 22.0859 16.9192 21.6042 17.5 21.6042C18.0808 21.6042 18.5625 22.0859 18.5625 22.6667V25.5001C18.5625 26.0809 18.0808 26.5626 17.5 26.5626Z" fill="#84A667"/>
<path d="M17.5 20.8959C16.9192 20.8959 16.4375 20.4142 16.4375 19.8334V15.5834C16.4375 9.53425 21.3675 4.60425 27.4167 4.60425H31.6667C32.2475 4.60425 32.7292 5.08591 32.7292 5.66675C32.7292 6.24758 32.2475 6.72925 31.6667 6.72925H27.4167C22.5292 6.72925 18.5625 10.6959 18.5625 15.5834V19.8334C18.5625 20.4142 18.0808 20.8959 17.5 20.8959Z" fill="#84A667"/>
<path d="M17.4997 20.8959C16.9188 20.8959 16.4372 20.4142 16.4372 19.8334V15.5834C16.4372 10.6959 12.4705 6.72925 7.58301 6.72925H3.33301C2.75217 6.72925 2.27051 6.24758 2.27051 5.66675C2.27051 5.08591 2.75217 4.60425 3.33301 4.60425H7.58301C13.6322 4.60425 18.5622 9.53425 18.5622 15.5834V19.8334C18.5622 20.4142 18.0805 20.8959 17.4997 20.8959Z" fill="#84A667"/>
<path d="M6.16671 9.56254C5.89754 9.56254 5.62837 9.46337 5.41587 9.25087L2.58254 6.41754C2.17171 6.00671 2.17171 5.32671 2.58254 4.91587L5.41587 2.08254C5.82671 1.67171 6.50671 1.67171 6.91754 2.08254C7.32837 2.49337 7.32837 3.17337 6.91754 3.58421L4.83504 5.66671L6.91754 7.74921C7.32837 8.16004 7.32837 8.84004 6.91754 9.25087C6.70504 9.46337 6.43587 9.56254 6.16671 9.56254Z" fill="#84A667"/>
<path d="M28.8334 9.56254C28.5642 9.56254 28.295 9.46337 28.0825 9.25087C27.6717 8.84004 27.6717 8.16004 28.0825 7.74921L30.165 5.66671L28.0825 3.58421C27.6717 3.17337 27.6717 2.49337 28.0825 2.08254C28.4934 1.67171 29.1734 1.67171 29.5842 2.08254L32.4175 4.91587C32.8284 5.32671 32.8284 6.00671 32.4175 6.41754L29.5842 9.25087C29.3717 9.46337 29.1025 9.56254 28.8334 9.56254Z" fill="#84A667"/>
</svg>
