<svg width="35" height="34" viewBox="0 0 35 34" fill="none" xmlns="http://www.w3.org/2000/svg">
<path d="M27.4668 14.0391C25.866 14.0391 24.4351 14.8182 23.5426 16.0082C22.6501 14.8182 21.2193 14.0391 19.6185 14.0391C16.9126 14.0391 14.7168 16.2491 14.7168 18.9691C14.7168 20.0174 14.8868 20.9949 15.1701 21.8874C16.5585 26.2932 20.8651 28.9424 22.9901 29.6649C23.2876 29.7641 23.7835 29.7641 24.081 29.6649C26.206 28.9424 30.5126 26.3074 31.901 21.8874C32.1985 20.9807 32.3543 20.0174 32.3543 18.9691C32.3685 16.2491 30.1726 14.0391 27.4668 14.0391Z" fill="#AD966F"/>
<path d="M30.2285 11.8149C30.2285 12.1408 29.9027 12.3533 29.591 12.2683C27.6785 11.7724 25.5818 12.1833 23.9952 13.3166C23.6835 13.5433 23.2585 13.5433 22.961 13.3166C21.8418 12.4949 20.4818 12.0416 19.051 12.0416C15.396 12.0416 12.421 15.0308 12.421 18.7141C12.421 22.7091 14.3335 25.6983 16.2602 27.6958C16.3593 27.7949 16.2743 27.9649 16.1468 27.9083C12.2793 26.5908 3.66602 21.1224 3.66602 11.8149C3.66602 7.7066 6.96685 4.3916 11.0468 4.3916C13.4693 4.3916 15.6085 5.55327 16.9543 7.35244C18.3143 5.55327 20.4535 4.3916 22.8618 4.3916C26.9277 4.3916 30.2285 7.7066 30.2285 11.8149Z" fill="#84A667"/>
</svg>
