<svg width="35" height="34" viewBox="0 0 35 34" fill="none" xmlns="http://www.w3.org/2000/svg">
<path d="M24.753 20.0456C20.8005 17.4106 14.3547 17.4106 10.3738 20.0456C8.57467 21.2498 7.58301 22.8789 7.58301 24.6214C7.58301 26.3639 8.57467 27.9789 10.3597 29.1689C12.343 30.5006 14.9497 31.1664 17.5563 31.1664C20.163 31.1664 22.7697 30.5006 24.753 29.1689C26.538 27.9648 27.5297 26.3498 27.5297 24.5931C27.5155 22.8506 26.538 21.2356 24.753 20.0456Z" fill="#84A667"/>
<path fill-rule="evenodd" clip-rule="evenodd" d="M10.8271 9.56242C10.8271 5.85075 13.8446 2.83325 17.5563 2.83325C21.268 2.83325 24.2855 5.85075 24.2855 9.56242C24.2713 13.2033 21.4238 16.1499 17.7971 16.2774H17.7688H17.698C17.613 16.2633 17.4996 16.2633 17.3863 16.2774C13.6746 16.1499 10.8271 13.2033 10.8271 9.56242ZM18.9185 6.19963C19.2053 5.8775 19.665 5.66659 20.1793 5.66659C21.0486 5.66659 21.7541 6.26483 21.7496 7.00112C21.7496 7.2849 21.6995 7.54567 21.6039 7.79111C21.1579 8.98759 19.7742 9.70087 19.0915 9.89645C18.9959 9.9233 18.8366 9.9233 18.741 9.89645C18.0583 9.70087 16.6746 8.98375 16.2286 7.79111C16.1375 7.54951 16.0829 7.2849 16.0829 7.00112C16.0829 6.26483 16.7884 5.66659 17.6578 5.66659C18.1721 5.66659 18.6318 5.8775 18.9185 6.19963Z" fill="#84A667"/>
</svg>
