<svg width="35" height="34" viewBox="0 0 35 34" fill="none" xmlns="http://www.w3.org/2000/svg">
<path d="M26.9492 2.83325H24.2575C21.1692 2.83325 19.54 4.46242 19.54 7.55075V10.2424C19.54 13.3308 21.1692 14.9599 24.2575 14.9599H26.9492C30.0375 14.9599 31.6667 13.3308 31.6667 10.2424V7.55075C31.6667 4.46242 30.0375 2.83325 26.9492 2.83325Z" fill="#AD966F"/>
<path d="M10.7563 19.0259H8.06467C4.96217 19.0259 3.33301 20.655 3.33301 23.7434V26.435C3.33301 29.5375 4.96217 31.1667 8.05051 31.1667H10.7422C13.8305 31.1667 15.4597 29.5375 15.4597 26.4492V23.7575C15.4738 20.655 13.8447 19.0259 10.7563 19.0259Z" fill="#AD966F"/>
<path d="M9.41051 14.9883C12.767 14.9883 15.488 12.2673 15.488 8.91075C15.488 5.55424 12.767 2.83325 9.41051 2.83325C6.054 2.83325 3.33301 5.55424 3.33301 8.91075C3.33301 12.2673 6.054 14.9883 9.41051 14.9883Z" fill="#84A667"/>
<path d="M25.5892 31.1667C28.9457 31.1667 31.6667 28.4457 31.6667 25.0892C31.6667 21.7327 28.9457 19.0117 25.5892 19.0117C22.2327 19.0117 19.5117 21.7327 19.5117 25.0892C19.5117 28.4457 22.2327 31.1667 25.5892 31.1667Z" fill="#84A667"/>
</svg>
