<svg width="35" height="34" viewBox="0 0 35 34" fill="none" xmlns="http://www.w3.org/2000/svg">
<path d="M12.9157 2.83325C9.20402 2.83325 6.18652 5.85075 6.18652 9.56242C6.18652 13.2033 9.03402 16.1499 12.7457 16.2774C12.859 16.2633 12.9724 16.2633 13.0574 16.2774C13.0857 16.2774 13.0999 16.2774 13.1282 16.2774C13.1424 16.2774 13.1424 16.2774 13.1565 16.2774C16.7832 16.1499 19.6307 13.2033 19.6449 9.56242C19.6449 5.85075 16.6274 2.83325 12.9157 2.83325Z" fill="#84A667"/>
<path d="M20.1124 20.0458C16.1599 17.4108 9.71405 17.4108 5.73322 20.0458C3.93405 21.25 2.94238 22.8792 2.94238 24.6217C2.94238 26.3642 3.93405 27.9792 5.71905 29.1692C7.70238 30.5008 10.309 31.1667 12.9157 31.1667C15.5224 31.1667 18.1291 30.5008 20.1124 29.1692C21.8974 27.965 22.8891 26.35 22.8891 24.5933C22.8749 22.8508 21.8974 21.2358 20.1124 20.0458Z" fill="#84A667"/>
<path d="M28.4853 10.3984C28.7119 13.1467 26.7569 15.5551 24.0511 15.8809C24.0369 15.8809 24.0369 15.8809 24.0228 15.8809H23.9803C23.8953 15.8809 23.8103 15.8809 23.7394 15.9092C22.3653 15.9801 21.1044 15.5409 20.1553 14.7334C21.6144 13.4301 22.4503 11.4751 22.2803 9.35006C22.1811 8.20256 21.7844 7.15423 21.1894 6.26173C21.7278 5.99256 22.3511 5.82256 22.9886 5.76589C25.7653 5.52506 28.2444 7.59339 28.4853 10.3984Z" fill="#AD966F"/>
<path d="M31.3187 23.5025C31.2054 24.8767 30.327 26.0667 28.8537 26.8742C27.437 27.6533 25.652 28.0217 23.8812 27.9792C24.9012 27.0583 25.4962 25.9108 25.6095 24.6925C25.7512 22.9358 24.9154 21.25 23.2437 19.9042C22.2945 19.1533 21.1895 18.5583 19.9854 18.1192C23.1162 17.2125 27.0545 17.8217 29.477 19.7767C30.7804 20.825 31.4462 22.1425 31.3187 23.5025Z" fill="#AD966F"/>
</svg>
