<svg width="24" height="24" viewBox="0 0 24 24" fill="none" xmlns="http://www.w3.org/2000/svg">
<path d="M16.0833 16.25V16.25C15.8689 18.18 13.9295 19.4209 12.0872 18.8068L11.9167 18.75M7.75 9.58333V9.16667C7.75 6.86548 9.61548 5 11.9167 5V5C14.2179 5 16.0833 6.86548 16.0833 9.16667V9.58333" stroke="#292D32" stroke-width="1.5" stroke-linecap="round"/>
<path d="M4.74984 12.917C4.74984 14.5137 6.02393 15.917 8.24984 15.917C8.47996 15.917 8.6665 15.7304 8.6665 15.5003V10.3337C8.6665 10.1035 8.47996 9.91699 8.24984 9.91699C6.02393 9.91699 4.74984 11.3203 4.74984 12.917Z" stroke="#292D32" stroke-width="1.5"/>
<path d="M19.0832 12.917C19.0832 11.3203 17.8091 9.91699 15.5832 9.91699C15.3531 9.91699 15.1665 10.1035 15.1665 10.3337L15.1665 15.5003C15.1665 15.7304 15.3531 15.917 15.5832 15.917C17.8091 15.917 19.0832 14.5137 19.0832 12.917Z" stroke="#292D32" stroke-width="1.5"/>
</svg>
