<svg width="24" height="24" viewBox="0 0 24 24" fill="none" xmlns="http://www.w3.org/2000/svg">
<path d="M15.4444 7.53556H15.4533M4.24444 17.2354H11.8889C13.7749 17.2354 15.5836 16.4922 16.9172 15.1692C18.2508 13.8463 19 12.0519 19 10.181V7.53556C19.002 6.78418 18.7621 6.05181 18.3152 5.44515C17.8683 4.83848 17.2378 4.38925 16.5156 4.16289C15.7934 3.93653 15.0171 3.94488 14.3 4.18673C13.5829 4.42857 12.9624 4.89127 12.5289 5.50741L3 18.999" stroke="#292D32" stroke-width="1.5" stroke-linecap="round" stroke-linejoin="round"/>
<path d="M19.1333 6.99902L21 7.46331L19.1333 7.92759M9.8 17.499V19.999M13.5333 17.2133V19.999M7 17.2133C8.15091 17.2133 9.27385 16.8604 10.216 16.2028C11.1582 15.5451 11.8738 14.6146 12.2655 13.5379C12.6571 12.4613 12.7059 11.2906 12.405 10.1854C12.1041 9.0802 11.8843 8.73191 11 7.99902" stroke="#292D32" stroke-width="1.5" stroke-linecap="round" stroke-linejoin="round"/>
</svg>
