<svg width="24" height="24" viewBox="0 0 24 24" fill="none" xmlns="http://www.w3.org/2000/svg">
<path d="M12.1494 14.4795C13.5301 14.4795 14.6494 13.3602 14.6494 11.9795C14.6494 10.5988 13.5301 9.47949 12.1494 9.47949C10.7687 9.47949 9.64941 10.5988 9.64941 11.9795C9.64941 13.3602 10.7687 14.4795 12.1494 14.4795Z" stroke="#292D32" stroke-width="1.5" stroke-miterlimit="10" stroke-linecap="round" stroke-linejoin="round"/>
<path d="M4.56618 8.44703L5.29951 7.17685C5.73285 6.4263 6.70462 6.15981 7.46239 6.59731C8.76864 7.35148 9.83602 6.73605 9.83346 5.22384C9.83318 4.35765 10.5444 3.64244 11.4178 3.64633L13.0788 3.6527C13.8448 3.64267 14.4642 4.26974 14.4743 5.03571L14.4745 5.21866C14.4698 6.72671 15.5379 7.34338 16.8488 6.58949L17.0074 6.49821C17.6758 6.12391 18.5285 6.34684 18.9028 7.0152L19.7389 8.4505C20.1789 9.20494 19.9152 10.1785 19.1649 10.6113C17.854 11.3652 17.8547 12.5973 19.1609 13.3515C19.9115 13.7848 20.178 14.7566 19.7405 15.5144L19.0072 16.7845C18.5738 17.5351 17.6021 17.8016 16.8443 17.3641C15.538 16.6099 14.4706 17.2253 14.4732 18.7375C14.4693 19.6109 13.7623 20.3189 12.8889 20.315L11.2278 20.3087C10.4619 20.3187 9.84242 19.6916 9.8324 18.9257L9.83218 18.7427C9.83682 17.2347 8.76873 16.618 7.45782 17.3719L7.29927 17.4632C6.63091 17.8375 5.77812 17.6145 5.40382 16.9462L4.5678 15.5109C4.12773 14.7564 4.39151 13.7829 5.14179 13.35C6.45269 12.5962 6.45198 11.3641 5.14572 10.6099C4.38795 10.1724 4.13285 9.19758 4.56618 8.44703Z" stroke="#292D32" stroke-width="1.5" stroke-miterlimit="10" stroke-linecap="round" stroke-linejoin="round"/>
</svg>
