<svg width="24" height="24" viewBox="0 0 24 24" fill="none" xmlns="http://www.w3.org/2000/svg">
<path d="M5 18.2212V5.7768C5 5.30531 5.18437 4.85312 5.51256 4.51972C5.84075 4.18632 6.28587 3.99902 6.75 3.99902H18.475C18.6142 3.99902 18.7478 4.05521 18.8462 4.15523C18.9447 4.25525 19 4.39091 19 4.53236V16.1892M6.75 16.4435H19M6.75 19.999H19" stroke="#292D32" stroke-width="1.5" stroke-linecap="round"/>
<path d="M7 19.999C6.46957 19.999 5.96086 19.7541 5.58579 19.4259C5.21071 19.0977 5 18.6526 5 18.1885C5 17.7243 5.21071 17.2792 5.58579 16.951C5.96086 16.6229 6.46957 16.4385 7 16.4385" stroke="#292D32" stroke-width="1.5" stroke-linecap="round" stroke-linejoin="round"/>
<path d="M9 7.99902H15" stroke="#292D32" stroke-width="1.5" stroke-linecap="round"/>
</svg>
