<svg width="25" height="24" viewBox="0 0 25 24" fill="none" xmlns="http://www.w3.org/2000/svg">
<path d="M2.14661 13H5.93661C6.69661 13 7.38661 13.43 7.72661 14.11L8.61661 15.9C9.16661 17 10.1666 17 10.4066 17H13.9366C14.6966 17 15.3866 16.57 15.7266 15.89L16.6166 14.1C16.9566 13.42 17.6466 12.99 18.4066 12.99H22.1466" stroke="#AEAEB2" stroke-width="1.5" stroke-linecap="round" stroke-linejoin="round"/>
<path d="M19.1666 8C20.8235 8 22.1666 6.65685 22.1666 5C22.1666 3.34315 20.8235 2 19.1666 2C17.5098 2 16.1666 3.34315 16.1666 5C16.1666 6.65685 17.5098 8 19.1666 8Z" fill="#FF2A2C" stroke="#FF2A2C" stroke-width="1.5" stroke-linecap="round" stroke-linejoin="round"/>
<path d="M14.1666 2H9.16663C4.16663 2 2.16663 4 2.16663 9V15C2.16663 20 4.16663 22 9.16663 22H15.1666C20.1666 22 22.1666 20 22.1666 15V10" stroke="#AEAEB2" stroke-width="1.5" stroke-linecap="round" stroke-linejoin="round"/>
</svg>
