<svg width="25" height="24" viewBox="0 0 25 24" fill="none" xmlns="http://www.w3.org/2000/svg">
<path d="M21.4666 12.23H17.9866C17.0066 12.23 16.1366 12.77 15.6966 13.65L14.8566 15.31C14.6566 15.71 14.2566 15.96 13.8166 15.96H10.5366C10.2266 15.96 9.78663 15.89 9.49663 15.31L8.65663 13.66C8.21663 12.79 7.33663 12.24 6.36663 12.24H2.86663C2.47663 12.24 2.16663 12.55 2.16663 12.94V16.2C2.16663 19.83 4.34663 22 7.98663 22H16.3666C19.7966 22 21.9066 20.12 22.1666 16.78V12.93C22.1666 12.55 21.8566 12.23 21.4666 12.23Z" fill="#292D32"/>
<path d="M22.1666 7.81V10.85C21.9466 10.77 21.7066 10.73 21.4666 10.73H17.9866C16.4366 10.73 15.0466 11.59 14.3566 12.97L13.6066 14.45H10.7466L9.99663 12.98C9.30663 11.59 7.91663 10.73 6.36663 10.73H2.86663C2.62663 10.73 2.38663 10.77 2.16663 10.85V7.81C2.16663 4.17 4.33663 2 7.97663 2H16.3566C19.9966 2 22.1666 4.17 22.1666 7.81Z" fill="#292D32"/>
<path d="M19.1666 8C20.8235 8 22.1666 6.65685 22.1666 5C22.1666 3.34315 20.8235 2 19.1666 2C17.5098 2 16.1666 3.34315 16.1666 5C16.1666 6.65685 17.5098 8 19.1666 8Z" fill="#FF2A2C" stroke="#FF2A2C" stroke-width="1.5" stroke-linecap="round" stroke-linejoin="round"/>
</svg>
