<svg width="25" height="24" viewBox="0 0 25 24" fill="none" xmlns="http://www.w3.org/2000/svg">
<path d="M20.9966 8.01002L14.4466 2.77002C13.1666 1.75002 11.1666 1.74002 9.89659 2.76002L3.34659 8.01002C2.40659 8.76002 1.83659 10.26 2.03659 11.44L3.29659 18.98C3.58659 20.67 5.15659 22 6.86659 22H17.4666C19.1566 22 20.7566 20.64 21.0466 18.97L22.3066 11.43C22.4866 10.26 21.9166 8.76002 20.9966 8.01002ZM12.9166 18C12.9166 18.41 12.5766 18.75 12.1666 18.75C11.7566 18.75 11.4166 18.41 11.4166 18V15C11.4166 14.59 11.7566 14.25 12.1666 14.25C12.5766 14.25 12.9166 14.59 12.9166 15V18Z" fill="#292D32"/>
</svg>
