<svg width="98" height="24" viewBox="0 0 98 24" fill="none" xmlns="http://www.w3.org/2000/svg">
<path d="M30.2647 18.9633C29.8352 19.2698 29.3341 19.5423 28.7577 19.7809C28.1812 20.0195 27.5269 20.1389 26.7909 20.1389C26.1906 20.1389 25.6355 20.0497 25.1281 19.8726C24.6195 19.6955 24.1787 19.4406 23.8044 19.1103C23.4301 18.78 23.13 18.3693 22.9039 17.8795C22.6766 17.3897 22.5523 16.8321 22.5272 16.2066V16.115C22.3312 16.1401 22.1315 16.1552 21.9293 16.1614C21.7272 16.1677 21.5275 16.2079 21.3315 16.2807V14.6079C21.54 14.5463 21.7422 14.5099 21.9381 14.4974C22.1341 14.4848 22.3363 14.4672 22.5447 14.4421C22.5812 13.8543 22.7168 13.3156 22.9491 12.8245C23.1815 12.3347 23.4942 11.9115 23.886 11.5561C24.2779 11.2006 24.7438 10.9256 25.2826 10.7297C25.8214 10.5338 26.4154 10.4358 27.0647 10.4358C27.763 10.4358 28.3935 10.589 28.9574 10.8955C29.3856 11.1404 29.741 11.4769 30.0236 11.9064C30.3049 12.336 30.4469 12.8195 30.4469 13.3583C30.4469 13.897 30.2572 14.4484 29.8767 14.9382C29.4848 15.4531 29.0151 15.7872 28.4701 15.9404C27.925 16.0936 27.3335 16.1702 26.6967 16.1702C26.4142 16.1702 26.0876 16.1577 25.7134 16.1338C25.3391 16.1099 25 16.0974 24.6936 16.0974C24.6082 16.0974 24.5278 16.0999 24.455 16.1062C24.3809 16.1125 24.3143 16.1212 24.2528 16.1338V16.2255C24.2528 16.9489 24.4951 17.4965 24.9787 17.8707C25.4622 18.245 26.0663 18.4308 26.7884 18.4308C27.1564 18.4308 27.4955 18.4007 27.8082 18.3392C28.1209 18.2776 28.4148 18.1922 28.6898 18.0817C28.9661 17.9712 29.2324 17.8431 29.4899 17.6961C29.7473 17.5492 30.0048 17.3897 30.2622 17.2189V18.9646L30.2647 18.9633ZM27.287 12.0346C26.9077 12.0346 26.5423 12.0835 26.1931 12.1815C25.844 12.2795 25.5313 12.4264 25.2562 12.6223C24.9812 12.8182 24.7539 13.0669 24.5768 13.3671C24.3997 13.6672 24.2917 14.0264 24.2553 14.4421L25.2474 14.4057C25.4559 14.4308 25.7096 14.4459 26.0098 14.4522C26.3099 14.4584 26.6013 14.4609 26.8826 14.4609C27.1275 14.4609 27.3724 14.4459 27.6173 14.4145C27.8622 14.3843 28.0795 14.3228 28.2704 14.2311C28.46 14.1394 28.6132 14.0138 28.73 13.8543C28.8468 13.6948 28.9046 13.4926 28.9046 13.2477C28.9046 12.8069 28.7388 12.4942 28.4085 12.3108C28.0782 12.1275 27.704 12.0346 27.287 12.0346Z" fill="#292D32"/>
<path d="M26.7905 20.2022C26.1864 20.2022 25.62 20.1118 25.1063 19.9322C24.5926 19.7526 24.1405 19.4926 23.7625 19.1573C23.3845 18.822 23.0755 18.4013 22.8469 17.9052C22.6184 17.4104 22.489 16.8402 22.4639 16.2085V16.1846C22.2906 16.2047 22.111 16.2173 21.9314 16.2223C21.7367 16.2286 21.5421 16.2675 21.3549 16.3378L21.2695 16.3692V14.5595L21.3147 14.5457C21.527 14.4841 21.7355 14.4452 21.9352 14.4326C22.1122 14.4213 22.2981 14.405 22.4865 14.3837C22.5279 13.8097 22.6648 13.276 22.8934 12.7962C23.1283 12.3001 23.4485 11.8668 23.8454 11.5089C24.2422 11.1497 24.7182 10.8671 25.2633 10.67C25.8071 10.4728 26.4137 10.3723 27.0668 10.3723C27.7726 10.3723 28.4194 10.5293 28.9895 10.8395C29.4266 11.0894 29.7921 11.4361 30.0784 11.8706C30.366 12.3089 30.5117 12.8088 30.5117 13.3576C30.5117 13.9064 30.3158 14.4778 29.9289 14.9764C29.5296 15.5001 29.0461 15.8443 28.4897 16C27.9421 16.1545 27.3393 16.2323 26.6988 16.2323C26.4137 16.2323 26.0809 16.2198 25.7116 16.1959C25.3399 16.1721 24.9983 16.1595 24.6956 16.1595C24.6127 16.1595 24.5349 16.162 24.462 16.1683C24.4105 16.1721 24.3628 16.1783 24.3176 16.1859V16.2248C24.3176 16.9243 24.5537 17.4606 25.0196 17.8198C25.4893 18.1827 26.0859 18.3674 26.7917 18.3674C27.1547 18.3674 27.4938 18.3372 27.8002 18.2769C28.1066 18.2167 28.4005 18.1313 28.6705 18.0232C28.9418 17.914 29.2093 17.7859 29.4618 17.6415C29.7192 17.4945 29.9767 17.335 30.2304 17.1655L30.3283 17.1002V18.9953L30.302 19.0141C29.8712 19.3218 29.36 19.5994 28.7823 19.8393C28.2021 20.0804 27.5314 20.2022 26.7917 20.2022H26.7905ZM22.5895 16.044V16.2072C22.6133 16.8188 22.7389 17.3739 22.96 17.8537C23.1823 18.3335 23.4799 18.7416 23.8454 19.0644C24.2108 19.3884 24.6492 19.6408 25.1477 19.8154C25.6476 19.99 26.2002 20.0779 26.7905 20.0779C27.5139 20.0779 28.1669 19.9586 28.7333 19.7237C29.2897 19.4926 29.7845 19.2264 30.2015 18.9313V17.335C29.9779 17.482 29.7506 17.6214 29.5233 17.7507C29.2646 17.8989 28.9933 18.0295 28.7157 18.14C28.4369 18.2518 28.1368 18.3385 27.8228 18.4C27.5088 18.4616 27.1609 18.493 26.7905 18.493C26.057 18.493 25.4341 18.2995 24.9418 17.919C24.4444 17.5347 24.1907 16.9645 24.1907 16.2248V16.0816L24.241 16.0716C24.3038 16.059 24.3741 16.049 24.4495 16.0427C24.5261 16.0364 24.6077 16.0339 24.6944 16.0339C24.9995 16.0339 25.3437 16.0465 25.7179 16.0703C26.0859 16.0942 26.4149 16.1067 26.6975 16.1067C27.3267 16.1067 27.917 16.0301 28.4545 15.8794C28.9833 15.7312 29.4454 15.4009 29.8272 14.8998C30.1965 14.4226 30.3836 13.9039 30.3836 13.3576C30.3836 12.8113 30.2454 12.3566 29.9717 11.9397C29.6966 11.5215 29.345 11.1874 28.9267 10.9488C28.3754 10.6499 27.7487 10.4979 27.0655 10.4979C26.4275 10.4979 25.8347 10.5959 25.3047 10.788C24.776 10.9802 24.3126 11.254 23.9283 11.6031C23.544 11.951 23.2338 12.3704 23.0052 12.8515C22.7766 13.3325 22.6435 13.8687 22.6071 14.4452L22.6033 14.4979L22.5518 14.5042C22.3433 14.5293 22.1374 14.5482 21.9414 14.5595C21.7656 14.5708 21.581 14.6022 21.3939 14.6549V16.1909C21.5684 16.1344 21.7468 16.103 21.9264 16.0967C22.1273 16.0904 22.3257 16.0753 22.5179 16.0515L22.5882 16.0427L22.5895 16.044ZM26.8834 14.5243C26.5933 14.5243 26.2994 14.5218 26.0093 14.5155C25.7079 14.5092 25.4492 14.4942 25.2407 14.4691L24.187 14.5092L24.1933 14.4389C24.2309 14.0144 24.3415 13.6439 24.5236 13.3375C24.7044 13.0311 24.9393 12.7748 25.2206 12.5739C25.5007 12.3742 25.8234 12.2235 26.1776 12.123C26.5317 12.0238 26.9047 11.9736 27.2878 11.9736C27.7135 11.9736 28.1004 12.069 28.4395 12.2574C28.7898 12.4521 28.9682 12.7862 28.9682 13.2496C28.9682 13.507 28.9054 13.7231 28.7811 13.8926C28.6592 14.0596 28.4972 14.1928 28.2988 14.2895C28.1029 14.3837 27.8768 14.4477 27.6269 14.4791C27.3807 14.5105 27.1308 14.5256 26.8834 14.5256V14.5243ZM25.2444 14.3435C25.4592 14.3686 25.7142 14.3837 26.0105 14.3899C26.543 14.4012 27.0818 14.4201 27.6093 14.3535C27.8454 14.3246 28.0589 14.2643 28.2423 14.1752C28.4219 14.0885 28.5688 13.968 28.6781 13.8185C28.7861 13.6703 28.8401 13.4794 28.8401 13.2496C28.8401 12.8289 28.6881 12.5413 28.3767 12.3667C28.0564 12.1883 27.6897 12.0992 27.2865 12.0992C26.9148 12.0992 26.5531 12.1482 26.2102 12.2436C25.8699 12.3391 25.5609 12.4847 25.2922 12.6756C25.0247 12.8665 24.8024 13.1102 24.6303 13.4003C24.4683 13.6741 24.3653 14.0031 24.3239 14.3774L25.2444 14.3435Z" fill="#292D32"/>
<path d="M39.4112 16.1503V17.5192C39.4112 17.9663 39.4074 18.3645 39.4024 18.7136C39.3961 19.0627 39.3936 19.3453 39.3936 19.5588V19.8992H37.7031V18.9384C37.3477 19.3742 36.9195 19.6831 36.4171 19.8653C35.9147 20.0474 35.3998 20.1378 34.8736 20.1378C34.4441 20.1378 34.0158 20.0737 33.5876 19.9444C33.158 19.8163 32.7725 19.6229 32.4296 19.3654C32.0868 19.1079 31.8105 18.7864 31.6032 18.4009C31.3948 18.0153 31.2905 17.5644 31.2905 17.0495C31.2905 16.5346 31.3797 16.0699 31.5568 15.6894C31.7339 15.3101 31.98 14.9999 32.2915 14.7613C32.6042 14.5227 32.9722 14.3481 33.3942 14.2376C33.8174 14.1271 34.2796 14.0718 34.7819 14.0718C35.2227 14.0718 35.6912 14.1082 36.1873 14.1823C36.6834 14.2564 37.1895 14.372 37.7031 14.5315V14.4574C37.7283 14.3594 37.7396 14.274 37.7396 14.1999V13.9613C37.7396 13.631 37.6755 13.3421 37.5462 13.0972C37.4168 12.8523 37.2485 12.6501 37.04 12.4906C36.8315 12.3311 36.5954 12.2118 36.333 12.1327C36.0692 12.0536 35.7967 12.0134 35.5154 12.0134C35.234 12.0134 34.9829 12.0435 34.7254 12.1051C34.468 12.1666 34.2356 12.2646 34.0271 12.3989C33.8186 12.5333 33.6466 12.7016 33.5122 12.9038C33.3778 13.106 33.3037 13.3484 33.2912 13.6297H31.6007C31.6372 13.0909 31.769 12.6187 31.9963 12.2143C32.2224 11.8099 32.5113 11.4759 32.8604 11.2121C33.2095 10.9484 33.6051 10.7499 34.046 10.6143C34.4868 10.4799 34.9402 10.4121 35.4061 10.4121C35.9449 10.4121 36.4535 10.4862 36.932 10.6331C37.4093 10.7801 37.8287 11.0137 38.1904 11.3314C38.5521 11.6504 38.8397 12.0573 39.0545 12.5534C39.2692 13.0495 39.3823 13.6536 39.3948 14.3632V14.4548C39.5782 14.431 39.7653 14.3996 39.955 14.3632C40.1446 14.3267 40.3443 14.284 40.5528 14.2351V15.9632L39.4137 16.1465L39.4112 16.1503ZM37.7207 16.1905C37.6479 16.1905 37.516 16.1654 37.3251 16.1164C37.1355 16.0674 36.9144 16.0147 36.6633 15.9594C36.4121 15.9042 36.1421 15.8514 35.8545 15.8024C35.5669 15.7534 35.288 15.7283 35.018 15.7283C34.8096 15.7283 34.586 15.7497 34.3474 15.7936C34.1088 15.8376 33.8877 15.9142 33.6855 16.0247C33.4833 16.1352 33.315 16.2772 33.1794 16.4505C33.045 16.6225 32.9772 16.8385 32.9772 17.0973C32.9772 17.307 33.035 17.4979 33.1518 17.6712C33.2686 17.8445 33.4243 17.9952 33.6202 18.1246C33.8161 18.2539 34.0435 18.3557 34.3009 18.4298C34.5584 18.5039 34.8334 18.5403 35.1273 18.5403C35.4702 18.5403 35.7954 18.4813 36.1019 18.3645C36.4083 18.2477 36.6808 18.102 36.9195 17.9299C37.1581 17.7579 37.3477 17.572 37.4896 17.3748C37.6303 17.1776 37.7069 16.998 37.7195 16.8385V16.1918L37.7207 16.1905Z" fill="#292D32"/>
<path d="M34.8722 20.2035C34.4389 20.2035 34.0006 20.1381 33.5674 20.0075C33.1328 19.8769 32.7372 19.6797 32.3893 19.4185C32.0402 19.1573 31.7563 18.8257 31.5454 18.4326C31.3331 18.0395 31.2251 17.5749 31.2251 17.0524C31.2251 16.53 31.3168 16.0527 31.4976 15.6659C31.6785 15.2791 31.9322 14.9588 32.2512 14.7152C32.5689 14.4728 32.9469 14.2919 33.3765 14.1802C34.1739 13.9717 35.1284 13.9654 36.1947 14.1237C36.6656 14.194 37.1504 14.3032 37.6402 14.4502V14.4464C37.6641 14.3535 37.6766 14.2731 37.6766 14.204V13.9654C37.6766 13.6464 37.6139 13.3663 37.4908 13.1302C37.3664 12.8941 37.2032 12.6969 37.0022 12.545C36.8013 12.3918 36.5689 12.2737 36.3153 12.1971C35.8129 12.0451 35.254 12.0489 34.7404 12.1707C34.4904 12.2298 34.2619 12.3265 34.0622 12.4558C33.8625 12.5852 33.6955 12.7497 33.5661 12.9431C33.438 13.1353 33.3677 13.3676 33.3564 13.6364L33.3538 13.6966H31.5353L31.5403 13.6301C31.578 13.0838 31.7136 12.599 31.9435 12.1883C32.1733 11.7789 32.4684 11.4348 32.8239 11.1673C33.1768 10.901 33.5824 10.6963 34.0283 10.5607C34.4741 10.425 34.9375 10.356 35.406 10.356C35.9485 10.356 36.4685 10.4313 36.9495 10.5795C37.433 10.729 37.865 10.9676 38.2318 11.2903C38.5985 11.6144 38.8949 12.0326 39.1121 12.5349C39.3282 13.036 39.445 13.6539 39.4575 14.3686V14.3899C39.6158 14.3673 39.779 14.3397 39.9435 14.3083C40.1332 14.2718 40.3341 14.2279 40.5388 14.1802L40.6154 14.1626V16.0226L39.4763 16.2059V17.5221C39.4763 17.9579 39.4738 18.3598 39.4676 18.7177C39.4613 19.0669 39.4588 19.3482 39.4588 19.5617V19.9648H37.6427V19.1121C37.3036 19.4876 36.8992 19.7626 36.4408 19.9284C35.9335 20.1118 35.4072 20.2047 34.876 20.2047L34.8722 20.2035ZM34.7805 14.1387C34.2857 14.1387 33.8248 14.194 33.4091 14.302C32.9959 14.41 32.633 14.5821 32.329 14.8144C32.0264 15.0467 31.7852 15.3507 31.6132 15.7186C31.4399 16.0879 31.3532 16.5375 31.3532 17.0524C31.3532 17.5673 31.4562 17.9994 31.6584 18.3736C31.8618 18.7504 32.1344 19.0681 32.4672 19.318C32.8025 19.5692 33.1856 19.7614 33.605 19.887C34.5419 20.1683 35.5002 20.1319 36.3956 19.8091C36.8842 19.632 37.3074 19.3268 37.654 18.9023L37.7658 18.7654V19.8392H39.3307V19.5617C39.3307 19.3469 39.3332 19.0644 39.3395 18.7152C39.3457 18.3585 39.3482 17.9567 39.3482 17.5221V16.0992L40.4873 15.9158V14.3208C40.3078 14.3623 40.1332 14.3999 39.9649 14.4326C39.7727 14.4703 39.5831 14.5004 39.401 14.5255L39.3294 14.5356V14.3723C39.3168 13.674 39.2051 13.0737 38.9941 12.5864C38.7843 12.1017 38.4993 11.6973 38.1464 11.387C37.7934 11.0756 37.3777 10.8458 36.9106 10.7013C36.4408 10.5569 35.9335 10.4841 35.4035 10.4841C34.9463 10.4841 34.4955 10.5506 34.0622 10.6837C33.6301 10.8156 33.2383 11.014 32.8954 11.2715C32.5551 11.529 32.27 11.8593 32.049 12.2536C31.838 12.6304 31.7086 13.075 31.6672 13.5748H33.2308C33.2509 13.3073 33.3275 13.0737 33.4581 12.8765C33.5962 12.6681 33.7758 12.4922 33.9906 12.3528C34.2028 12.2147 34.4452 12.113 34.709 12.0502C35.2452 11.9233 35.8255 11.9208 36.3504 12.079C36.6192 12.1607 36.8641 12.285 37.0776 12.447C37.2923 12.6115 37.4682 12.8225 37.6 13.0737C37.7332 13.3274 37.7997 13.6276 37.7997 13.9667V14.2053C37.7997 14.2819 37.7872 14.3711 37.7633 14.4703V14.621L37.6817 14.5959C37.1718 14.4376 36.6644 14.3208 36.1746 14.2492C35.6835 14.1764 35.2138 14.14 34.778 14.14L34.7805 14.1387ZM35.1297 18.6047C34.8308 18.6047 34.5457 18.567 34.2857 18.4917C34.0232 18.4163 33.7884 18.3108 33.5887 18.1789C33.3865 18.0458 33.2232 17.8863 33.1027 17.708C32.9796 17.5259 32.9168 17.3212 32.9168 17.0989C32.9168 16.8263 32.9896 16.5953 33.1328 16.4132C33.2722 16.2348 33.448 16.0866 33.6578 15.9711C33.865 15.8568 34.0948 15.7777 34.3385 15.7337C34.5809 15.6898 34.8107 15.6684 35.0204 15.6684C35.2917 15.6684 35.5768 15.6935 35.8669 15.7438C36.1558 15.7927 36.4283 15.8467 36.6782 15.9007C36.9382 15.9585 37.1555 16.01 37.3426 16.059C37.5712 16.118 37.6754 16.1306 37.7219 16.1306H37.7847V16.8402C37.7708 17.016 37.6905 17.2069 37.5435 17.4128C37.3991 17.615 37.2019 17.8059 36.9595 17.9818C36.7184 18.1563 36.4383 18.3058 36.1269 18.4238C35.8141 18.5432 35.4801 18.6034 35.1309 18.6034L35.1297 18.6047ZM35.0192 15.7927C34.817 15.7927 34.5947 15.8141 34.3598 15.8568C34.1287 15.8982 33.9127 15.9736 33.7168 16.0816C33.5234 16.1883 33.3589 16.3252 33.2308 16.491C33.1052 16.6518 33.0424 16.8565 33.0424 17.1001C33.0424 17.296 33.0976 17.4769 33.2057 17.6389C33.3162 17.8034 33.4681 17.9504 33.6565 18.0747C33.8462 18.2003 34.0685 18.2995 34.3196 18.3724C34.5696 18.4439 34.8408 18.4804 35.1297 18.4804C35.4638 18.4804 35.784 18.4226 36.0817 18.3083C36.3818 18.1928 36.6518 18.0496 36.8854 17.8813C37.1178 17.7143 37.3049 17.5322 37.4405 17.3413C37.5737 17.1541 37.6478 16.9846 37.6591 16.8364V16.2524C37.5774 16.2436 37.4631 16.2197 37.3112 16.1796C37.1253 16.1318 36.9093 16.0803 36.6518 16.0226C36.4044 15.9673 36.1331 15.9158 35.8468 15.8656C35.5642 15.8166 35.2854 15.7927 35.0217 15.7927H35.0192Z" fill="#292D32"/>
<path d="M47.2241 12.0529H46.3425C45.962 12.0529 45.5915 12.1145 45.231 12.2363C44.8693 12.3594 44.5516 12.539 44.2753 12.7789C43.999 13.0187 43.7792 13.3088 43.6134 13.6517C43.4476 13.9946 43.3648 14.3864 43.3648 14.8285V19.9375H41.6919V10.7305H43.3459V11.6862C43.4677 11.4175 43.6461 11.1964 43.8784 11.0244C44.1108 10.8523 44.3682 10.7217 44.6508 10.6288C44.9321 10.5371 45.2172 10.4755 45.5048 10.4454C45.7924 10.4153 46.0474 10.3989 46.2671 10.3989H47.204L47.2229 12.0529H47.2241Z" fill="#292D32"/>
<path d="M43.4274 20.0025H41.6289V10.6699H43.4085V11.4398C43.5228 11.2589 43.6685 11.1032 43.8418 10.9763C44.0792 10.8018 44.3442 10.6649 44.6318 10.5719C44.9156 10.479 45.207 10.4162 45.4996 10.3861C45.7897 10.3547 46.0484 10.3396 46.2682 10.3396H47.2679L47.288 12.1192H46.3423C45.9718 12.1192 45.6038 12.1795 45.2509 12.3001C44.8993 12.4194 44.584 12.5977 44.3165 12.83C44.049 13.0624 43.8318 13.3487 43.671 13.6828C43.5102 14.0156 43.4286 14.4024 43.4286 14.8319V20.0037L43.4274 20.0025ZM41.7545 19.8769H43.3018V14.8307C43.3018 14.3823 43.3872 13.9767 43.5567 13.6275C43.725 13.2784 43.9523 12.9782 44.2336 12.7346C44.5137 12.491 44.8428 12.3051 45.2107 12.1807C45.5775 12.0564 45.958 11.9936 46.3423 11.9936H47.1611L47.1448 10.4652H46.2695C46.0534 10.4652 45.7997 10.4803 45.5134 10.5104C45.2308 10.5405 44.947 10.6021 44.6719 10.6913C44.3982 10.7804 44.1445 10.911 43.9184 11.0768C43.6949 11.2413 43.5228 11.4561 43.4047 11.7136L43.2842 11.9773V10.7942H41.7558V19.8756L41.7545 19.8769Z" fill="#292D32"/>
<path d="M6.21414 20.2707C5.81225 20.2707 5.40282 20.2016 4.98963 20.0622C3.88696 19.688 3.09072 18.9482 2.68632 17.9222C2.22164 16.7416 2.27438 15.1893 2.84582 13.3093C3.22007 12.0772 3.72997 10.9858 4.0452 10.3654C2.85712 10.6618 1.95162 11.2596 1.93403 11.2709L0.742188 9.50011C1.74942 8.82193 3.53907 8.04201 5.42543 8.07592C6.17143 6.98706 7.22639 5.62567 8.53001 4.41749C11.6358 1.53897 14.9112 0.703802 18.002 1.99989C21.0501 3.27839 22.7531 6.40432 22.3411 9.96354C21.8865 13.8819 18.64 18.9131 10.984 20.1991L10.6299 18.093C17.1178 17.0028 19.8507 12.8998 20.2199 9.71738C20.5251 7.08753 19.3584 4.88469 17.1756 3.96914C14.8823 3.00712 12.4622 3.6853 9.98183 5.9836C9.08386 6.815 8.31023 7.74185 7.69358 8.57451C8.24116 8.82444 8.77114 9.17986 9.26597 9.66463C10.2405 10.6204 10.7843 12.091 10.7969 13.8053C10.8082 15.3338 10.3938 16.8936 9.66032 18.0867C8.78873 19.5046 7.55418 20.2682 6.21539 20.2682L6.21414 20.2707ZM6.47536 10.3893C6.26939 10.7309 6.14004 10.9657 6.09985 11.0424C4.99968 13.087 4.13186 15.7658 4.67315 17.1397C4.84646 17.5806 5.16546 17.8669 5.67536 18.0402C6.50299 18.3215 7.23267 17.9611 7.84178 16.9702C9.07633 14.9633 8.81761 12.2141 7.77145 11.1893C7.36831 10.7937 6.92874 10.54 6.47662 10.388L6.47536 10.3893Z" fill="#292D32"/>
<path d="M71.4405 9.59042C71.1931 9.59042 70.9796 9.50753 70.8 9.34175C70.6204 9.17597 70.5312 8.97126 70.5312 8.72636C70.5312 8.48146 70.6204 8.27549 70.8 8.11097C70.9796 7.94645 71.1931 7.8623 71.4405 7.8623C71.6879 7.8623 71.9203 7.94519 72.0986 8.11097C72.2782 8.27675 72.3686 8.48146 72.3686 8.72636C72.3686 8.97126 72.2782 9.17597 72.0986 9.34175C71.919 9.50753 71.6992 9.59042 71.4405 9.59042ZM72.2581 20.1387H70.6405V10.9681H72.2581V20.1387Z" fill="#292D32"/>
<path d="M72.3207 20.2008H70.5775V10.9047H72.3207V20.2008ZM70.7031 20.0752H72.1951V11.0303H70.7031V20.0752ZM71.4403 9.65253C71.1778 9.65253 70.948 9.56337 70.7571 9.38754C70.565 9.21046 70.4683 8.98816 70.4683 8.72568C70.4683 8.4632 70.5662 8.24091 70.7571 8.06382C70.948 7.888 71.1778 7.79883 71.4403 7.79883C71.7028 7.79883 71.9515 7.888 72.1411 8.06382C72.3333 8.24091 72.4312 8.4632 72.4312 8.72568C72.4312 8.98816 72.3333 9.21046 72.1411 9.38754C71.9502 9.56337 71.7154 9.65253 71.4403 9.65253ZM71.4403 7.92442C71.2105 7.92442 71.0096 8.00228 70.8425 8.1555C70.6755 8.30998 70.5939 8.49585 70.5939 8.72443C70.5939 8.953 70.6755 9.14013 70.8425 9.29335C71.0096 9.44657 71.2105 9.52443 71.4403 9.52443C71.6827 9.52443 71.8899 9.44657 72.057 9.29335C72.2253 9.13887 72.3069 8.953 72.3069 8.72443C72.3069 8.49585 72.2253 8.30998 72.057 8.1555C71.8899 8.00228 71.6827 7.92442 71.4403 7.92442Z" fill="#292D32"/>
<path d="M79.6353 12.2732H78.7524C78.3731 12.2732 78.0013 12.3347 77.6409 12.4565C77.2792 12.5796 76.9615 12.7592 76.6852 12.9991C76.4101 13.2377 76.1891 13.5291 76.0233 13.8719C75.8575 14.2148 75.7759 14.6066 75.7759 15.0487V20.1577H74.103V10.9507H75.757V11.9064C75.8789 11.6377 76.0572 11.4166 76.2896 11.2446C76.5219 11.0725 76.7793 10.9419 77.0607 10.849C77.342 10.7573 77.6271 10.6957 77.9147 10.6656C78.2023 10.6355 78.4572 10.6191 78.677 10.6191H79.6139L79.6328 12.2732H79.6353Z" fill="#292D32"/>
<path d="M75.8385 20.2215H74.04V10.8889H75.8196V11.6588C75.9339 11.4779 76.0796 11.3222 76.2529 11.1953C76.4903 11.0208 76.7553 10.8851 77.0429 10.7909C77.3267 10.698 77.6193 10.6352 77.9107 10.6051C78.2008 10.5737 78.4595 10.5586 78.6806 10.5586H79.6803L79.7004 12.3382H78.7547C78.3842 12.3382 78.0162 12.3985 77.6633 12.5191C77.3117 12.6384 76.9964 12.8167 76.7289 13.049C76.4614 13.2814 76.2441 13.5677 76.0834 13.9018C75.9226 14.2346 75.8423 14.6214 75.8423 15.0509V20.2227L75.8385 20.2215ZM74.1656 20.0959H75.7129V15.0497C75.7129 14.6013 75.7983 14.1969 75.9666 13.8465C76.1349 13.4974 76.3622 13.1972 76.6435 12.9536C76.9236 12.7112 77.2526 12.5241 77.6206 12.3997C77.9873 12.2754 78.3679 12.2126 78.7522 12.2126H79.571L79.5547 10.6842H78.6793C78.4633 10.6842 78.2084 10.6993 77.9233 10.7294C77.6407 10.7595 77.3569 10.8211 77.0818 10.9102C76.808 10.9994 76.5544 11.13 76.3283 11.2958C76.1047 11.4603 75.9327 11.6751 75.8146 11.9325L75.6941 12.1975V11.0145H74.1656V20.0959Z" fill="#292D32"/>
<path d="M79.6487 15.4736C79.6487 14.8858 79.7492 14.3094 79.9514 13.7455C80.1536 13.1816 80.45 12.6767 80.8431 12.2296C81.2349 11.7825 81.7159 11.4246 82.2861 11.1545C82.8563 10.8845 83.5144 10.7501 84.2616 10.7501C84.5681 10.7501 84.9072 10.7753 85.2814 10.8242C85.6544 10.8732 85.9458 10.9586 86.1543 11.0817V8.28857H87.8635V19.6281C87.3612 19.8604 86.8438 20.035 86.31 20.1518C85.7775 20.2686 85.2525 20.3264 84.7389 20.3264C84.0645 20.3264 83.4214 20.2221 82.8086 20.0136C82.1957 19.8052 81.6531 19.4987 81.1822 19.0943C80.7099 18.6899 80.3369 18.1851 80.0606 17.5785C79.7844 16.9719 79.6475 16.2711 79.6475 15.4736H79.6487ZM81.2299 15.7486C81.2663 16.2384 81.3793 16.6616 81.5702 17.0171C81.7599 17.3725 82.0048 17.6664 82.3049 17.8987C82.6051 18.131 82.9417 18.3031 83.3159 18.4136C83.6889 18.5241 84.0783 18.5794 84.4827 18.5794C84.764 18.5794 85.0528 18.5518 85.3467 18.4965C85.6406 18.4413 85.9106 18.3646 86.1555 18.2667V12.8086C85.9722 12.7106 85.726 12.6365 85.4208 12.5875C85.1144 12.5385 84.8569 12.5134 84.6484 12.5134C83.5947 12.5134 82.7608 12.7621 82.1492 13.2582C81.5363 13.7542 81.2299 14.5844 81.2299 15.7486Z" fill="#292D32"/>
<path d="M84.7404 20.3872C84.0635 20.3872 83.4067 20.2805 82.79 20.072C82.1721 19.8622 81.6183 19.5495 81.1423 19.1414C80.6663 18.7332 80.2832 18.2158 80.0044 17.6029C79.7269 16.9913 79.585 16.2741 79.585 15.4729C79.585 14.8801 79.6879 14.2923 79.8914 13.7247C80.0949 13.1558 80.3988 12.6396 80.7944 12.1887C81.19 11.7378 81.6823 11.3699 82.2575 11.0986C82.834 10.8261 83.5071 10.6879 84.2607 10.6879C84.5671 10.6879 84.9125 10.713 85.2892 10.762C85.617 10.8047 85.8858 10.8776 86.0918 10.9768V8.2251H87.9266V19.6676L87.8902 19.6839C87.3853 19.9175 86.8591 20.0958 86.3241 20.2126C85.7891 20.3294 85.2553 20.3885 84.7392 20.3885L84.7404 20.3872ZM84.2619 10.8122C83.5272 10.8122 82.8716 10.9466 82.3128 11.2104C81.7539 11.4754 81.2754 11.832 80.8911 12.2703C80.5055 12.7099 80.2104 13.2123 80.012 13.7661C79.8135 14.32 79.7131 14.8939 79.7131 15.4729C79.7131 16.2566 79.85 16.9561 80.1212 17.5514C80.3912 18.1467 80.763 18.6491 81.2264 19.0459C81.6898 19.4428 82.2299 19.748 82.8327 19.9527C83.8977 20.3144 85.0845 20.3533 86.3002 20.0883C86.8126 19.9765 87.3188 19.807 87.8036 19.586V8.34943H86.2199V11.1903L86.1257 11.135C85.9247 11.017 85.6396 10.9341 85.2767 10.8863C84.9062 10.8374 84.5659 10.8135 84.2644 10.8135L84.2619 10.8122ZM84.483 18.6415C84.0748 18.6415 83.6754 18.585 83.2987 18.4732C82.9194 18.3615 82.5715 18.1844 82.2676 17.9483C81.9611 17.7109 81.7087 17.4082 81.5153 17.0465C81.3219 16.6861 81.2051 16.2503 81.1686 15.7542V15.7492C81.1686 14.5712 81.4851 13.7159 82.1106 13.2098C82.7322 12.7061 83.5862 12.4512 84.65 12.4512C84.8597 12.4512 85.1222 12.4763 85.4324 12.5253C85.7439 12.5755 85.9976 12.6521 86.1872 12.7526L86.2199 12.7702V18.3087L86.1809 18.325C85.9335 18.4242 85.6572 18.5021 85.3608 18.5586C85.0644 18.6139 84.7693 18.6428 84.4855 18.6428L84.483 18.6415ZM81.293 15.7454C81.3294 16.2239 81.4412 16.6409 81.6258 16.9862C81.8104 17.3316 82.0528 17.6217 82.3442 17.8478C82.6368 18.0751 82.9696 18.2447 83.3338 18.3514C83.9555 18.5348 84.6312 18.5649 85.3357 18.433C85.6095 18.3815 85.8645 18.3112 86.093 18.222V12.8443C85.9197 12.7589 85.6899 12.6923 85.4111 12.6471C85.1084 12.5994 84.8522 12.5743 84.6487 12.5743C83.6151 12.5743 82.7862 12.8204 82.1884 13.3052C81.5944 13.7862 81.293 14.6063 81.293 15.7442V15.7454Z" fill="#292D32"/>
<path d="M97.2114 10.9329C96.8434 11.5458 96.5282 12.2528 96.2644 13.0554C96.0007 13.8579 95.737 14.6818 95.4745 15.527C95.2107 16.3722 94.9256 17.1998 94.6205 18.0074C94.314 18.8162 93.931 19.5421 93.4713 20.1851C93.0117 20.8281 92.4515 21.3455 91.7897 21.7386C91.1278 22.1305 90.3127 22.3264 89.3457 22.3264H89.033V20.7276C89.5969 20.7276 90.0678 20.6787 90.4484 20.5807C90.8277 20.4827 91.1529 20.3396 91.423 20.1499C91.6917 19.9603 91.9253 19.7317 92.1212 19.4617C92.3171 19.1929 92.5131 18.8802 92.709 18.5261L88.8496 10.9316H90.5953L93.5542 16.6837C93.7011 16.2177 93.8393 15.753 93.9674 15.2871C94.0955 14.8212 94.2399 14.3527 94.3994 13.8817C94.5589 13.4108 94.736 12.9298 94.9319 12.4387C95.1279 11.9489 95.3665 11.4466 95.649 10.9316H97.2114V10.9329Z" fill="#292D32"/>
<path d="M89.3459 22.389H88.9704V20.6647H89.0332C89.5883 20.6647 90.0593 20.6157 90.4323 20.5202C90.8028 20.4248 91.1243 20.2829 91.3855 20.0982C91.648 19.9136 91.8791 19.6863 92.0687 19.4251C92.2571 19.1664 92.448 18.8624 92.6364 18.5246L88.7456 10.8687H90.632L93.5381 16.5189C93.6662 16.1083 93.7893 15.6888 93.9048 15.2706C94.0329 14.8059 94.1786 14.3324 94.3381 13.8615C94.4951 13.3943 94.6747 12.9082 94.8719 12.4159C95.0678 11.9249 95.3102 11.4162 95.5915 10.9026L95.6091 10.8699H97.3196L97.2631 10.9654C96.9002 11.5707 96.5837 12.2815 96.3224 13.0753C96.0587 13.8803 95.7924 14.7117 95.5325 15.5456C95.2687 16.3896 94.9811 17.226 94.6772 18.0298C94.3708 18.8398 93.9814 19.577 93.5205 20.2213C93.0584 20.8681 92.4857 21.3968 91.82 21.7912C91.1519 22.1868 90.318 22.3877 89.3434 22.3877L89.3459 22.389ZM89.096 22.2634H89.3459C90.2979 22.2634 91.1092 22.0688 91.7585 21.6844C92.4103 21.2989 92.9692 20.7815 93.4213 20.1485C93.8759 19.513 94.259 18.7846 94.5629 17.9846C94.8669 17.1821 95.1545 16.3481 95.4157 15.5067C95.6756 14.6715 95.9419 13.8389 96.2056 13.0338C96.4556 12.2715 96.757 11.5858 97.1023 10.993H95.6869C95.4157 11.4916 95.1808 11.9851 94.9912 12.4611C94.7953 12.9522 94.6157 13.4357 94.4599 13.9004C94.3017 14.3688 94.156 14.8411 94.0292 15.3032C93.8986 15.7729 93.7604 16.2439 93.6147 16.7023L93.5682 16.848L90.5566 10.9942H88.9516L92.7795 18.5271L92.7632 18.556C92.5673 18.9102 92.3676 19.2279 92.1704 19.4979C91.972 19.7705 91.7321 20.0066 91.4571 20.2C91.182 20.3934 90.848 20.5416 90.4624 20.6408C90.0919 20.7362 89.6323 20.7852 89.0947 20.789V22.2622L89.096 22.2634Z" fill="#292D32"/>
<path d="M53.7285 20.5766C52.6937 20.5766 51.7467 19.9474 51.2318 18.8347C50.6302 17.5323 50.7081 14.9904 51.3373 12.3103C49.9257 11.9951 48.6271 12.2073 48.6032 12.2111L48.2402 10.1074C49.1746 9.94544 50.5423 9.91781 51.9225 10.2556C52.0682 9.82236 52.2277 9.39284 52.3998 8.97212C54.3715 4.15072 57.0805 2.27064 59.0045 1.54348C61.3757 0.646768 63.7355 0.871573 65.1609 2.12998C66.1443 2.99781 66.5336 4.2198 66.2297 5.48323C66.0589 6.1903 65.593 7.20381 64.3609 8.22988C66.5751 8.64935 68.1651 9.87008 69.0153 11.8305C69.9572 14.0032 69.5227 16.2036 67.8235 17.8676C65.5214 20.122 60.8005 21.3063 56.1248 19.3107C55.7606 19.7816 55.3072 20.1358 54.8086 20.348C54.4469 20.5013 54.0827 20.5754 53.7273 20.5754L53.7285 20.5766ZM53.3216 13.2133C52.8531 15.4161 52.8544 17.2548 53.1709 17.938C53.4748 18.5961 53.8503 18.4353 53.9747 18.3826C54.6604 18.0912 55.2871 16.8089 54.5335 14.8736C54.251 14.1477 53.8214 13.6089 53.3216 13.212V13.2133ZM56.9461 17.3402C60.7301 18.959 64.5807 18.056 66.3314 16.343C67.0737 15.6171 67.8008 14.3926 67.0586 12.6808C66.3277 10.9966 64.7478 10.1665 62.3578 10.2042C61.3857 10.2205 60.4614 10.3812 59.7706 10.542C59.365 10.6701 58.933 10.7919 58.4758 10.9087L57.8479 8.87039C57.8893 8.85532 58.4055 8.66944 59.1992 8.48106C62.4583 7.43741 63.9038 6.02829 64.1562 4.98213C64.2743 4.49233 64.1374 4.0716 63.7506 3.73C63.1289 3.18117 61.711 2.80314 59.7618 3.5391C56.8469 4.64178 55.1376 7.92218 54.3778 9.7784C54.2057 10.1991 54.0513 10.6211 53.9119 11.0381C55.0032 11.671 55.9577 12.6444 56.5229 14.0974C56.9888 15.2943 57.0943 16.3957 56.9474 17.3364L56.9461 17.3402Z" fill="#292D32"/>
</svg>
