<svg width="40" height="40" viewBox="0 0 40 40" fill="none" xmlns="http://www.w3.org/2000/svg">
<circle cx="20" cy="20" r="19.8571" fill="#E6FBFF" stroke="#F0F1EC" stroke-width="0.285714"/>
<mask id="mask0_115_20549" style="mask-type:alpha" maskUnits="userSpaceOnUse" x="0" y="0" width="40" height="40">
<circle cx="20" cy="20" r="19.8571" fill="#E6FBFF" stroke="#F0F1EC" stroke-width="0.285714"/>
</mask>
<g mask="url(#mask0_115_20549)">
<path d="M22.8334 41.9611C23.1175 43.6895 23.2491 48.069 21.7737 48.3114C20.2982 48.5539 17.7745 44.5676 17.4904 42.8392C17.2063 41.1108 18.1722 39.5131 19.6476 39.2706C21.123 39.0281 22.5494 40.2327 22.8334 41.9611Z" fill="#5198DD"/>
<path d="M24.1349 40.1107C24.8166 41.7242 26.0123 45.9335 24.7388 46.4715C23.4652 47.0096 20.2045 43.6727 19.5228 42.0592C18.8412 40.4456 19.321 38.7015 20.5946 38.1634C21.8682 37.6253 23.4532 38.4972 24.1349 40.1107Z" fill="#5198DD"/>
<path d="M19.651 40.7086C19.8811 42.6778 20.1545 47.8389 18.7813 47.9993C17.4081 48.1598 14.9081 43.2588 14.6781 41.2897C14.448 39.3205 15.3747 37.5941 16.7479 37.4337C18.1212 37.2732 19.4209 38.7395 19.651 40.7086Z" fill="#5198DD"/>
<g filter="url(#filter0_i_115_20549)">
<path d="M18.8255 30.4309C18.9173 26.1345 15.2162 24.2373 13.3541 23.8257C11.3137 22.8089 8.39989 25.3062 7.75243 31.6387C7.23446 36.7048 9.02017 38.9453 9.97777 39.4324C10.4319 40.3667 11.5479 42.2495 12.3784 42.3063C13.2089 42.3632 13.226 42.0293 13.1308 41.8553C13.4091 42.2858 14.2635 43.1895 15.4543 43.3606C16.6452 43.5316 16.6609 42.9625 16.5198 42.6566C17.0344 43.2959 18.2854 44.4215 19.1729 43.81C20.2824 43.0455 18.9639 40.5889 18.2331 38.0607C17.5023 35.5324 18.7107 35.8013 18.8255 30.4309Z" fill="#4E95DB"/>
</g>
<g filter="url(#filter1_i_115_20549)">
<path d="M21.0171 30.3509C20.7335 26.063 24.3462 24.0023 26.1881 23.508C28.1811 22.4011 31.2034 24.7658 32.133 31.0631C32.8767 36.1009 31.1929 38.419 30.258 38.9483C29.846 39.902 28.8152 41.8327 27.9881 41.9266C27.161 42.0205 27.1289 41.6878 27.2163 41.5096C26.9574 41.9521 26.1443 42.8931 24.9623 43.1172C23.7803 43.3413 23.7392 42.7734 23.8664 42.4615C23.3809 43.1231 22.1814 44.3035 21.2675 43.7322C20.125 43.018 21.3325 40.505 21.9496 37.9466C22.5668 35.3883 21.3716 35.7109 21.0171 30.3509Z" fill="#4E95DB"/>
</g>
<g filter="url(#filter2_i_115_20549)">
<path fill-rule="evenodd" clip-rule="evenodd" d="M27.0466 23.6703C28.1918 22.6524 28.9452 21.3325 29.0873 19.774C29.5925 14.236 25.5212 11.0125 20.4223 10.8741C15.9889 10.7537 11.5781 12.9824 10.8273 17.5988C10.3559 20.4966 11.025 22.4035 12.3667 23.6607C10.317 25.6498 9.11865 28.6654 9.11865 32.1827C9.11865 38.111 13.8286 42.865 19.6387 42.865C27.5346 42.865 31.2074 38.4305 31.2074 31.6396C31.2074 28.1383 29.6375 25.4616 27.0466 23.6703Z" fill="#65A8E9"/>
</g>
<circle cx="22.7033" cy="19.0694" r="0.620761" fill="#272727"/>
<circle cx="17.1681" cy="19.0694" r="0.620761" fill="#272727"/>
<path d="M21.386 20.6723C21.386 21.2861 20.6913 22.8575 19.8342 22.8575C18.9771 22.8575 18.2821 21.2861 18.2822 20.6723C18.2824 20.0483 18.977 19.8447 19.8341 19.8447C20.6912 19.8447 21.386 20.1432 21.386 20.6723Z" fill="#535353"/>
</g>
<defs>
<filter id="filter0_i_115_20549" x="2.48318" y="19.5191" width="17.1169" height="24.4671" filterUnits="userSpaceOnUse" color-interpolation-filters="sRGB">
<feFlood flood-opacity="0" result="BackgroundImageFix"/>
<feBlend mode="normal" in="SourceGraphic" in2="BackgroundImageFix" result="shape"/>
<feColorMatrix in="SourceAlpha" type="matrix" values="0 0 0 0 0 0 0 0 0 0 0 0 0 0 0 0 0 0 127 0" result="hardAlpha"/>
<feOffset dx="-5.72165" dy="-4.08689"/>
<feGaussianBlur stdDeviation="2.58837"/>
<feComposite in2="hardAlpha" operator="arithmetic" k2="-1" k3="1"/>
<feColorMatrix type="matrix" values="0 0 0 0 0.247973 0 0 0 0 0.497162 0 0 0 0 0.742841 0 0 0 1 0"/>
<feBlend mode="normal" in2="shape" result="effect1_innerShadow_115_20549"/>
</filter>
<filter id="filter1_i_115_20549" x="15.6177" y="19.1583" width="16.6999" height="24.7255" filterUnits="userSpaceOnUse" color-interpolation-filters="sRGB">
<feFlood flood-opacity="0" result="BackgroundImageFix"/>
<feBlend mode="normal" in="SourceGraphic" in2="BackgroundImageFix" result="shape"/>
<feColorMatrix in="SourceAlpha" type="matrix" values="0 0 0 0 0 0 0 0 0 0 0 0 0 0 0 0 0 0 127 0" result="hardAlpha"/>
<feOffset dx="-5.72165" dy="-4.08689"/>
<feGaussianBlur stdDeviation="2.58837"/>
<feComposite in2="hardAlpha" operator="arithmetic" k2="-1" k3="1"/>
<feColorMatrix type="matrix" values="0 0 0 0 0.247973 0 0 0 0 0.497162 0 0 0 0 0.742841 0 0 0 1 0"/>
<feBlend mode="normal" in2="shape" result="effect1_innerShadow_115_20549"/>
</filter>
<filter id="filter2_i_115_20549" x="9.11865" y="10.8694" width="23.5174" height="35.7098" filterUnits="userSpaceOnUse" color-interpolation-filters="sRGB">
<feFlood flood-opacity="0" result="BackgroundImageFix"/>
<feBlend mode="normal" in="SourceGraphic" in2="BackgroundImageFix" result="shape"/>
<feColorMatrix in="SourceAlpha" type="matrix" values="0 0 0 0 0 0 0 0 0 0 0 0 0 0 0 0 0 0 127 0" result="hardAlpha"/>
<feOffset dx="1.42857" dy="3.71429"/>
<feGaussianBlur stdDeviation="3.14286"/>
<feComposite in2="hardAlpha" operator="arithmetic" k2="-1" k3="1"/>
<feColorMatrix type="matrix" values="0 0 0 0 1 0 0 0 0 1 0 0 0 0 1 0 0 0 0.45 0"/>
<feBlend mode="normal" in2="shape" result="effect1_innerShadow_115_20549"/>
</filter>
</defs>
</svg>
