<svg width="61" height="60" viewBox="0 0 61 60" fill="none" xmlns="http://www.w3.org/2000/svg">
<g id="Group 48096383">
<circle id="Ellipse 2765" cx="30.5" cy="30" r="30" fill="#B0CBB5"/>
<g id="Group 48096367">
<path id="Union" fill-rule="evenodd" clip-rule="evenodd" d="M33.921 53.4115C34.1838 53.7117 34.647 53.7477 34.9555 53.4918C35.264 53.236 36.1632 52.1295 36.1632 52.1295C36.1632 52.1295 35.4527 53.2449 35.3309 53.6211C35.2091 53.9973 35.4238 54.3984 35.8103 54.5169C36.1969 54.6354 36.609 54.4266 36.7308 54.0503L37.679 51.1213C37.8008 50.745 37.5862 50.344 37.1996 50.2254C36.9876 50.1605 36.768 50.1939 36.5927 50.2994C36.5264 50.3271 36.4631 50.3648 36.4052 50.4127L34.0035 52.4047C33.695 52.6605 33.6581 53.1113 33.921 53.4115Z" fill="#272727"/>
<path id="Union_2" fill-rule="evenodd" clip-rule="evenodd" d="M25.6592 52.4306C25.8306 52.788 26.2672 52.9426 26.6345 52.7758C27.0018 52.6091 28.1711 51.7753 28.1711 51.7753C28.1711 51.7753 27.1813 52.6665 26.9611 52.9977C26.7409 53.3288 26.8381 53.771 27.1784 53.9853C27.5186 54.1996 27.9729 54.105 28.1932 53.7738L29.9079 51.1958C30.1281 50.8647 30.0308 50.4225 29.6906 50.2081C29.504 50.0906 29.2832 50.066 29.0854 50.1223C29.0138 50.1318 28.9425 50.1518 28.8736 50.183L26.014 51.4814C25.6467 51.6482 25.4879 52.0731 25.6592 52.4306Z" fill="#272727"/>
<g id="Union_3" filter="url(#filter0_i_89_7578)">
<path fill-rule="evenodd" clip-rule="evenodd" d="M40.1143 26.6407C40.8598 25.4501 41.3469 24.1073 41.4951 22.6621C42.2035 15.7526 37.3385 11.3097 30.8608 11.1319C24.619 10.5257 19.1162 14.3528 18.4933 20.4284C18.2262 23.0336 18.9747 25.4614 20.4318 27.4124C18.4909 29.4037 17.2849 32.2177 16.918 35.7963C16.2992 41.8325 18.7879 47.1366 24.8869 48.8715C24.988 49.9906 26.9237 51.1951 28.2146 51.3205C29.8349 51.4778 31.7144 50.482 32.1105 49.4158C32.1157 49.4155 32.1209 49.4152 32.126 49.4149C32.128 49.43 32.1305 49.4451 32.1333 49.4601C32.3535 50.6142 35.0885 51.2681 36.6538 50.9853C39.3139 50.5047 40.5846 48.6494 40.3644 47.4953C40.3554 47.4479 40.342 47.4024 40.3247 47.3588C43.6464 45.499 45.6396 42.2804 45.721 37.1938C45.7985 32.3563 43.4907 28.8368 40.1143 26.6407Z" fill="#F7F7F7"/>
</g>
<ellipse id="Ellipse 1270" cx="1.02707" cy="0.857299" rx="1.02707" ry="0.857299" transform="matrix(0.994687 0.102942 -0.108618 0.994084 27.8955 18.5938)" fill="#272727"/>
<ellipse id="Ellipse 1275" cx="1.02716" cy="0.857224" rx="1.02716" ry="0.857224" transform="matrix(0.996176 -0.0873641 0.0921968 0.995741 20.7832 18.6504)" fill="#272727"/>
<path id="Vector 378" d="M22.4612 14.5105C23.3795 14.0401 25.3388 13.6279 25.9855 15.6367C26.0049 15.6969 26.0831 15.7169 26.1276 15.672C27.1795 14.6087 29.8681 13.1111 33.031 14.9187C36.2997 16.7869 36.8871 19.8977 36.7722 21.2196" stroke="#7F7F7F" stroke-width="0.642774" stroke-linecap="round"/>
<path id="Rectangle 1272" d="M24.7151 20.8994C24.8544 20.7907 25.05 20.783 25.1977 20.8801L25.8307 21.2968C26.0816 21.4619 26.0652 21.8268 25.8005 21.9709L25.5354 22.1153C25.1982 22.2989 24.9027 22.5472 24.6669 22.8451L24.6073 22.9204C24.4036 23.1777 23.9864 23.1013 23.8938 22.7898L23.8188 22.5374C23.6816 22.0756 23.8438 21.5784 24.2298 21.2775L24.7151 20.8994Z" fill="#272727"/>
<g id="Group 48096362">
<path id="Rectangle 6756" d="M25.5479 42.915L10.599 23.6771L11.5096 21.8869L27.0121 41.8374L25.5479 42.915Z" fill="#D6E173"/>
<rect id="Rectangle 6757" width="25.1425" height="1.82675" transform="matrix(-0.616585 -0.793497 0.801553 -0.589939 27.0127 41.8379)" fill="#C4CF5C"/>
<path id="Rectangle 6758" d="M28.4775 40.7598L12.9751 20.8093L14.993 20.4441L29.9418 39.6821L28.4775 40.7598Z" fill="#B1BF39"/>
<path id="Vector 544" d="M33.2077 48.1131L29.9416 39.6822L29.1469 39.8938L28.8434 40.4905L28.0785 40.4934L27.6529 41.18L26.8583 41.3915L26.647 42.107L25.9134 42.2736L25.5489 42.9152L32.9947 48.2698C33.1076 48.3511 33.2572 48.241 33.2077 48.1131Z" fill="#DDCEBF"/>
<path id="Vector 545" d="M32.2426 45.6816L30.919 46.6558C30.8821 46.6829 30.8826 46.7375 30.92 46.7652L33.2834 48.5143C33.3396 48.5559 33.4154 48.5012 33.3908 48.4369L32.351 45.7136C32.3344 45.6702 32.28 45.6541 32.2426 45.6816Z" fill="#2B2B2B"/>
</g>
<g id="Vector 384" filter="url(#filter1_i_89_7578)">
<path d="M15.2801 29.0625C15.2563 29.0228 15.2335 28.9843 15.2116 28.9469C14.3711 27.5146 12.4025 27.2858 12.2145 28.9339C12.108 29.8667 12.3086 30.8941 12.3626 31.9969C12.5558 35.9459 14.5982 37.3529 15.456 37.5729C15.9789 38.212 17.1957 39.4683 17.8793 39.3812C18.5629 39.2942 18.5217 39.0377 18.4156 38.9203C18.7127 39.2039 19.5555 39.7569 20.5504 39.7002C21.5453 39.6434 21.4641 39.2083 21.2991 38.9978C21.8223 39.4031 23.0237 40.0626 23.6432 39.4585C24.4176 38.7032 22.0592 36.6941 20.55 35.2529C18.5864 33.3777 17.5277 32.8125 15.2801 29.0625Z" fill="#ECECEC"/>
</g>
<g id="Vector 385" filter="url(#filter2_i_89_7578)">
<path d="M34.7836 27.8827C37.721 24.4481 42.0355 25.4838 43.8256 26.4309C46.733 28.3989 46.6479 32.3392 43.1641 36.5934C39.773 40.7347 36.723 41.2539 35.6094 40.983C34.5883 41.4064 32.3687 42.1229 31.6591 41.601C30.9495 41.0791 31.1696 40.8054 31.3684 40.7337C30.8422 40.8817 29.5198 41.0082 28.4395 40.3301C27.3593 39.6521 27.7456 39.1947 28.0737 39.0508C27.2107 39.2015 25.4128 39.2316 25.1258 38.1462C24.7669 36.7894 27.552 35.7608 29.9135 34.275C32.2749 32.7892 31.112 32.1759 34.7836 27.8827Z" fill="#ECECEC"/>
</g>
</g>
</g>
<defs>
<filter id="filter0_i_89_7578" x="16.8262" y="9.94448" width="29.3786" height="41.3924" filterUnits="userSpaceOnUse" color-interpolation-filters="sRGB">
<feFlood flood-opacity="0" result="BackgroundImageFix"/>
<feBlend mode="normal" in="SourceGraphic" in2="BackgroundImageFix" result="shape"/>
<feColorMatrix in="SourceAlpha" type="matrix" values="0 0 0 0 0 0 0 0 0 0 0 0 0 0 0 0 0 0 127 0" result="hardAlpha"/>
<feOffset dx="0.48208" dy="-1.12485"/>
<feGaussianBlur stdDeviation="0.964161"/>
<feComposite in2="hardAlpha" operator="arithmetic" k2="-1" k3="1"/>
<feColorMatrix type="matrix" values="0 0 0 0 0.92549 0 0 0 0 0.92549 0 0 0 0 0.92549 0 0 0 1 0"/>
<feBlend mode="normal" in2="shape" result="effect1_innerShadow_89_7578"/>
</filter>
<filter id="filter1_i_89_7578" x="12.1836" y="26.9797" width="11.6113" height="12.7244" filterUnits="userSpaceOnUse" color-interpolation-filters="sRGB">
<feFlood flood-opacity="0" result="BackgroundImageFix"/>
<feBlend mode="normal" in="SourceGraphic" in2="BackgroundImageFix" result="shape"/>
<feColorMatrix in="SourceAlpha" type="matrix" values="0 0 0 0 0 0 0 0 0 0 0 0 0 0 0 0 0 0 127 0" result="hardAlpha"/>
<feOffset dy="-0.803467"/>
<feGaussianBlur stdDeviation="0.763294"/>
<feComposite in2="hardAlpha" operator="arithmetic" k2="-1" k3="1"/>
<feColorMatrix type="matrix" values="0 0 0 0 0.57445 0 0 0 0 0.57445 0 0 0 0 0.57445 0 0 0 0.25 0"/>
<feBlend mode="normal" in2="shape" result="effect1_innerShadow_89_7578"/>
</filter>
<filter id="filter2_i_89_7578" x="25.0947" y="24.7063" width="20.8047" height="17.0779" filterUnits="userSpaceOnUse" color-interpolation-filters="sRGB">
<feFlood flood-opacity="0" result="BackgroundImageFix"/>
<feBlend mode="normal" in="SourceGraphic" in2="BackgroundImageFix" result="shape"/>
<feColorMatrix in="SourceAlpha" type="matrix" values="0 0 0 0 0 0 0 0 0 0 0 0 0 0 0 0 0 0 127 0" result="hardAlpha"/>
<feOffset dy="-0.803467"/>
<feGaussianBlur stdDeviation="0.763294"/>
<feComposite in2="hardAlpha" operator="arithmetic" k2="-1" k3="1"/>
<feColorMatrix type="matrix" values="0 0 0 0 0.57445 0 0 0 0 0.57445 0 0 0 0 0.57445 0 0 0 0.25 0"/>
<feBlend mode="normal" in2="shape" result="effect1_innerShadow_89_7578"/>
</filter>
</defs>
</svg>
