<svg width="126" height="92" viewBox="0 0 126 92" fill="none" xmlns="http://www.w3.org/2000/svg">
<g filter="url(#filter0_ii_1_5551)">
<path d="M121.069 77.0247C111.377 74.5612 16.547 76.7327 5.33996 76.9987C4.6574 77.0149 4.06874 77.3918 3.77008 78.0058C1.94103 81.7659 -3.97535 94.8773 4.25973 91.4273C13.8441 87.4121 119.572 87.9357 121.069 88.5905C122.567 89.2452 131.373 79.6433 121.069 77.0247Z" fill="#AB835C"/>
</g>
<g filter="url(#filter1_i_1_5551)">
<path d="M64.1473 33.1322C53.9665 31.9748 48.7304 40.1291 47.385 44.3509C44.566 49.9231 49.9192 56.15 64.8237 59.042C76.7473 61.3555 82.4194 57.7127 83.765 55.602C86.0728 54.7557 90.7631 52.5853 91.0624 50.6745C91.3617 48.7636 90.5726 48.6504 90.1406 48.8327C91.2176 48.2827 93.532 46.5028 94.1737 43.7826C94.8153 41.0623 93.4675 40.9009 92.7133 41.1602C94.3327 40.1091 97.2523 37.4594 95.9762 35.2695C94.3809 32.532 88.2885 35.0454 82.1421 36.1819C75.9958 37.3183 76.8732 34.5789 64.1473 33.1322Z" fill="#ECECEC"/>
</g>
<path fill-rule="evenodd" clip-rule="evenodd" d="M31.9678 81.0532C31.6247 81.7323 30.7945 82.0055 30.1133 81.6634C29.4322 81.3214 27.2814 79.6489 27.2814 79.6489C27.2814 79.6489 29.0912 81.422 29.4862 82.0724C29.8812 82.7229 29.6725 83.5694 29.0201 83.9632C28.3677 84.357 27.5187 84.1489 27.1237 83.4985L24.0485 78.4342C23.6536 77.7838 23.8622 76.9373 24.5146 76.5435C24.8724 76.3276 25.2892 76.2926 25.6579 76.4123C25.792 76.4346 25.9249 76.4771 26.0527 76.5412L31.3557 79.2043C32.0368 79.5463 32.3109 80.3741 31.9678 81.0532Z" fill="#272727"/>
<path fill-rule="evenodd" clip-rule="evenodd" d="M47.0291 81.7822C46.8008 82.5076 46.0259 82.9113 45.2982 82.6837C44.5706 82.4561 42.1765 81.1527 42.1765 81.1527C42.1765 81.1527 44.2504 82.6103 44.7458 83.1885C45.2411 83.7666 45.1726 84.6356 44.5928 85.1295C44.0129 85.6234 43.1413 85.5551 42.6459 84.977L38.7891 80.4759C38.2937 79.8978 38.3622 79.0287 38.9421 78.5348C39.26 78.264 39.6657 78.1622 40.049 78.2209C40.1849 78.2212 40.323 78.2417 40.4594 78.2843L46.1249 80.0564C46.8526 80.284 47.2574 81.0567 47.0291 81.7822Z" fill="#272727"/>
<g filter="url(#filter2_i_1_5551)">
<path fill-rule="evenodd" clip-rule="evenodd" d="M31.5377 27.842C29.8431 24.1993 29.245 20.1209 30.1189 16.0563C32.9329 2.96806 44.2749 -2.39685 55.9858 0.991136C67.5272 3.45778 75.1246 13.6375 72.6502 25.1461C71.3303 31.2849 67.3568 36.019 62.1292 38.6287C64.1904 42.4092 65.2665 47.0755 65.2665 52.5626C65.2665 64.2574 59.5874 73.9685 47.8325 76.1592C47.428 78.2869 43.5727 80.2367 41.1317 80.2367C38.0672 80.2367 34.7387 77.9758 34.2023 75.8566C34.1933 75.8552 34.1844 75.8537 34.1754 75.8523C34.1688 75.8806 34.1615 75.9088 34.1533 75.9368C33.5195 78.1096 28.2729 78.8544 25.3963 78.0204C20.5078 76.6031 18.4847 72.8076 19.1185 70.6348C19.1445 70.5456 19.1781 70.4609 19.2189 70.3807C13.357 66.1945 10.2433 59.6496 11.0672 49.878C12.1364 37.1989 21.0476 30.0523 31.5377 27.842Z" fill="#F7F7F7"/>
</g>
<ellipse cx="1.9332" cy="1.65211" rx="1.9332" ry="1.65211" transform="matrix(-0.998103 -0.0615674 -0.0619358 0.99808 55.2207 16.2134)" fill="#272727"/>
<ellipse cx="1.93285" cy="1.65242" rx="1.93285" ry="1.65242" transform="matrix(-0.967191 -0.254049 -0.255476 0.966815 68.3965 18.5474)" fill="#272727"/>
<path d="M68.0601 10.6449C66.6303 9.46769 63.4505 8.02978 61.4342 10.9217C61.221 11.2275 60.7361 11.245 60.5157 10.945C58.7535 8.54575 54.5437 5.30861 48.4291 7.36457C41.6701 9.6372 39.3595 15.2823 39.0491 17.8208" stroke="#7F7F7F" stroke-width="1.40625" stroke-linecap="round"/>
<path d="M60.5876 21.8255C60.2396 21.4362 59.6783 21.3178 59.2027 21.5335L58.4569 21.8718C57.8111 22.1647 57.702 23.0339 58.2551 23.4779L58.404 23.5974C59.0098 24.0837 59.5105 24.6875 59.8757 25.3723V25.3723C60.1913 25.9641 61.0467 25.948 61.3385 25.3448L61.4014 25.2148C61.8723 24.2412 61.7087 23.08 60.9869 22.2723L60.5876 21.8255Z" fill="#272727"/>
<g filter="url(#filter3_i_1_5551)">
<path d="M29.6985 28.67C18.2614 28.1989 13.5959 35.6823 12.5803 40.05C9.6733 48.0795 16.507 52.9573 33.3866 54.8597C46.8902 56.3815 52.7763 52.3022 54.0314 50.0724C56.4982 49.0565 61.4609 46.5359 61.5767 44.5803C61.6925 42.6248 60.8033 42.5645 60.3443 42.7788C61.4779 42.1478 63.8463 40.1861 64.2506 37.3874C64.6549 34.5887 63.1397 34.518 62.3316 34.8325C64.0108 33.6567 66.9528 30.7727 65.2874 28.643C63.2056 25.9809 56.7246 28.9453 50.0278 30.5192C43.331 32.0932 43.9949 29.2588 29.6985 28.67Z" fill="#ECECEC"/>
</g>
<path d="M82.3525 79.0957L86.4764 77.008" stroke="#272727" stroke-width="1.875" stroke-linecap="round"/>
<path d="M83.8379 81.0293L86.5373 77.073" stroke="#272727" stroke-width="1.875" stroke-linecap="round"/>
<path d="M86.0986 81.5308L86.5655 76.9952" stroke="#272727" stroke-width="1.875" stroke-linecap="round"/>
<path d="M105.53 78.5894L100.62 77.4711" stroke="#272727" stroke-width="1.875" stroke-linecap="round"/>
<path d="M104.475 81.021L100.574 77.5533" stroke="#272727" stroke-width="1.875" stroke-linecap="round"/>
<path d="M102.22 82.1479L100.524 77.4798" stroke="#272727" stroke-width="1.875" stroke-linecap="round"/>
<g filter="url(#filter4_i_1_5551)">
<path d="M83.2009 56.8822C87.3163 57.2121 89.4656 61.014 90.0259 62.8737L88.7495 63.9835C87.6478 64.9415 86.4218 65.8191 84.9853 66.0892C76.33 67.7168 69.3237 55.8104 70.7072 52.791C71.1226 51.8844 78.0565 56.4698 83.2009 56.8822Z" fill="#D0BE9F"/>
</g>
<g filter="url(#filter5_ii_1_5551)">
<path d="M114.123 61.0107C114.123 72.9191 105.704 80.1144 95.0649 80.1144C84.4259 80.1144 75.5957 72.9191 75.5957 61.0107C75.5957 49.1023 84.2204 37.9121 94.8595 37.9121C105.499 37.9121 114.123 49.1023 114.123 61.0107Z" fill="#DACAAF"/>
</g>
<g filter="url(#filter6_f_1_5551)">
<path d="M105.301 52.5727C105.301 57.0701 99.5979 59.8966 93.64 59.8966C87.6821 59.8966 83.7256 57.0701 83.7256 52.5727C83.7256 48.0752 87.2198 44.4805 93.1777 44.4805C99.1356 44.4805 105.301 48.0752 105.301 52.5727Z" fill="#E8DBC6"/>
</g>
<path d="M95.4945 53.2818C95.3815 53.9512 94.7339 53.9467 94.0625 53.8341C93.391 53.7214 92.95 53.5432 93.063 52.8738C93.176 52.2043 93.8119 51.753 94.4834 51.8656C95.1548 51.9783 95.6075 52.6123 95.4945 53.2818Z" fill="#272727"/>
<path d="M84.9508 51.3335C84.7664 51.987 84.1204 51.8024 83.4649 51.6185C82.8095 51.4346 82.3928 51.3211 82.5772 50.6676C82.7616 50.0141 83.4425 49.6334 84.0979 49.8173C84.7534 50.0012 85.1352 50.68 84.9508 51.3335Z" fill="#272727"/>
<path d="M88.2349 52.4517C88.3414 52.4204 88.4561 52.4339 88.5523 52.4891L90.3432 53.3978C90.4971 53.4861 90.4711 53.715 90.3013 53.7668L88.2349 54.4881C87.9959 54.561 87.7365 54.4809 87.5807 54.286L86.4057 53.1797C86.3158 53.0673 86.3687 52.9001 86.5069 52.8594L88.2349 52.4517Z" fill="#564A3B"/>
<g filter="url(#filter7_i_1_5551)">
<path d="M108.134 57.1555C110.678 55.6913 112.374 55.9374 113.688 56.6384C114.694 57.175 115.293 58.2225 115.596 59.3198C115.862 60.2819 115.741 61.339 115.09 62.0974C109.037 69.1431 95.6256 63.6547 95.0314 60.3077C94.8572 59.3263 103.664 59.7277 108.134 57.1555Z" fill="#D0BE9F"/>
</g>
<defs>
<filter id="filter0_ii_1_5551" x="-4.6875" y="71.1733" width="135.375" height="22.7017" filterUnits="userSpaceOnUse" color-interpolation-filters="sRGB">
<feFlood flood-opacity="0" result="BackgroundImageFix"/>
<feBlend mode="normal" in="SourceGraphic" in2="BackgroundImageFix" result="shape"/>
<feColorMatrix in="SourceAlpha" type="matrix" values="0 0 0 0 0 0 0 0 0 0 0 0 0 0 0 0 0 0 127 0" result="hardAlpha"/>
<feOffset dx="4.6875" dy="1.875"/>
<feGaussianBlur stdDeviation="2.34375"/>
<feComposite in2="hardAlpha" operator="arithmetic" k2="-1" k3="1"/>
<feColorMatrix type="matrix" values="0 0 0 0 0.813854 0 0 0 0 0.641106 0 0 0 0 0.468358 0 0 0 0.6 0"/>
<feBlend mode="normal" in2="shape" result="effect1_innerShadow_1_5551"/>
<feColorMatrix in="SourceAlpha" type="matrix" values="0 0 0 0 0 0 0 0 0 0 0 0 0 0 0 0 0 0 127 0" result="hardAlpha"/>
<feOffset dx="-4.6875" dy="-4.6875"/>
<feGaussianBlur stdDeviation="2.34375"/>
<feComposite in2="hardAlpha" operator="arithmetic" k2="-1" k3="1"/>
<feColorMatrix type="matrix" values="0 0 0 0 0.577552 0 0 0 0 0.446077 0 0 0 0 0.314603 0 0 0 0.6 0"/>
<feBlend mode="normal" in2="effect1_innerShadow_1_5551" result="effect2_innerShadow_1_5551"/>
</filter>
<filter id="filter1_i_1_5551" x="41.9751" y="24.1147" width="54.3149" height="35.6694" filterUnits="userSpaceOnUse" color-interpolation-filters="sRGB">
<feFlood flood-opacity="0" result="BackgroundImageFix"/>
<feBlend mode="normal" in="SourceGraphic" in2="BackgroundImageFix" result="shape"/>
<feColorMatrix in="SourceAlpha" type="matrix" values="0 0 0 0 0 0 0 0 0 0 0 0 0 0 0 0 0 0 127 0" result="hardAlpha"/>
<feOffset dx="-4.6875" dy="-8.90625"/>
<feGaussianBlur stdDeviation="4.45313"/>
<feComposite in2="hardAlpha" operator="arithmetic" k2="-1" k3="1"/>
<feColorMatrix type="matrix" values="0 0 0 0 0.57445 0 0 0 0 0.57445 0 0 0 0 0.57445 0 0 0 0.25 0"/>
<feBlend mode="normal" in2="shape" result="effect1_innerShadow_1_5551"/>
</filter>
<filter id="filter2_i_1_5551" x="10.9365" y="-8.4375" width="67.8066" height="88.6743" filterUnits="userSpaceOnUse" color-interpolation-filters="sRGB">
<feFlood flood-opacity="0" result="BackgroundImageFix"/>
<feBlend mode="normal" in="SourceGraphic" in2="BackgroundImageFix" result="shape"/>
<feColorMatrix in="SourceAlpha" type="matrix" values="0 0 0 0 0 0 0 0 0 0 0 0 0 0 0 0 0 0 127 0" result="hardAlpha"/>
<feOffset dx="5.625" dy="-8.4375"/>
<feGaussianBlur stdDeviation="5.625"/>
<feComposite in2="hardAlpha" operator="arithmetic" k2="-1" k3="1"/>
<feColorMatrix type="matrix" values="0 0 0 0 0.874235 0 0 0 0 0.874235 0 0 0 0 0.874235 0 0 0 1 0"/>
<feBlend mode="normal" in2="shape" result="effect1_innerShadow_1_5551"/>
</filter>
<filter id="filter3_i_1_5551" x="11.9307" y="22.4189" width="58.5381" height="32.7725" filterUnits="userSpaceOnUse" color-interpolation-filters="sRGB">
<feFlood flood-opacity="0" result="BackgroundImageFix"/>
<feBlend mode="normal" in="SourceGraphic" in2="BackgroundImageFix" result="shape"/>
<feColorMatrix in="SourceAlpha" type="matrix" values="0 0 0 0 0 0 0 0 0 0 0 0 0 0 0 0 0 0 127 0" result="hardAlpha"/>
<feOffset dx="4.6875" dy="-5.15625"/>
<feGaussianBlur stdDeviation="4.45313"/>
<feComposite in2="hardAlpha" operator="arithmetic" k2="-1" k3="1"/>
<feColorMatrix type="matrix" values="0 0 0 0 0.57445 0 0 0 0 0.57445 0 0 0 0 0.57445 0 0 0 0.25 0"/>
<feBlend mode="normal" in2="shape" result="effect1_innerShadow_1_5551"/>
</filter>
<filter id="filter4_i_1_5551" x="70.5322" y="47.9849" width="19.4937" height="18.2563" filterUnits="userSpaceOnUse" color-interpolation-filters="sRGB">
<feFlood flood-opacity="0" result="BackgroundImageFix"/>
<feBlend mode="normal" in="SourceGraphic" in2="BackgroundImageFix" result="shape"/>
<feColorMatrix in="SourceAlpha" type="matrix" values="0 0 0 0 0 0 0 0 0 0 0 0 0 0 0 0 0 0 127 0" result="hardAlpha"/>
<feOffset dy="-4.6875"/>
<feGaussianBlur stdDeviation="4.45313"/>
<feComposite in2="hardAlpha" operator="arithmetic" k2="-1" k3="1"/>
<feColorMatrix type="matrix" values="0 0 0 0 0.738643 0 0 0 0 0.673788 0 0 0 0 0.562093 0 0 0 1 0"/>
<feBlend mode="normal" in2="shape" result="effect1_innerShadow_1_5551"/>
</filter>
<filter id="filter5_ii_1_5551" x="66.2207" y="25.7246" width="50.7148" height="60.9521" filterUnits="userSpaceOnUse" color-interpolation-filters="sRGB">
<feFlood flood-opacity="0" result="BackgroundImageFix"/>
<feBlend mode="normal" in="SourceGraphic" in2="BackgroundImageFix" result="shape"/>
<feColorMatrix in="SourceAlpha" type="matrix" values="0 0 0 0 0 0 0 0 0 0 0 0 0 0 0 0 0 0 127 0" result="hardAlpha"/>
<feOffset dx="2.8125" dy="6.5625"/>
<feGaussianBlur stdDeviation="5.625"/>
<feComposite in2="hardAlpha" operator="arithmetic" k2="-1" k3="1"/>
<feColorMatrix type="matrix" values="0 0 0 0 1 0 0 0 0 1 0 0 0 0 1 0 0 0 0.45 0"/>
<feBlend mode="normal" in2="shape" result="effect1_innerShadow_1_5551"/>
<feColorMatrix in="SourceAlpha" type="matrix" values="0 0 0 0 0 0 0 0 0 0 0 0 0 0 0 0 0 0 127 0" result="hardAlpha"/>
<feOffset dx="-9.375" dy="-12.1875"/>
<feGaussianBlur stdDeviation="7.96875"/>
<feComposite in2="hardAlpha" operator="arithmetic" k2="-1" k3="1"/>
<feColorMatrix type="matrix" values="0 0 0 0 0.845166 0 0 0 0 0.752478 0 0 0 0 0.583459 0 0 0 0.6 0"/>
<feBlend mode="normal" in2="effect1_innerShadow_1_5551" result="effect2_innerShadow_1_5551"/>
</filter>
<filter id="filter6_f_1_5551" x="67.7881" y="28.543" width="53.4502" height="47.291" filterUnits="userSpaceOnUse" color-interpolation-filters="sRGB">
<feFlood flood-opacity="0" result="BackgroundImageFix"/>
<feBlend mode="normal" in="SourceGraphic" in2="BackgroundImageFix" result="shape"/>
<feGaussianBlur stdDeviation="7.96875" result="effect1_foregroundBlur_1_5551"/>
</filter>
<filter id="filter7_i_1_5551" x="95.0288" y="51.3945" width="20.6992" height="14.1245" filterUnits="userSpaceOnUse" color-interpolation-filters="sRGB">
<feFlood flood-opacity="0" result="BackgroundImageFix"/>
<feBlend mode="normal" in="SourceGraphic" in2="BackgroundImageFix" result="shape"/>
<feColorMatrix in="SourceAlpha" type="matrix" values="0 0 0 0 0 0 0 0 0 0 0 0 0 0 0 0 0 0 127 0" result="hardAlpha"/>
<feOffset dy="-4.6875"/>
<feGaussianBlur stdDeviation="4.45313"/>
<feComposite in2="hardAlpha" operator="arithmetic" k2="-1" k3="1"/>
<feColorMatrix type="matrix" values="0 0 0 0 0.738643 0 0 0 0 0.673788 0 0 0 0 0.562093 0 0 0 1 0"/>
<feBlend mode="normal" in2="shape" result="effect1_innerShadow_1_5551"/>
</filter>
</defs>
</svg>
