<svg width="24" height="24" viewBox="0 0 24 24" fill="none" xmlns="http://www.w3.org/2000/svg">
<g clip-path="url(#clip0_632_34598)">
<circle cx="12" cy="12" r="11.5" fill="#FFFFE6" stroke="#F0F1EC"/>
<mask id="mask0_632_34598" style="mask-type:alpha" maskUnits="userSpaceOnUse" x="0" y="0" width="24" height="24">
<circle cx="12" cy="12" r="11.5" fill="#FFFFE6" stroke="#F0F1EC"/>
</mask>
<g mask="url(#mask0_632_34598)">
<g filter="url(#filter0_i_632_34598)">
<path fill-rule="evenodd" clip-rule="evenodd" d="M12.5762 3.97457C16.1982 4.03993 19.0103 6.37688 19.1139 10.123C19.7651 10.7941 20.2372 11.897 20.2344 12.8128C20.2308 13.972 19.6776 14.5661 18.9884 14.8492C20.0397 15.9563 20.7702 17.3311 20.9953 18.883C21.7414 24.0261 18.9855 27.475 13.1789 28.3173C8.53655 28.9908 4.24519 25.897 3.59391 21.4072C3.19214 18.6375 3.74188 16.3988 5.14037 14.7897C4.39188 14.3081 3.78525 13.4959 3.83847 12.6268C3.89604 11.6865 4.4382 10.4233 5.1567 9.78064C5.51951 6.02814 8.81234 3.63759 12.5762 3.97457Z" fill="#FFED6F"/>
</g>
<circle cx="14.7115" cy="10.3601" r="0.532834" fill="#272727"/>
<circle cx="9.96936" cy="10.36" r="0.532834" fill="#272727"/>
<path d="M13.7643 11.8826C13.8749 12.4357 13.1006 13.0938 12.3192 13.0938C11.552 13.0938 10.7777 12.4972 10.7706 11.8826C10.7644 11.347 11.4413 11.2282 12.3191 11.2282C13.0935 11.2283 13.6537 11.3296 13.7643 11.8826Z" fill="#FFFCE6"/>
<g filter="url(#filter1_i_632_34598)">
<path d="M21.4452 16.8184C23.9894 18.2382 23.8296 21.0536 23.4317 22.2838C22.0174 24.0652 20.5019 25.1899 16.5762 23.3966C13.5741 22.0253 13.1023 19.6329 13.1459 18.9058C12.7553 18.3197 12.0368 17.0213 12.2884 16.516C12.54 16.0108 12.7411 16.1153 12.8103 16.2307C12.654 15.9202 12.4184 15.1106 12.7268 14.3554C13.0352 13.6003 13.3734 13.7863 13.504 13.9737C13.3066 13.4535 13.0773 12.3358 13.7394 12.0264C14.567 11.6398 15.5516 13.2535 16.7796 14.548C18.0076 15.8426 18.2648 15.0436 21.4452 16.8184Z" fill="#FFE73C"/>
</g>
<g filter="url(#filter2_i_632_34598)">
<path d="M2.98294 16.7703C0.41958 18.1553 0.541019 20.9726 0.922158 22.2081C2.31211 24.0086 3.81214 25.1538 7.76193 23.4142C10.7824 22.0839 11.2867 19.6981 11.253 18.9704C11.6516 18.3898 12.3876 17.1012 12.1429 16.5926C11.8983 16.084 11.6957 16.1857 11.625 16.3001C11.7856 15.9919 12.0321 15.1855 11.734 14.4262C11.4359 13.667 11.0952 13.8483 10.9621 14.034C11.1666 13.5165 11.4111 12.402 10.7532 12.0837C9.93097 11.6858 8.92453 13.2859 7.67898 14.5636C6.43342 15.8413 6.18714 15.0389 2.98294 16.7703Z" fill="#FFE73C"/>
</g>
<g filter="url(#filter3_i_632_34598)">
<path d="M5.60547 8.76499C5.60547 7.21188 7.54741 6.5088 8.54169 7.70193C8.57488 7.74176 8.63606 7.74176 8.66925 7.70193C9.66353 6.5088 11.6055 7.21188 11.6055 8.76499V8.87426C11.6055 9.32515 11.4264 9.75759 11.1075 10.0764L9.40304 11.7809C8.96255 12.2214 8.24838 12.2214 7.8079 11.7809L6.10342 10.0764C5.78459 9.75759 5.60547 9.32516 5.60547 8.87426V8.76499Z" fill="#FF6365"/>
<path d="M12.8054 8.76499C12.8054 7.21188 14.7474 6.5088 15.7416 7.70193C15.7748 7.74176 15.836 7.74176 15.8692 7.70193C16.8635 6.5088 18.8054 7.21188 18.8054 8.76499V8.87426C18.8054 9.32515 18.6263 9.75759 18.3075 10.0764L16.603 11.7809C16.1625 12.2214 15.4483 12.2214 15.0078 11.7809L13.3034 10.0764C12.9845 9.75759 12.8054 9.32516 12.8054 8.87426V8.76499Z" fill="#FF6365"/>
</g>
</g>
</g>
<defs>
<filter id="filter0_i_632_34598" x="3.46558" y="3.94299" width="19.4907" height="28.7628" filterUnits="userSpaceOnUse" color-interpolation-filters="sRGB">
<feFlood flood-opacity="0" result="BackgroundImageFix"/>
<feBlend mode="normal" in="SourceGraphic" in2="BackgroundImageFix" result="shape"/>
<feColorMatrix in="SourceAlpha" type="matrix" values="0 0 0 0 0 0 0 0 0 0 0 0 0 0 0 0 0 0 127 0" result="hardAlpha"/>
<feOffset dx="1.84129" dy="4.29635"/>
<feGaussianBlur stdDeviation="3.68258"/>
<feComposite in2="hardAlpha" operator="arithmetic" k2="-1" k3="1"/>
<feColorMatrix type="matrix" values="0 0 0 0 1 0 0 0 0 1 0 0 0 0 1 0 0 0 0.45 0"/>
<feBlend mode="normal" in2="shape" result="effect1_innerShadow_632_34598"/>
</filter>
<filter id="filter1_i_632_34598" x="12.2361" y="8.8992" width="11.4238" height="15.4052" filterUnits="userSpaceOnUse" color-interpolation-filters="sRGB">
<feFlood flood-opacity="0" result="BackgroundImageFix"/>
<feBlend mode="normal" in="SourceGraphic" in2="BackgroundImageFix" result="shape"/>
<feColorMatrix in="SourceAlpha" type="matrix" values="0 0 0 0 0 0 0 0 0 0 0 0 0 0 0 0 0 0 127 0" result="hardAlpha"/>
<feOffset dy="-3.06882"/>
<feGaussianBlur stdDeviation="2.91538"/>
<feComposite in2="hardAlpha" operator="arithmetic" k2="-1" k3="1"/>
<feColorMatrix type="matrix" values="0 0 0 0 1 0 0 0 0 0.841927 0 0 0 0 0.367708 0 0 0 1 0"/>
<feBlend mode="normal" in2="shape" result="effect1_innerShadow_632_34598"/>
</filter>
<filter id="filter2_i_632_34598" x="0.7146" y="8.95291" width="11.4771" height="15.3233" filterUnits="userSpaceOnUse" color-interpolation-filters="sRGB">
<feFlood flood-opacity="0" result="BackgroundImageFix"/>
<feBlend mode="normal" in="SourceGraphic" in2="BackgroundImageFix" result="shape"/>
<feColorMatrix in="SourceAlpha" type="matrix" values="0 0 0 0 0 0 0 0 0 0 0 0 0 0 0 0 0 0 127 0" result="hardAlpha"/>
<feOffset dy="-3.06882"/>
<feGaussianBlur stdDeviation="2.91538"/>
<feComposite in2="hardAlpha" operator="arithmetic" k2="-1" k3="1"/>
<feColorMatrix type="matrix" values="0 0 0 0 1 0 0 0 0 0.841927 0 0 0 0 0.367708 0 0 0 1 0"/>
<feBlend mode="normal" in2="shape" result="effect1_innerShadow_632_34598"/>
</filter>
<filter id="filter3_i_632_34598" x="5.60547" y="7.10107" width="14.2" height="7.01013" filterUnits="userSpaceOnUse" color-interpolation-filters="sRGB">
<feFlood flood-opacity="0" result="BackgroundImageFix"/>
<feBlend mode="normal" in="SourceGraphic" in2="BackgroundImageFix" result="shape"/>
<feColorMatrix in="SourceAlpha" type="matrix" values="0 0 0 0 0 0 0 0 0 0 0 0 0 0 0 0 0 0 127 0" result="hardAlpha"/>
<feOffset dx="1" dy="2"/>
<feGaussianBlur stdDeviation="1"/>
<feComposite in2="hardAlpha" operator="arithmetic" k2="-1" k3="1"/>
<feColorMatrix type="matrix" values="0 0 0 0 1 0 0 0 0 0.6229 0 0 0 0 0.6229 0 0 0 0.4 0"/>
<feBlend mode="normal" in2="shape" result="effect1_innerShadow_632_34598"/>
</filter>
<clipPath id="clip0_632_34598">
<rect width="24" height="24" fill="white"/>
</clipPath>
</defs>
</svg>
