<svg width="280" height="226" viewBox="0 0 280 226" fill="none" xmlns="http://www.w3.org/2000/svg">
<path d="M232.5 110C232.5 166.658 191.04 212.5 140 212.5C88.9605 212.5 47.5 166.658 47.5 110C47.5 53.3415 88.9605 7.5 140 7.5C191.04 7.5 232.5 53.3415 232.5 110Z" fill="#FFEDE6" stroke="#F0F1EC"/>
<g filter="url(#filter0_ii_173_18091)">
<path d="M237.111 188.5C221.133 182.926 66.5722 187.707 44.6838 188.415C43.0717 188.467 41.7455 189.467 41.2089 190.988C38.063 199.905 28.4884 229.333 42.1111 221.5C58.1111 212.3 234.611 213.5 237.111 215C239.611 216.5 254.311 194.5 237.111 188.5Z" fill="#AB835C"/>
</g>
<path fill-rule="evenodd" clip-rule="evenodd" d="M127.014 205.319C125.499 204.83 124.667 203.205 125.156 201.689C125.645 200.173 128.417 195.197 128.417 195.197C128.417 195.197 125.328 199.502 124.108 200.527C122.889 201.551 121.07 201.393 120.045 200.173C119.021 198.954 119.179 197.135 120.399 196.11L129.893 188.134C131.113 187.11 132.932 187.268 133.956 188.487C134.518 189.156 134.724 190.005 134.595 190.805C134.592 191.088 134.547 191.376 134.455 191.661L130.645 203.461C130.155 204.977 128.53 205.809 127.014 205.319Z" fill="#FFD485"/>
<path fill-rule="evenodd" clip-rule="evenodd" d="M156.806 207.68C155.243 207.375 154.223 205.86 154.528 204.297C154.834 202.734 156.992 197.462 156.992 197.462C156.992 197.462 154.438 202.105 153.35 203.268C152.261 204.43 150.436 204.49 149.273 203.401C148.111 202.313 148.051 200.488 149.14 199.325L157.617 190.275C158.705 189.112 160.53 189.052 161.693 190.141C162.33 190.738 162.636 191.556 162.603 192.365C162.634 192.648 162.623 192.939 162.566 193.232L160.189 205.403C159.884 206.966 158.369 207.986 156.806 207.68Z" fill="#FFD485"/>
<g filter="url(#filter1_i_173_18091)">
<path d="M147.221 51.2412C142.848 49.5109 135.946 42.9358 143.328 30.4777C152.556 14.9051 158.18 16.347 159.045 17.9331C159.861 19.4296 160.292 24.1352 155.978 32.4132C158.607 27.7315 163.237 20.9148 165.822 22.2587C169.069 23.9472 165.53 32.3041 163.426 36.5808C165.26 33.1263 168.604 28.1347 171.157 28.7473C174.762 29.6125 172.166 49.3667 163.659 52.1063C156.853 54.298 149.865 52.4428 147.221 51.2412Z" fill="#FF6854"/>
</g>
<g filter="url(#filter2_i_173_18091)">
<path d="M119.656 126.429C114.287 108.982 106.807 105.672 98.7492 106.5C88.2471 111.428 76.7492 119 78.7492 146C80.3472 167.573 92.2492 178.807 94.2492 174C97.3286 177.161 106.098 183.807 109.522 182.927C112.947 182.047 112.57 180.678 111.954 180.103C113.651 181.467 118.304 183.97 123.334 183.069C128.365 182.168 127.668 179.852 126.69 178.807C129.619 180.698 136.167 183.566 138.929 179.914C142.382 175.349 133.783 167.205 127.459 157.986C121.135 148.767 126.367 148.237 119.656 126.429Z" fill="#E8533F"/>
</g>
<g filter="url(#filter3_i_173_18091)">
<path fill-rule="evenodd" clip-rule="evenodd" d="M175.577 97.384C178.372 92.01 179.953 86.025 179.953 79.7165C179.953 51.6783 159.148 35.7255 133.746 37.5383C109.096 37.5383 89.1123 55.0622 89.1123 79.7165C89.1123 90.2884 93.0128 99.7516 99.493 107.022C92.7005 115.781 89.1123 127.558 89.1123 142.081C89.1123 171.546 113.81 195.432 144.276 195.432C182.383 195.432 203.312 175.834 203.312 142.081C203.312 123.369 191.789 106.907 175.577 97.384Z" fill="#FF6854"/>
</g>
<circle cx="105.838" cy="69.986" r="3.46058" fill="#272727"/>
<circle cx="140.156" cy="75.7536" r="3.46058" fill="#272727"/>
<path d="M110.741 76.7629C116.278 73.9944 125.544 77.9164 129.486 80.2235C134.388 83.1073 128.332 87.8655 123.862 87.433C119.324 86.9938 105.55 95.2193 102.378 92.0471C99.2054 88.8749 103.82 80.2235 110.741 76.7629Z" fill="#FFED6F"/>
<g filter="url(#filter4_i_173_18091)">
<path d="M200.064 115.738C189.295 95.3187 167.669 95.9107 158.202 98.7591C139.736 102.184 139.718 118.437 153.282 149.849C164.133 174.979 178.016 180.919 183.602 180.748C188.081 183.971 194 188.084 201.906 188.084C206.222 188.084 205.007 184.606 204.125 184.033C206.5 185.341 212 186 218.519 185.137C224.701 184.319 222.923 180.169 221.491 179.094C225.475 180.776 234.045 182.851 236.455 177.699C239.467 171.258 227.128 163.104 217.252 153.103C207.376 143.102 213.525 141.262 200.064 115.738Z" fill="#E8533F"/>
</g>
<defs>
<filter id="filter0_ii_173_18091" x="25" y="175.833" width="230.342" height="50.9788" filterUnits="userSpaceOnUse" color-interpolation-filters="sRGB">
<feFlood flood-opacity="0" result="BackgroundImageFix"/>
<feBlend mode="normal" in="SourceGraphic" in2="BackgroundImageFix" result="shape"/>
<feColorMatrix in="SourceAlpha" type="matrix" values="0 0 0 0 0 0 0 0 0 0 0 0 0 0 0 0 0 0 127 0" result="hardAlpha"/>
<feOffset dx="10" dy="4"/>
<feGaussianBlur stdDeviation="5"/>
<feComposite in2="hardAlpha" operator="arithmetic" k2="-1" k3="1"/>
<feColorMatrix type="matrix" values="0 0 0 0 0.813854 0 0 0 0 0.641106 0 0 0 0 0.468358 0 0 0 0.6 0"/>
<feBlend mode="normal" in2="shape" result="effect1_innerShadow_173_18091"/>
<feColorMatrix in="SourceAlpha" type="matrix" values="0 0 0 0 0 0 0 0 0 0 0 0 0 0 0 0 0 0 127 0" result="hardAlpha"/>
<feOffset dx="-10" dy="-10"/>
<feGaussianBlur stdDeviation="5"/>
<feComposite in2="hardAlpha" operator="arithmetic" k2="-1" k3="1"/>
<feColorMatrix type="matrix" values="0 0 0 0 0.577552 0 0 0 0 0.446077 0 0 0 0 0.314603 0 0 0 0.6 0"/>
<feBlend mode="normal" in2="effect1_innerShadow_173_18091" result="effect2_innerShadow_173_18091"/>
</filter>
<filter id="filter1_i_173_18091" x="140.078" y="17" width="38.6578" height="50.1232" filterUnits="userSpaceOnUse" color-interpolation-filters="sRGB">
<feFlood flood-opacity="0" result="BackgroundImageFix"/>
<feBlend mode="normal" in="SourceGraphic" in2="BackgroundImageFix" result="shape"/>
<feColorMatrix in="SourceAlpha" type="matrix" values="0 0 0 0 0 0 0 0 0 0 0 0 0 0 0 0 0 0 127 0" result="hardAlpha"/>
<feOffset dx="6" dy="14"/>
<feGaussianBlur stdDeviation="12"/>
<feComposite in2="hardAlpha" operator="arithmetic" k2="-1" k3="1"/>
<feColorMatrix type="matrix" values="0 0 0 0 1 0 0 0 0 1 0 0 0 0 1 0 0 0 0.45 0"/>
<feBlend mode="normal" in2="shape" result="effect1_innerShadow_173_18091"/>
</filter>
<filter id="filter2_i_173_18091" x="78.5206" y="98.6919" width="61.199" height="84.5682" filterUnits="userSpaceOnUse" color-interpolation-filters="sRGB">
<feFlood flood-opacity="0" result="BackgroundImageFix"/>
<feBlend mode="normal" in="SourceGraphic" in2="BackgroundImageFix" result="shape"/>
<feColorMatrix in="SourceAlpha" type="matrix" values="0 0 0 0 0 0 0 0 0 0 0 0 0 0 0 0 0 0 127 0" result="hardAlpha"/>
<feOffset dy="-7.69236"/>
<feGaussianBlur stdDeviation="7.30774"/>
<feComposite in2="hardAlpha" operator="arithmetic" k2="-1" k3="1"/>
<feColorMatrix type="matrix" values="0 0 0 0 0.794424 0 0 0 0 0.333689 0 0 0 0 0.271846 0 0 0 1 0"/>
<feBlend mode="normal" in2="shape" result="effect1_innerShadow_173_18091"/>
</filter>
<filter id="filter3_i_173_18091" x="89.1123" y="37.3988" width="120.199" height="172.033" filterUnits="userSpaceOnUse" color-interpolation-filters="sRGB">
<feFlood flood-opacity="0" result="BackgroundImageFix"/>
<feBlend mode="normal" in="SourceGraphic" in2="BackgroundImageFix" result="shape"/>
<feColorMatrix in="SourceAlpha" type="matrix" values="0 0 0 0 0 0 0 0 0 0 0 0 0 0 0 0 0 0 127 0" result="hardAlpha"/>
<feOffset dx="6" dy="14"/>
<feGaussianBlur stdDeviation="12"/>
<feComposite in2="hardAlpha" operator="arithmetic" k2="-1" k3="1"/>
<feColorMatrix type="matrix" values="0 0 0 0 1 0 0 0 0 1 0 0 0 0 1 0 0 0 0.45 0"/>
<feBlend mode="normal" in2="shape" result="effect1_innerShadow_173_18091"/>
</filter>
<filter id="filter4_i_173_18091" x="128.196" y="82.3076" width="108.72" height="105.776" filterUnits="userSpaceOnUse" color-interpolation-filters="sRGB">
<feFlood flood-opacity="0" result="BackgroundImageFix"/>
<feBlend mode="normal" in="SourceGraphic" in2="BackgroundImageFix" result="shape"/>
<feColorMatrix in="SourceAlpha" type="matrix" values="0 0 0 0 0 0 0 0 0 0 0 0 0 0 0 0 0 0 127 0" result="hardAlpha"/>
<feOffset dx="-21" dy="-15"/>
<feGaussianBlur stdDeviation="7.73139"/>
<feComposite in2="hardAlpha" operator="arithmetic" k2="-1" k3="1"/>
<feColorMatrix type="matrix" values="0 0 0 0 0.794424 0 0 0 0 0.333689 0 0 0 0 0.271846 0 0 0 1 0"/>
<feBlend mode="normal" in2="shape" result="effect1_innerShadow_173_18091"/>
</filter>
</defs>
</svg>
