<svg width="24" height="24" viewBox="0 0 24 24" fill="none" xmlns="http://www.w3.org/2000/svg">
<circle cx="12" cy="12" r="11.8571" fill="#FFEDE6" stroke="#F0F1EC" stroke-width="0.285714"/>
<mask id="mask0_632_23037" style="mask-type:alpha" maskUnits="userSpaceOnUse" x="0" y="0" width="24" height="24">
<circle cx="12" cy="12" r="11.8571" fill="#FFEDE6" stroke="#F0F1EC" stroke-width="0.285714"/>
</mask>
<g mask="url(#mask0_632_23037)">
<path fill-rule="evenodd" clip-rule="evenodd" d="M9.48759 26.1687C9.30691 26.1104 9.20773 25.9166 9.26607 25.736C9.3244 25.5553 9.6548 24.962 9.6548 24.962C9.6548 24.962 9.28654 25.4752 9.14116 25.5974C8.99578 25.7195 8.77893 25.7006 8.65681 25.5553C8.53468 25.4099 8.55353 25.193 8.69892 25.0709L9.83081 24.1201C9.97619 23.9979 10.193 24.0168 10.3152 24.1622C10.3821 24.2419 10.4067 24.3431 10.3913 24.4384C10.3909 24.4722 10.3855 24.5066 10.3746 24.5404L9.92038 25.9472C9.86204 26.1279 9.66828 26.2271 9.48759 26.1687Z" fill="#FFD485"/>
<path fill-rule="evenodd" clip-rule="evenodd" d="M14.0242 26.2061C14.2105 26.1697 14.3321 25.9891 14.2957 25.8028C14.2593 25.6165 14.002 24.988 14.002 24.988C14.002 24.988 14.3065 25.5415 14.4362 25.6801C14.566 25.8187 14.7836 25.8258 14.9222 25.696C15.0607 25.5662 15.0679 25.3487 14.9381 25.2101L13.9276 24.1311C13.7978 23.9925 13.5802 23.9854 13.4416 24.1152C13.3657 24.1864 13.3292 24.2839 13.3332 24.3804C13.3295 24.414 13.3308 24.4488 13.3376 24.4837L13.6209 25.9346C13.6573 26.1209 13.8378 26.2425 14.0242 26.2061Z" fill="#FFD485"/>
<g filter="url(#filter0_i_632_23037)">
<path d="M11.4171 8.38371C10.8584 8.33597 9.84505 7.82163 10.2613 6.14623C10.7815 4.05197 11.473 4.02399 11.6261 4.17546C11.7706 4.31838 11.981 4.8409 11.772 5.93389C11.9118 5.30927 12.207 4.37231 12.5481 4.43723C12.9767 4.51879 12.8589 5.59422 12.7652 6.15463C12.8563 5.69736 13.0671 5.01285 13.3796 4.99536C13.8208 4.97066 14.2011 7.31517 13.3236 7.91941C12.6216 8.4028 11.7601 8.43036 11.4171 8.38371Z" fill="#FF6854"/>
</g>
<g filter="url(#filter1_i_632_23037)">
<path d="M8.8188 16.6455C8.17878 14.5656 7.73192 14.0442 6.77129 14.1429C5.51933 14.7304 3.70382 15.7599 3.94224 18.9786C4.13274 21.5504 5.55159 22.8896 5.79001 22.3165C6.15711 22.6933 7.20247 23.4856 7.61075 23.3807C8.01902 23.2758 7.97411 23.1126 7.90063 23.0441C8.10298 23.2067 8.65759 23.5051 9.25726 23.3977C9.85694 23.2903 9.77385 23.0142 9.65735 22.8896C10.0065 23.1149 10.7871 23.4568 11.1164 23.0215C11.5279 22.4774 10.5029 21.5064 9.74903 20.4075C8.99513 19.3085 9.61883 19.2453 8.8188 16.6455Z" fill="#E8533F"/>
</g>
<g filter="url(#filter2_i_632_23037)">
<path d="M14.5279 16.8595C14.8999 14.7154 15.282 14.4235 16.2474 14.4C17.5635 14.8245 19.4899 15.3346 19.6602 18.5576C19.7962 21.1328 18.558 22.6406 18.2491 22.1023C17.9326 22.5224 16.9957 23.4405 16.5775 23.388C16.1592 23.3355 16.1831 23.1679 16.2474 23.0907C16.0672 23.2776 15.5547 23.6437 14.9463 23.6129C14.3378 23.5822 14.3854 23.2978 14.4852 23.1595C14.1673 23.4272 13.4362 23.865 13.0546 23.4747C12.5775 22.987 13.4716 21.8943 14.0806 20.7089C14.6895 19.5234 14.0628 19.5396 14.5279 16.8595Z" fill="#E8533F"/>
</g>
<g filter="url(#filter3_i_632_23037)">
<path fill-rule="evenodd" clip-rule="evenodd" d="M16.3719 14.1338C16.9287 13.4151 17.2843 12.5541 17.3479 11.6126C17.573 8.2777 15.2265 6.21323 12.1907 6.2249C9.25874 6.02698 6.74122 7.95084 6.54327 10.8832C6.47295 11.925 6.72718 12.8978 7.22158 13.7222C5.64893 14.9161 4.92988 16.8469 5.19765 19.3942C5.56487 22.8875 8.73052 25.4178 12.2683 25.0459C16.6934 24.5808 18.8794 22.0018 18.4587 18.0002C18.2972 16.4636 17.5072 15.1225 16.3719 14.1338Z" fill="#FF6854"/>
</g>
<g filter="url(#filter4_i_632_23037)">
<path d="M12.4166 13.4423C12.1909 13.6826 11.8093 13.6826 11.5836 13.4423L10.5291 12.3198C10.1864 11.955 10.445 11.3571 10.9456 11.3571L13.0547 11.3571C13.5552 11.3571 13.8138 11.955 13.4711 12.3198L12.4166 13.4423Z" fill="#FFED6F"/>
</g>
<circle cx="9.91449" cy="10.3553" r="0.41254" fill="#272727"/>
<circle cx="14.0056" cy="10.3553" r="0.41254" fill="#272727"/>
</g>
<defs>
<filter id="filter0_i_632_23037" x="10.1636" y="4.12115" width="5.40398" height="8.27863" filterUnits="userSpaceOnUse" color-interpolation-filters="sRGB">
<feFlood flood-opacity="0" result="BackgroundImageFix"/>
<feBlend mode="normal" in="SourceGraphic" in2="BackgroundImageFix" result="shape"/>
<feColorMatrix in="SourceAlpha" type="matrix" values="0 0 0 0 0 0 0 0 0 0 0 0 0 0 0 0 0 0 127 0" result="hardAlpha"/>
<feOffset dx="1.71429" dy="4"/>
<feGaussianBlur stdDeviation="3.42857"/>
<feComposite in2="hardAlpha" operator="arithmetic" k2="-1" k3="1"/>
<feColorMatrix type="matrix" values="0 0 0 0 1 0 0 0 0 1 0 0 0 0 1 0 0 0 0.45 0"/>
<feBlend mode="normal" in2="shape" result="effect1_innerShadow_632_23037"/>
</filter>
<filter id="filter1_i_632_23037" x="3.9209" y="11.9338" width="7.28979" height="11.4866" filterUnits="userSpaceOnUse" color-interpolation-filters="sRGB">
<feFlood flood-opacity="0" result="BackgroundImageFix"/>
<feBlend mode="normal" in="SourceGraphic" in2="BackgroundImageFix" result="shape"/>
<feColorMatrix in="SourceAlpha" type="matrix" values="0 0 0 0 0 0 0 0 0 0 0 0 0 0 0 0 0 0 127 0" result="hardAlpha"/>
<feOffset dy="-2.19782"/>
<feGaussianBlur stdDeviation="2.08793"/>
<feComposite in2="hardAlpha" operator="arithmetic" k2="-1" k3="1"/>
<feColorMatrix type="matrix" values="0 0 0 0 0.794424 0 0 0 0 0.333689 0 0 0 0 0.271846 0 0 0 1 0"/>
<feBlend mode="normal" in2="shape" result="effect1_innerShadow_632_23037"/>
</filter>
<filter id="filter2_i_632_23037" x="12.9197" y="12.2021" width="6.75098" height="11.4276" filterUnits="userSpaceOnUse" color-interpolation-filters="sRGB">
<feFlood flood-opacity="0" result="BackgroundImageFix"/>
<feBlend mode="normal" in="SourceGraphic" in2="BackgroundImageFix" result="shape"/>
<feColorMatrix in="SourceAlpha" type="matrix" values="0 0 0 0 0 0 0 0 0 0 0 0 0 0 0 0 0 0 127 0" result="hardAlpha"/>
<feOffset dy="-2.19782"/>
<feGaussianBlur stdDeviation="2.08793"/>
<feComposite in2="hardAlpha" operator="arithmetic" k2="-1" k3="1"/>
<feColorMatrix type="matrix" values="0 0 0 0 0.794424 0 0 0 0 0.333689 0 0 0 0 0.271846 0 0 0 1 0"/>
<feBlend mode="normal" in2="shape" result="effect1_innerShadow_632_23037"/>
</filter>
<filter id="filter3_i_632_23037" x="5.14282" y="6.21094" width="15.0812" height="22.8713" filterUnits="userSpaceOnUse" color-interpolation-filters="sRGB">
<feFlood flood-opacity="0" result="BackgroundImageFix"/>
<feBlend mode="normal" in="SourceGraphic" in2="BackgroundImageFix" result="shape"/>
<feColorMatrix in="SourceAlpha" type="matrix" values="0 0 0 0 0 0 0 0 0 0 0 0 0 0 0 0 0 0 127 0" result="hardAlpha"/>
<feOffset dx="1.71429" dy="4"/>
<feGaussianBlur stdDeviation="3.42857"/>
<feComposite in2="hardAlpha" operator="arithmetic" k2="-1" k3="1"/>
<feColorMatrix type="matrix" values="0 0 0 0 1 0 0 0 0 1 0 0 0 0 1 0 0 0 0.45 0"/>
<feBlend mode="normal" in2="shape" result="effect1_innerShadow_632_23037"/>
</filter>
<filter id="filter4_i_632_23037" x="10.373" y="10.7857" width="3.25415" height="2.83681" filterUnits="userSpaceOnUse" color-interpolation-filters="sRGB">
<feFlood flood-opacity="0" result="BackgroundImageFix"/>
<feBlend mode="normal" in="SourceGraphic" in2="BackgroundImageFix" result="shape"/>
<feColorMatrix in="SourceAlpha" type="matrix" values="0 0 0 0 0 0 0 0 0 0 0 0 0 0 0 0 0 0 127 0" result="hardAlpha"/>
<feOffset dy="-0.571429"/>
<feGaussianBlur stdDeviation="0.571429"/>
<feComposite in2="hardAlpha" operator="arithmetic" k2="-1" k3="1"/>
<feColorMatrix type="matrix" values="0 0 0 0 1 0 0 0 0 0.560716 0 0 0 0 0.201302 0 0 0 0.52 0"/>
<feBlend mode="normal" in2="shape" result="effect1_innerShadow_632_23037"/>
</filter>
</defs>
</svg>
