<svg width="60" height="60" viewBox="0 0 60 60" fill="none" xmlns="http://www.w3.org/2000/svg">
<circle cx="30" cy="30" r="29.7857" fill="#FFEDE6" stroke="#F0F1EC" stroke-width="0.428571"/>
<mask id="mask0_49_11104" style="mask-type:alpha" maskUnits="userSpaceOnUse" x="0" y="0" width="60" height="60">
<circle cx="30" cy="30" r="29.7857" fill="#FFEDE6" stroke="#F0F1EC" stroke-width="0.428571"/>
</mask>
<g mask="url(#mask0_49_11104)">
<path fill-rule="evenodd" clip-rule="evenodd" d="M23.7195 65.422C23.2678 65.2761 23.0198 64.7917 23.1657 64.34C23.3115 63.8883 24.1375 62.4051 24.1375 62.4051C24.1375 62.4051 23.2168 63.6882 22.8534 63.9936C22.4899 64.2989 21.9478 64.2517 21.6425 63.8883C21.3372 63.5248 21.3843 62.9827 21.7478 62.6774L24.5775 60.3003C24.941 59.995 25.4831 60.0421 25.7884 60.4056C25.9558 60.6049 26.0173 60.8579 25.9787 61.0961C25.9778 61.1807 25.9643 61.2666 25.9369 61.3513L24.8014 64.8682C24.6556 65.3199 24.1712 65.5678 23.7195 65.422Z" fill="#FFD485"/>
<path fill-rule="evenodd" clip-rule="evenodd" d="M35.061 65.5154C35.5268 65.4244 35.8307 64.973 35.7398 64.5071C35.6488 64.0412 35.0055 62.4701 35.0055 62.4701C35.0055 62.4701 35.7666 63.8539 36.0911 64.2003C36.4156 64.5468 36.9595 64.5646 37.3059 64.2401C37.6523 63.9156 37.6702 63.3718 37.3457 63.0253L34.8194 60.3279C34.4949 59.9815 33.951 59.9637 33.6046 60.2881C33.4146 60.4661 33.3235 60.71 33.3334 60.9511C33.3242 61.0352 33.3274 61.122 33.3444 61.2094L34.0527 64.8365C34.1437 65.3024 34.5951 65.6063 35.061 65.5154Z" fill="#FFD485"/>
<g filter="url(#filter0_i_49_11104)">
<path d="M28.5425 20.9593C27.1458 20.8399 24.6125 19.5541 25.653 15.3656C26.9537 10.1299 28.6824 10.06 29.0652 10.4386C29.4263 10.7959 29.9524 12.1022 29.4299 14.8347C29.7793 13.2732 30.5173 10.9308 31.3702 11.0931C32.4416 11.297 32.1472 13.9856 31.9128 15.3866C32.1406 14.2434 32.6676 12.5321 33.4488 12.4884C34.5519 12.4267 35.5027 18.2879 33.3089 19.7985C31.5538 21.007 29.4 21.0759 28.5425 20.9593Z" fill="#FF6854"/>
</g>
<g filter="url(#filter1_i_49_11104)">
<path d="M22.0473 41.6138C20.4472 36.4141 19.3301 35.1107 16.9285 35.3574C13.7986 36.8261 9.2598 39.3999 9.85585 47.4467C10.3321 53.876 13.8792 57.224 14.4753 55.7914C15.393 56.7334 18.0064 58.7141 19.0271 58.4519C20.0478 58.1896 19.9355 57.7815 19.7518 57.6103C20.2577 58.0168 21.6442 58.7627 23.1434 58.4942C24.6426 58.2257 24.4349 57.5356 24.1436 57.224C25.0165 57.7874 26.968 58.6422 27.7911 57.5539C28.8201 56.1935 26.2576 53.7662 24.3728 51.0188C22.4881 48.2714 24.0473 48.1134 22.0473 41.6138Z" fill="#E8533F"/>
</g>
<g filter="url(#filter2_i_49_11104)">
<path d="M36.3195 42.1487C37.2496 36.7885 38.2048 36.0588 40.6183 36C43.9087 37.0613 48.7246 38.3364 49.1503 46.394C49.4905 52.8319 46.3949 56.6015 45.6226 55.2557C44.8313 56.3061 42.4892 58.6012 41.4435 58.47C40.3979 58.3388 40.4577 57.9199 40.6183 57.7268C40.1678 58.194 38.8867 59.1092 37.3656 59.0323C35.8445 58.9554 35.9633 58.2445 36.2129 57.8987C35.4182 58.5679 33.5904 59.6624 32.6363 58.6869C31.4437 57.4675 33.6789 54.7358 35.2013 51.7722C36.7237 48.8086 35.1569 48.849 36.3195 42.1487Z" fill="#E8533F"/>
</g>
<g filter="url(#filter3_i_49_11104)">
<path fill-rule="evenodd" clip-rule="evenodd" d="M40.9298 35.3346C42.3219 33.538 43.2108 31.3855 43.3697 29.0316C43.9325 20.6944 38.0663 15.5332 30.4768 15.5624C23.1469 15.0676 16.8531 19.8772 16.3583 27.2082C16.1825 29.8127 16.818 32.2446 18.054 34.3055C14.1224 37.2904 12.3248 42.1174 12.9943 48.4855C13.9123 57.2187 21.8264 63.5447 30.6709 62.6149C41.7335 61.452 47.1985 55.0045 46.1469 45.0005C45.743 41.1591 43.7682 37.8063 40.9298 35.3346Z" fill="#FF6854"/>
</g>
<g filter="url(#filter4_i_49_11104)">
<path d="M30.6247 34.0493C30.2862 34.4096 29.7138 34.4096 29.3753 34.0493L25.4181 29.8369C24.904 29.2897 25.292 28.3929 26.0428 28.3929L33.9572 28.3929C34.708 28.3929 35.096 29.2897 34.5819 29.8369L30.6247 34.0493Z" fill="#FFED6F"/>
</g>
<circle cx="24.7862" cy="25.8882" r="1.03135" fill="#272727"/>
<circle cx="35.0138" cy="25.8882" r="1.03135" fill="#272727"/>
</g>
<defs>
<filter id="filter0_i_49_11104" x="25.4087" y="10.303" width="11.796" height="16.6964" filterUnits="userSpaceOnUse" color-interpolation-filters="sRGB">
<feFlood flood-opacity="0" result="BackgroundImageFix"/>
<feBlend mode="normal" in="SourceGraphic" in2="BackgroundImageFix" result="shape"/>
<feColorMatrix in="SourceAlpha" type="matrix" values="0 0 0 0 0 0 0 0 0 0 0 0 0 0 0 0 0 0 127 0" result="hardAlpha"/>
<feOffset dx="2.57143" dy="6"/>
<feGaussianBlur stdDeviation="5.14286"/>
<feComposite in2="hardAlpha" operator="arithmetic" k2="-1" k3="1"/>
<feColorMatrix type="matrix" values="0 0 0 0 1 0 0 0 0 1 0 0 0 0 1 0 0 0 0.45 0"/>
<feBlend mode="normal" in2="shape" result="effect1_innerShadow_49_11104"/>
</filter>
<filter id="filter1_i_49_11104" x="9.80249" y="32.0323" width="18.2241" height="26.5189" filterUnits="userSpaceOnUse" color-interpolation-filters="sRGB">
<feFlood flood-opacity="0" result="BackgroundImageFix"/>
<feBlend mode="normal" in="SourceGraphic" in2="BackgroundImageFix" result="shape"/>
<feColorMatrix in="SourceAlpha" type="matrix" values="0 0 0 0 0 0 0 0 0 0 0 0 0 0 0 0 0 0 127 0" result="hardAlpha"/>
<feOffset dy="-3.29672"/>
<feGaussianBlur stdDeviation="3.13189"/>
<feComposite in2="hardAlpha" operator="arithmetic" k2="-1" k3="1"/>
<feColorMatrix type="matrix" values="0 0 0 0 0.794424 0 0 0 0 0.333689 0 0 0 0 0.271846 0 0 0 1 0"/>
<feBlend mode="normal" in2="shape" result="effect1_innerShadow_49_11104"/>
</filter>
<filter id="filter2_i_49_11104" x="32.2988" y="32.7033" width="16.8774" height="26.3711" filterUnits="userSpaceOnUse" color-interpolation-filters="sRGB">
<feFlood flood-opacity="0" result="BackgroundImageFix"/>
<feBlend mode="normal" in="SourceGraphic" in2="BackgroundImageFix" result="shape"/>
<feColorMatrix in="SourceAlpha" type="matrix" values="0 0 0 0 0 0 0 0 0 0 0 0 0 0 0 0 0 0 127 0" result="hardAlpha"/>
<feOffset dy="-3.29672"/>
<feGaussianBlur stdDeviation="3.13189"/>
<feComposite in2="hardAlpha" operator="arithmetic" k2="-1" k3="1"/>
<feColorMatrix type="matrix" values="0 0 0 0 0.794424 0 0 0 0 0.333689 0 0 0 0 0.271846 0 0 0 1 0"/>
<feBlend mode="normal" in2="shape" result="effect1_innerShadow_49_11104"/>
</filter>
<filter id="filter3_i_49_11104" x="12.8572" y="15.5275" width="35.9889" height="53.1782" filterUnits="userSpaceOnUse" color-interpolation-filters="sRGB">
<feFlood flood-opacity="0" result="BackgroundImageFix"/>
<feBlend mode="normal" in="SourceGraphic" in2="BackgroundImageFix" result="shape"/>
<feColorMatrix in="SourceAlpha" type="matrix" values="0 0 0 0 0 0 0 0 0 0 0 0 0 0 0 0 0 0 127 0" result="hardAlpha"/>
<feOffset dx="2.57143" dy="6"/>
<feGaussianBlur stdDeviation="5.14286"/>
<feComposite in2="hardAlpha" operator="arithmetic" k2="-1" k3="1"/>
<feColorMatrix type="matrix" values="0 0 0 0 1 0 0 0 0 1 0 0 0 0 1 0 0 0 0.45 0"/>
<feBlend mode="normal" in2="shape" result="effect1_innerShadow_49_11104"/>
</filter>
<filter id="filter4_i_49_11104" x="25.1841" y="27.5357" width="9.63208" height="6.78384" filterUnits="userSpaceOnUse" color-interpolation-filters="sRGB">
<feFlood flood-opacity="0" result="BackgroundImageFix"/>
<feBlend mode="normal" in="SourceGraphic" in2="BackgroundImageFix" result="shape"/>
<feColorMatrix in="SourceAlpha" type="matrix" values="0 0 0 0 0 0 0 0 0 0 0 0 0 0 0 0 0 0 127 0" result="hardAlpha"/>
<feOffset dy="-0.857143"/>
<feGaussianBlur stdDeviation="0.857143"/>
<feComposite in2="hardAlpha" operator="arithmetic" k2="-1" k3="1"/>
<feColorMatrix type="matrix" values="0 0 0 0 1 0 0 0 0 0.560716 0 0 0 0 0.201302 0 0 0 0.52 0"/>
<feBlend mode="normal" in2="shape" result="effect1_innerShadow_49_11104"/>
</filter>
</defs>
</svg>
