<svg width="61" height="60" viewBox="0 0 61 60" fill="none" xmlns="http://www.w3.org/2000/svg">
<circle cx="30.5713" cy="30" r="29.7857" fill="#FFEDE6" stroke="#F0F1EC" stroke-width="0.428571"/>
<mask id="mask0_83_10268" style="mask-type:alpha" maskUnits="userSpaceOnUse" x="0" y="0" width="61" height="60">
<circle cx="30.5713" cy="30" r="29.7857" fill="#FFEDE6" stroke="#F0F1EC" stroke-width="0.428571"/>
</mask>
<g mask="url(#mask0_83_10268)">
<path fill-rule="evenodd" clip-rule="evenodd" d="M24.2905 65.4217C23.8388 65.2759 23.5909 64.7915 23.7367 64.3398C23.8825 63.8881 24.7085 62.4048 24.7085 62.4048C24.7085 62.4048 23.7879 63.688 23.4244 63.9933C23.061 64.2986 22.5189 64.2515 22.2135 63.8881C21.9082 63.5246 21.9554 62.9825 22.3188 62.6772L25.1486 60.3001C25.512 59.9948 26.0541 60.0419 26.3595 60.4053C26.5269 60.6046 26.5883 60.8577 26.5497 61.0959C26.5488 61.1805 26.5353 61.2663 26.508 61.351L25.3725 64.8679C25.2266 65.3196 24.7422 65.5676 24.2905 65.4217Z" fill="#FFD485"/>
<path fill-rule="evenodd" clip-rule="evenodd" d="M35.632 65.5151C36.0979 65.4241 36.4018 64.9727 36.3108 64.5069C36.2198 64.041 35.5765 62.4699 35.5765 62.4699C35.5765 62.4699 36.3377 63.8536 36.6621 64.2001C36.9866 64.5465 37.5305 64.5644 37.877 64.2399C38.2234 63.9154 38.2412 63.3715 37.9167 63.0251L35.3905 60.3277C35.066 59.9812 34.5221 59.9634 34.1756 60.2879C33.9857 60.4658 33.8945 60.7097 33.9044 60.9509C33.8953 61.0349 33.8984 61.1218 33.9155 61.2091L34.6238 64.8363C34.7147 65.3022 35.1661 65.6061 35.632 65.5151Z" fill="#FFD485"/>
<g filter="url(#filter0_i_83_10268)">
<path d="M29.1138 20.9596C27.7171 20.8402 25.1838 19.5544 26.2243 15.3659C27.525 10.1302 29.2537 10.0603 29.6365 10.439C29.9976 10.7962 30.5237 12.1026 30.0011 14.835C30.3506 13.2735 31.0886 10.9311 31.9414 11.0934C33.0129 11.2973 32.7185 13.9859 32.4841 15.3869C32.7118 14.2437 33.2389 12.5324 34.0201 12.4887C35.1232 12.427 36.074 18.2882 33.8801 19.7988C32.1251 21.0073 29.9713 21.0762 29.1138 20.9596Z" fill="#FF6854"/>
</g>
<g filter="url(#filter1_i_83_10268)">
<path d="M22.6188 41.6136C21.0187 36.4139 19.9016 35.1105 17.5 35.3572C14.3701 36.8259 9.83134 39.3997 10.4274 47.4465C10.9036 53.8758 14.4508 57.2238 15.0468 55.7912C15.9646 56.7332 18.578 58.7139 19.5986 58.4517C20.6193 58.1894 20.5071 57.7813 20.3233 57.6101C20.8292 58.0166 22.2158 58.7625 23.7149 58.494C25.2141 58.2255 25.0064 57.5354 24.7151 57.2238C25.588 57.7872 27.5395 58.642 28.3627 57.5537C29.3916 56.1933 26.8291 53.766 24.9443 51.0186C23.0596 48.2712 24.6189 48.1133 22.6188 41.6136Z" fill="#E8533F"/>
</g>
<g filter="url(#filter2_i_83_10268)">
<path d="M39.128 37.133C33.7916 40.7789 33.4733 42.171 34.5986 44.809C37.3669 47.8432 41.1177 52.4212 50.0379 48.9122C57.165 46.1084 59.7151 40.9051 57.8798 40.7332C58.6255 39.3603 59.9528 35.6978 59.2959 34.632C58.639 33.5663 58.2156 33.8373 58.0859 34.106C58.3691 33.3889 58.7273 31.5531 57.8949 29.9467C57.0625 28.3402 56.3525 28.8188 56.1016 29.259C56.4336 28.0703 56.7164 25.5552 55.1918 25.0043C53.2861 24.3158 51.4341 28.0778 48.9803 31.1834C46.5266 34.2891 45.7985 32.5755 39.128 37.133Z" fill="#E8533F"/>
</g>
<g filter="url(#filter3_i_83_10268)">
<path fill-rule="evenodd" clip-rule="evenodd" d="M41.5011 35.3344C42.8932 33.5377 43.7821 31.3852 43.941 29.0313C44.5038 20.6941 38.6376 15.5329 31.0481 15.5621C23.7182 15.0673 17.4244 19.877 16.9296 27.2079C16.7537 29.8124 17.3893 32.2444 18.6254 34.3054C14.6937 37.2902 12.8961 42.1172 13.5655 48.4854C14.4836 57.2186 22.3977 63.5445 31.2422 62.6148C42.3048 61.4519 47.7698 55.0044 46.7181 45.0003C46.3143 41.1589 44.3395 37.8061 41.5011 35.3344Z" fill="#FF6854"/>
</g>
<g filter="url(#filter4_i_83_10268)">
<path d="M31.196 34.0493C30.8575 34.4097 30.2851 34.4097 29.9466 34.0493L25.9894 29.8369C25.4753 29.2897 25.8633 28.3929 26.6141 28.3929L34.5285 28.3929C35.2793 28.3929 35.6673 29.2897 35.1532 29.8369L31.196 34.0493Z" fill="#FFED6F"/>
</g>
<circle cx="25.3575" cy="25.8885" r="1.03135" fill="#272727"/>
<circle cx="35.5851" cy="25.8885" r="1.03135" fill="#272727"/>
<circle cx="24.5713" cy="25.2858" r="5.14285" stroke="#54422F" stroke-width="0.685714"/>
<circle cx="36.5713" cy="25.2859" r="5.14285" stroke="#54422F" stroke-width="0.685714"/>
<path d="M29.7141 25.0718C29.9998 24.9289 30.7427 24.7289 31.4284 25.0718" stroke="#54422F" stroke-width="0.642857"/>
<path d="M55.56 16.5831C55.5877 16.4686 55.7018 16.3972 55.8169 16.4223C55.9338 16.4478 56.0079 16.5633 55.9824 16.6802L52.0706 34.6049C52.0207 34.8335 51.7949 34.9784 51.5663 34.9285C51.334 34.8778 51.1889 34.646 51.2448 34.4149L55.56 16.5831Z" fill="#292D32"/>
</g>
<defs>
<filter id="filter0_i_83_10268" x="25.98" y="10.3032" width="11.796" height="16.6964" filterUnits="userSpaceOnUse" color-interpolation-filters="sRGB">
<feFlood flood-opacity="0" result="BackgroundImageFix"/>
<feBlend mode="normal" in="SourceGraphic" in2="BackgroundImageFix" result="shape"/>
<feColorMatrix in="SourceAlpha" type="matrix" values="0 0 0 0 0 0 0 0 0 0 0 0 0 0 0 0 0 0 127 0" result="hardAlpha"/>
<feOffset dx="2.57143" dy="6"/>
<feGaussianBlur stdDeviation="5.14285"/>
<feComposite in2="hardAlpha" operator="arithmetic" k2="-1" k3="1"/>
<feColorMatrix type="matrix" values="0 0 0 0 1 0 0 0 0 1 0 0 0 0 1 0 0 0 0.45 0"/>
<feBlend mode="normal" in2="shape" result="effect1_innerShadow_83_10268"/>
</filter>
<filter id="filter1_i_83_10268" x="10.374" y="32.0321" width="18.2241" height="26.5189" filterUnits="userSpaceOnUse" color-interpolation-filters="sRGB">
<feFlood flood-opacity="0" result="BackgroundImageFix"/>
<feBlend mode="normal" in="SourceGraphic" in2="BackgroundImageFix" result="shape"/>
<feColorMatrix in="SourceAlpha" type="matrix" values="0 0 0 0 0 0 0 0 0 0 0 0 0 0 0 0 0 0 127 0" result="hardAlpha"/>
<feOffset dy="-3.29672"/>
<feGaussianBlur stdDeviation="3.13189"/>
<feComposite in2="hardAlpha" operator="arithmetic" k2="-1" k3="1"/>
<feColorMatrix type="matrix" values="0 0 0 0 0.794424 0 0 0 0 0.333689 0 0 0 0 0.271846 0 0 0 1 0"/>
<feBlend mode="normal" in2="shape" result="effect1_innerShadow_83_10268"/>
</filter>
<filter id="filter2_i_83_10268" x="34.071" y="21.6252" width="25.4021" height="28.5536" filterUnits="userSpaceOnUse" color-interpolation-filters="sRGB">
<feFlood flood-opacity="0" result="BackgroundImageFix"/>
<feBlend mode="normal" in="SourceGraphic" in2="BackgroundImageFix" result="shape"/>
<feColorMatrix in="SourceAlpha" type="matrix" values="0 0 0 0 0 0 0 0 0 0 0 0 0 0 0 0 0 0 127 0" result="hardAlpha"/>
<feOffset dy="-3.29672"/>
<feGaussianBlur stdDeviation="3.13189"/>
<feComposite in2="hardAlpha" operator="arithmetic" k2="-1" k3="1"/>
<feColorMatrix type="matrix" values="0 0 0 0 0.794424 0 0 0 0 0.333689 0 0 0 0 0.271846 0 0 0 1 0"/>
<feBlend mode="normal" in2="shape" result="effect1_innerShadow_83_10268"/>
</filter>
<filter id="filter3_i_83_10268" x="13.4285" y="15.5272" width="35.9889" height="53.1782" filterUnits="userSpaceOnUse" color-interpolation-filters="sRGB">
<feFlood flood-opacity="0" result="BackgroundImageFix"/>
<feBlend mode="normal" in="SourceGraphic" in2="BackgroundImageFix" result="shape"/>
<feColorMatrix in="SourceAlpha" type="matrix" values="0 0 0 0 0 0 0 0 0 0 0 0 0 0 0 0 0 0 127 0" result="hardAlpha"/>
<feOffset dx="2.57143" dy="6"/>
<feGaussianBlur stdDeviation="5.14285"/>
<feComposite in2="hardAlpha" operator="arithmetic" k2="-1" k3="1"/>
<feColorMatrix type="matrix" values="0 0 0 0 1 0 0 0 0 1 0 0 0 0 1 0 0 0 0.45 0"/>
<feBlend mode="normal" in2="shape" result="effect1_innerShadow_83_10268"/>
</filter>
<filter id="filter4_i_83_10268" x="25.7554" y="27.5358" width="9.63208" height="6.78378" filterUnits="userSpaceOnUse" color-interpolation-filters="sRGB">
<feFlood flood-opacity="0" result="BackgroundImageFix"/>
<feBlend mode="normal" in="SourceGraphic" in2="BackgroundImageFix" result="shape"/>
<feColorMatrix in="SourceAlpha" type="matrix" values="0 0 0 0 0 0 0 0 0 0 0 0 0 0 0 0 0 0 127 0" result="hardAlpha"/>
<feOffset dy="-0.857142"/>
<feGaussianBlur stdDeviation="0.857142"/>
<feComposite in2="hardAlpha" operator="arithmetic" k2="-1" k3="1"/>
<feColorMatrix type="matrix" values="0 0 0 0 1 0 0 0 0 0.560716 0 0 0 0 0.201302 0 0 0 0.52 0"/>
<feBlend mode="normal" in2="shape" result="effect1_innerShadow_83_10268"/>
</filter>
</defs>
</svg>
