<svg width="80" height="80" viewBox="0 0 80 80" fill="none" xmlns="http://www.w3.org/2000/svg">
<circle cx="40" cy="40" r="39.5" fill="#E6FBFF" stroke="#F0F1EC"/>
<mask id="mask0_2111_10356" style="mask-type:alpha" maskUnits="userSpaceOnUse" x="0" y="0" width="80" height="80">
<circle cx="40" cy="40" r="40" fill="#E6FBFF"/>
</mask>
<g mask="url(#mask0_2111_10356)">
<g filter="url(#filter0_i_2111_10356)">
<path d="M22.3104 68.2894C28.1067 57.9297 21.5563 48.5183 17.5566 45.1075C10.6867 37.871 3.57411 42.3141 -6.21625 56.9217C-14.0485 68.6077 -12.6071 76.3806 -10.9073 78.8063C-11.0134 81.672 -10.7386 87.7065 -8.79032 88.9187C-6.84205 90.1309 -6.3672 89.3389 -6.37331 88.7913C-6.25401 90.201 -5.34604 93.5096 -2.66859 95.4661C0.00885195 97.4226 0.785235 96.0549 0.838743 95.1265C1.26233 97.3507 2.84805 101.713 5.80225 101.369C9.49501 100.939 9.47128 93.2428 10.9714 86.132C12.4716 79.0211 15.0649 81.239 22.3104 68.2894Z" fill="#4E95DB"/>
</g>
<g filter="url(#filter1_i_2111_10356)">
<path d="M35.6278 71.7802C38.2544 61.4807 48.3312 59.4105 53.0413 59.6628C61.9827 59.2016 63.8674 66.472 61.2165 81.9921C59.0957 94.4082 53.3563 98.5652 50.7516 99.0916C49.0505 101.017 45.1442 104.765 43.1273 104.351C41.1105 103.936 41.2907 103.129 41.6329 102.778C40.6844 103.619 38.0498 105.207 35.0986 104.826C32.1474 104.445 32.487 103.078 33.0256 102.443C31.376 103.625 27.6492 105.48 25.9391 103.434C23.8015 100.878 28.5706 95.8965 31.9866 90.3553C35.4026 84.8141 32.3447 84.6547 35.6278 71.7802Z" fill="#4E95DB"/>
</g>
<g filter="url(#filter2_i_2111_10356)">
<path d="M-7.57408 71.5053C-9.33633 91.6479 0.406986 105.754 23.8271 107.803C41.0605 109.311 56.2646 96.4323 57.8029 78.8485C59.5968 58.3449 47.16 42.3889 27.2694 43.4766C8.23833 44.5174 -6.03569 53.9215 -7.57408 71.5053Z" fill="#65A8E9"/>
<path d="M13.8419 34.7371C11.6435 46.9872 23.3096 57.7962 37.7866 60.3943C52.2637 62.9924 65.9544 61.7255 67.9803 42.9179C69.4717 29.072 58.5701 19.1895 45.7478 16.0328C31.0009 12.4023 16.7667 18.4397 13.8419 34.7371Z" fill="#65A8E9"/>
<path d="M33.4341 34.8176C34.4658 32.8978 38.8007 32.5777 38.6081 36.7826" stroke="#272727" stroke-width="1.5" stroke-linecap="round"/>
<path d="M47.894 41.4533C48.9258 39.5335 53.2607 39.2135 53.068 43.4184" stroke="#272727" stroke-width="1.5" stroke-linecap="round"/>
</g>
<path d="M38.2644 41.1031C38.0614 43.4229 39.9924 48.8101 41.8256 50.7414C43.6588 52.6727 44.861 47.6464 45.428 46.1107C46.0518 44.4214 45.6462 42.9274 43.813 40.9961C41.9798 39.0648 39.2056 40.2097 38.2644 41.1031Z" fill="#535353"/>
</g>
<defs>
<filter id="filter0_i_2111_10356" x="-12.2466" y="31.6982" width="36.8491" height="69.6899" filterUnits="userSpaceOnUse" color-interpolation-filters="sRGB">
<feFlood flood-opacity="0" result="BackgroundImageFix"/>
<feBlend mode="normal" in="SourceGraphic" in2="BackgroundImageFix" result="shape"/>
<feColorMatrix in="SourceAlpha" type="matrix" values="0 0 0 0 0 0 0 0 0 0 0 0 0 0 0 0 0 0 127 0" result="hardAlpha"/>
<feOffset dy="-10"/>
<feGaussianBlur stdDeviation="9.5"/>
<feComposite in2="hardAlpha" operator="arithmetic" k2="-1" k3="1"/>
<feColorMatrix type="matrix" values="0 0 0 0 0.247973 0 0 0 0 0.497162 0 0 0 0 0.742841 0 0 0 1 0"/>
<feBlend mode="normal" in2="shape" result="effect1_innerShadow_2111_10356"/>
</filter>
<filter id="filter1_i_2111_10356" x="25.407" y="49.6421" width="36.9153" height="55.2419" filterUnits="userSpaceOnUse" color-interpolation-filters="sRGB">
<feFlood flood-opacity="0" result="BackgroundImageFix"/>
<feBlend mode="normal" in="SourceGraphic" in2="BackgroundImageFix" result="shape"/>
<feColorMatrix in="SourceAlpha" type="matrix" values="0 0 0 0 0 0 0 0 0 0 0 0 0 0 0 0 0 0 127 0" result="hardAlpha"/>
<feOffset dy="-10"/>
<feGaussianBlur stdDeviation="9.5"/>
<feComposite in2="hardAlpha" operator="arithmetic" k2="-1" k3="1"/>
<feColorMatrix type="matrix" values="0 0 0 0 0.247973 0 0 0 0 0.497162 0 0 0 0 0.742841 0 0 0 1 0"/>
<feBlend mode="normal" in2="shape" result="effect1_innerShadow_2111_10356"/>
</filter>
<filter id="filter2_i_2111_10356" x="-7.77563" y="15.0142" width="81.8928" height="106.909" filterUnits="userSpaceOnUse" color-interpolation-filters="sRGB">
<feFlood flood-opacity="0" result="BackgroundImageFix"/>
<feBlend mode="normal" in="SourceGraphic" in2="BackgroundImageFix" result="shape"/>
<feColorMatrix in="SourceAlpha" type="matrix" values="0 0 0 0 0 0 0 0 0 0 0 0 0 0 0 0 0 0 127 0" result="hardAlpha"/>
<feOffset dx="6" dy="14"/>
<feGaussianBlur stdDeviation="12"/>
<feComposite in2="hardAlpha" operator="arithmetic" k2="-1" k3="1"/>
<feColorMatrix type="matrix" values="0 0 0 0 1 0 0 0 0 1 0 0 0 0 1 0 0 0 0.45 0"/>
<feBlend mode="normal" in2="shape" result="effect1_innerShadow_2111_10356"/>
</filter>
</defs>
</svg>
