<svg width="16" height="16" viewBox="0 0 16 16" fill="none" xmlns="http://www.w3.org/2000/svg">
<g id="vuesax/linear/direct-inbox">
<g id="direct-inbox">
<path id="Vector" d="M8 1.33301V5.99967L9.33333 4.66634" stroke="#4CA7D0" stroke-linecap="round" stroke-linejoin="round"/>
<path id="Vector_2" d="M8.00033 6.00033L6.66699 4.66699" stroke="#4CA7D0" stroke-linecap="round" stroke-linejoin="round"/>
<path id="Vector_3" d="M1.32031 8.66699H4.26031C4.51365 8.66699 4.74031 8.80699 4.85365 9.03366L5.63365 10.5937C5.86031 11.047 6.32031 11.3337 6.82698 11.3337H9.18031C9.68698 11.3337 10.147 11.047 10.3736 10.5937L11.1536 9.03366C11.267 8.80699 11.5003 8.66699 11.747 8.66699H14.6536" stroke="#4CA7D0" stroke-linecap="round" stroke-linejoin="round"/>
<path id="Vector_4" d="M4.66634 2.75391C2.30634 3.10057 1.33301 4.48724 1.33301 7.33391V10.0006C1.33301 13.3339 2.66634 14.6672 5.99967 14.6672H9.99967C13.333 14.6672 14.6663 13.3339 14.6663 10.0006V7.33391C14.6663 4.48724 13.693 3.10057 11.333 2.75391" stroke="#4CA7D0" stroke-linecap="round" stroke-linejoin="round"/>
</g>
</g>
</svg>
