<svg width="24" height="24" viewBox="0 0 24 24" fill="none" xmlns="http://www.w3.org/2000/svg">
<path d="M12 19H7.5C4.8 19 3 17.7647 3 14.8824V9.11765C3 6.23529 4.8 5 7.5 5H16.5C19.2 5 21 6.23529 21 9.11765V11.5882" stroke="white" stroke-width="1.5" stroke-miterlimit="10" stroke-linecap="round" stroke-linejoin="round"/>
<path d="M18 9L14.244 11.4077C13.008 12.1974 10.98 12.1974 9.74399 11.4077L6 9" stroke="white" stroke-width="1.5" stroke-miterlimit="10" stroke-linecap="round" stroke-linejoin="round"/>
<path d="M18.7429 14.5905L15.2535 17.441C15.1155 17.5537 14.9756 17.7748 14.9316 17.9422L14.6396 19.134C14.5327 19.5664 14.8065 19.9016 15.2516 19.8831L16.4776 19.8348C16.6505 19.8251 16.904 19.7331 17.033 19.6194L20.5224 16.769C21.1237 16.2778 21.4475 15.6682 20.7228 14.7811C20.0062 13.9038 19.3442 14.0994 18.7429 14.5905Z" stroke="white" stroke-width="1.5" stroke-miterlimit="10" stroke-linecap="round" stroke-linejoin="round"/>
<path d="M18.2412 15.0029C18.4124 15.9971 19.0888 16.8251 20.0288 17.1912" stroke="white" stroke-width="1.5" stroke-miterlimit="10" stroke-linecap="round" stroke-linejoin="round"/>
</svg>
