<svg width="70" height="70" viewBox="0 0 70 70" fill="none" xmlns="http://www.w3.org/2000/svg">
<g clip-path="url(#clip0_1_10804)">
<path d="M37.3664 5.83357L32.5562 5.82379C21.5839 5.79771 12.0586 14.6546 11.9831 25.3826L11.9831 40.6636C11.9831 43.2389 11.655 45.7522 10.2408 47.8939L9.29912 49.3217C7.86524 51.4862 9.4074 54.3874 11.9831 54.3874H58.0183C60.594 54.3874 62.1329 51.4862 60.7023 49.3217L59.7606 47.8939C58.3497 45.7522 58.0183 43.2356 58.0183 40.6604L58.0183 25.3859C57.887 14.6546 48.3388 5.85965 37.3664 5.83357ZM44.8443 55.9995C44.8443 58.5932 43.8072 61.0806 41.9612 62.9146C40.1151 64.7486 37.6114 65.7789 35.0007 65.7789C32.39 65.7789 29.8863 64.7486 28.0402 62.9146C26.1942 61.0806 25.1571 58.5932 25.1571 55.9995" fill="#E5E5EA"/>
</g>
<defs>
<clipPath id="clip0_1_10804">
<rect width="70" height="70" fill="white"/>
</clipPath>
</defs>
</svg>
