<svg width="110" height="110" viewBox="0 0 110 110" fill="none" xmlns="http://www.w3.org/2000/svg">
<g id="&#235;&#169;&#152;&#237;&#134;&#160;_60">
<g id="&#235;&#169;&#152;&#237;&#134;&#160;_60_2">
<path id="Union" fill-rule="evenodd" clip-rule="evenodd" d="M69.291 98.4373C69.9033 98.1052 70.1305 97.3397 69.7984 96.7274C69.4664 96.1151 67.8754 94.1981 67.8754 94.1981C67.8754 94.1981 69.549 95.801 70.1555 96.1435C70.762 96.486 71.5314 96.272 71.8739 95.6655C72.2164 95.059 72.0024 94.2897 71.3959 93.9472L66.6738 91.2805C66.0672 90.938 65.2979 91.152 64.9554 91.7585C64.7676 92.0911 64.7471 92.4726 64.8669 92.8059C64.891 92.9276 64.9336 93.0478 64.9959 93.1627L67.5811 97.9298C67.9132 98.5421 68.6787 98.7693 69.291 98.4373Z" fill="#FFD485"/>
<path id="Union_2" fill-rule="evenodd" clip-rule="evenodd" d="M59.9294 99.4457C60.5768 99.1888 60.8933 98.4557 60.6364 97.8083C60.3794 97.1609 59.0275 95.0684 59.0275 95.0684C59.0275 95.0684 60.4988 96.8588 61.0603 97.2709C61.6218 97.6831 62.4111 97.562 62.8233 97.0005C63.2354 96.4389 63.1143 95.6497 62.5528 95.2375L58.1809 92.0287C57.6194 91.6166 56.8301 91.7377 56.418 92.2992C56.192 92.6071 56.1264 92.9835 56.2057 93.3286C56.2152 93.4524 56.2432 93.5768 56.2914 93.6982L58.2919 98.7387C58.5489 99.3861 59.282 99.7027 59.9294 99.4457Z" fill="#FFD485"/>
<g id="Vector 374" filter="url(#filter0_i_2136_30165)">
<path d="M67.3241 31.4746C65.4114 30.7179 62.393 27.8425 65.6216 22.3942C69.6573 15.5838 72.1165 16.2144 72.4949 16.9081C72.8519 17.5625 73.0404 19.6204 71.1538 23.2406C72.3034 21.1932 74.3284 18.2121 75.4586 18.7998C76.8787 19.5382 75.3312 23.1929 74.4109 25.0632C75.2131 23.5525 76.6754 21.3695 77.7918 21.6374C79.3683 22.0158 78.2332 30.6548 74.5128 31.853C71.5364 32.8115 68.4802 32.0001 67.3241 31.4746Z" fill="#FF6854"/>
</g>
<g id="Vector 380" filter="url(#filter1_i_2136_30165)">
<path d="M42.8933 50.1582C53.7468 44.1484 62.5229 49.9819 65.5543 53.6499C72.134 59.8875 67.0547 66.8868 51.6024 76.9067C39.2405 84.9225 31.6284 83.8975 29.3675 82.383C26.5026 82.6144 22.7624 82.8579 19.4863 80.8185C17.6977 79.705 19.29 78.5217 19.835 78.5027C18.4414 78.4526 15.9558 77.3176 13.5245 75.2647C11.2187 73.3178 13.2547 71.9904 14.1847 71.8972C12.0074 71.5933 7.80639 70.2756 8.42043 67.4365C9.18798 63.8877 16.8534 63.5612 24.0758 61.8049C31.2983 60.0485 29.3264 57.6705 42.8933 50.1582Z" fill="#E8533F"/>
</g>
<g id="Vector 381" filter="url(#filter2_i_2136_30165)">
<path d="M73.0727 63.7441C75.6439 54.6855 77.1448 52.0539 82.4991 53.2166C87.8536 54.3757 92.0096 59.3913 90.8016 73.333C89.8364 84.4723 84.4715 90.4082 83.6517 87.9548C82.2606 89.6216 78.3278 93.1544 76.8343 92.7425C75.3407 92.3307 75.5229 91.6204 75.8007 91.3167C75.0384 92.0405 72.9644 93.3874 70.7659 92.9844C68.5674 92.5814 68.9018 91.3793 69.3438 90.8285C68.0343 91.8387 65.1232 93.3969 63.9546 91.5484C62.4938 89.2377 66.3699 84.9346 69.2602 80.1057C72.1504 75.2767 69.8588 75.0674 73.0727 63.7441Z" fill="#E8533F"/>
</g>
<g id="Union_3" filter="url(#filter3_i_2136_30165)">
<path fill-rule="evenodd" clip-rule="evenodd" d="M45.6284 50.3631C44.4227 48.0262 43.7414 45.427 43.7414 42.6884C43.7414 30.4265 52.84 23.4499 63.9488 24.2426C74.7292 24.2426 83.4684 31.9063 83.4684 42.6884C83.4684 46.7367 82.1606 50.4133 79.9326 53.3999C84.3775 57.5717 87.2393 63.1798 87.2393 69.3469C87.2393 84.1078 78.0509 91.5873 61.4215 92.6786C45.1078 93.7493 37.2967 82.2326 37.2967 69.3469C37.2967 60.6842 40.2159 54.2549 45.6284 50.3631Z" fill="#FF6854"/>
</g>
<circle id="Ellipse 1264" cx="52.4382" cy="39.6885" r="1.51341" transform="rotate(-8.36493 52.4382 39.6885)" fill="#272727"/>
<circle id="Ellipse 1265" cx="67.321" cy="39.9759" r="1.51341" transform="rotate(-8.36493 67.321 39.9759)" fill="#272727"/>
<path id="Vector 375" d="M54.763 42.4423C56.8451 40.7119 61.1818 41.4591 63.0899 42.049C65.4646 42.7888 63.3599 45.4181 61.4134 45.6791C59.4369 45.9441 54.3907 50.8187 52.7239 49.7838C51.0571 48.7489 52.1604 44.6052 54.763 42.4423Z" fill="#FFED6F"/>
<g id="&#235;&#139;&#136;&#237;&#138;&#184;&#236;&#161;&#176;&#235;&#129;&#188;&#236;&#149;&#181;&#235;&#172;&#180;">
<path id="Union_4" fill-rule="evenodd" clip-rule="evenodd" d="M59.9294 99.445C60.5768 99.188 60.8933 98.4549 60.6364 97.8075C60.3794 97.1601 59.0275 95.0676 59.0275 95.0676C59.0275 95.0676 60.4988 96.8581 61.0603 97.2702C61.6218 97.6824 62.4111 97.5613 62.8233 96.9997C63.2354 96.4382 63.1143 95.6489 62.5528 95.2368L58.1809 92.028C57.6194 91.6159 56.8301 91.737 56.418 92.2985C56.192 92.6064 56.1264 92.9828 56.2057 93.3279C56.2152 93.4516 56.2432 93.576 56.2914 93.6975L58.2919 98.738C58.5489 99.3854 59.282 99.7019 59.9294 99.445Z" fill="#FFD485"/>
<g id="Vector 814" filter="url(#filter4_i_2136_30165)">
<path d="M67.3241 31.4746C65.4114 30.7179 62.393 27.8425 65.6216 22.3942C69.6573 15.5838 72.1165 16.2144 72.4949 16.9081C72.8519 17.5625 73.0404 19.6204 71.1538 23.2406C72.3034 21.1932 74.3284 18.2121 75.4586 18.7998C76.8787 19.5382 75.3312 23.1929 74.4109 25.0632C75.2131 23.5525 76.6754 21.3695 77.7918 21.6374C79.3683 22.0158 78.2332 30.6548 74.5128 31.853C71.5364 32.8115 68.4802 32.0001 67.3241 31.4746Z" fill="#FF6854"/>
</g>
<g id="Vector 815" filter="url(#filter5_i_2136_30165)">
<path d="M42.8933 50.1592C53.7468 44.1494 62.5229 49.9829 65.5543 53.6509C72.134 59.8885 67.0547 66.8878 51.6024 76.9077C39.2405 84.9235 31.6284 83.8985 29.3675 82.384C26.5026 82.6154 22.7624 82.8589 19.4863 80.8195C17.6977 79.706 19.29 78.5226 19.835 78.5036C18.4414 78.4536 15.9558 77.3186 13.5245 75.2657C11.2187 73.3188 13.2547 71.9914 14.1847 71.8982C12.0074 71.5942 7.80639 70.2766 8.42043 67.4375C9.18798 63.8887 16.8534 63.5622 24.0758 61.8058C31.2983 60.0495 29.3264 57.6715 42.8933 50.1592Z" fill="#E8533F"/>
</g>
<g id="Vector 816" filter="url(#filter6_i_2136_30165)">
<path d="M73.0727 63.7441C75.6439 54.6855 77.1448 52.0539 82.4991 53.2166C87.8536 54.3757 92.0096 59.3913 90.8016 73.333C89.8364 84.4723 84.4715 90.4082 83.6517 87.9548C82.2606 89.6216 78.3278 93.1544 76.8343 92.7425C75.3407 92.3307 75.5229 91.6204 75.8007 91.3167C75.0384 92.0405 72.9644 93.3874 70.7659 92.9844C68.5674 92.5814 68.9018 91.3793 69.3438 90.8285C68.0343 91.8387 65.1232 93.3969 63.9546 91.5484C62.4938 89.2377 66.3699 84.9346 69.2602 80.1057C72.1504 75.2767 69.8588 75.0674 73.0727 63.7441Z" fill="#E8533F"/>
</g>
<path id="Union_5" fill-rule="evenodd" clip-rule="evenodd" d="M69.291 98.4373C69.9033 98.1052 70.1305 97.3397 69.7984 96.7274C69.4664 96.1151 67.8754 94.1981 67.8754 94.1981C67.8754 94.1981 69.549 95.801 70.1555 96.1435C70.762 96.486 71.5314 96.272 71.8739 95.6655C72.2164 95.059 72.0024 94.2897 71.3959 93.9472L66.6738 91.2805C66.0672 90.938 65.2979 91.152 64.9554 91.7585C64.7676 92.0911 64.7471 92.4726 64.8669 92.8059C64.891 92.9276 64.9336 93.0478 64.9959 93.1627L67.5811 97.9298C67.9132 98.5421 68.6787 98.7693 69.291 98.4373Z" fill="#FFD485"/>
<g id="Union_6" filter="url(#filter7_i_2136_30165)">
<path fill-rule="evenodd" clip-rule="evenodd" d="M45.6284 50.3622C44.4227 48.0253 43.7414 45.426 43.7414 42.6874C43.7414 30.4255 52.84 23.4489 63.9488 24.2417C74.7292 24.2417 83.4684 31.9054 83.4684 42.6874C83.4684 46.7357 82.1606 50.4123 79.9326 53.399C84.3775 57.5707 87.2393 63.1789 87.2393 69.3459C87.2393 84.1068 78.0509 91.5863 61.4215 92.6776C45.1078 93.7483 37.2967 82.2317 37.2967 69.3459C37.2967 60.6832 40.2159 54.2539 45.6284 50.3622Z" fill="#FF6854"/>
</g>
<circle id="Ellipse 2947" cx="52.4382" cy="39.6875" r="1.51341" transform="rotate(-8.36493 52.4382 39.6875)" fill="#272727"/>
<circle id="Ellipse 2948" cx="67.321" cy="39.9759" r="1.51341" transform="rotate(-8.36493 67.321 39.9759)" fill="#272727"/>
<g id="Group 48096611">
<circle id="Ellipse 2950" cx="51.333" cy="38.5" r="5.5" stroke="#272727" stroke-width="0.916667"/>
<circle id="Ellipse 2951" cx="67.833" cy="38.5" r="5.5" stroke="#272727" stroke-width="0.916667"/>
<path id="Vector 810" d="M56.833 38.5009C57.4441 37.5842 59.3997 36.3009 62.333 38.5009" stroke="#272727" stroke-width="0.916667"/>
</g>
<path id="Vector 817" d="M54.763 42.4413C56.8451 40.7109 61.1818 41.4581 63.0899 42.048C65.083 43.0833 63.3599 45.4172 61.4134 45.6781C59.4369 45.9431 54.3907 50.8177 52.7239 49.7828C51.0571 48.7479 52.1604 44.6042 54.763 42.4413Z" fill="#FFED6F"/>
<path id="Vector 819" d="M46.7493 89.8333C44.5493 89.8333 42.7771 86.7777 42.166 85.2499L81.5827 84.3333C81.2771 85.2499 80.2994 86.5333 78.8327 87.9999C76.9994 89.8333 68.7493 90.7499 62.3327 91.6666C55.916 92.5833 49.4993 89.8333 46.7493 89.8333Z" fill="#AD966F"/>
<path id="Line 515" opacity="0.9" d="M53.166 84.3333L54.9993 89.8333" stroke="#847253" stroke-width="0.916667" stroke-linecap="round"/>
<path id="Line 516" opacity="0.9" d="M69.666 84.3333L67.8327 89.8333" stroke="#847253" stroke-width="0.916667" stroke-linecap="round"/>
<path id="Line 517" opacity="0.9" d="M71.5 84.3333L69.6667 89.8333" stroke="#847253" stroke-width="0.916667" stroke-linecap="round"/>
<g id="Vector 818" filter="url(#filter8_i_2136_30165)">
<path d="M68.7496 64.1667C61.4162 65.6334 49.8052 56.5279 44.9163 50.4167C29.333 64.1667 38.4997 80.6667 41.2497 85.2501C43.9997 89.8334 57.7497 88.9168 64.1663 88.0001C70.583 87.0834 78.833 92.5834 86.1663 78.8334C92.033 67.8334 84.9441 57.139 80.6663 53.1667C79.7497 57.139 76.0829 62.7001 68.7496 64.1667Z" fill="#DDCEBF"/>
</g>
<path id="Vector 820" d="M44.9163 50.4167C43.4497 50.4167 43.083 51.639 43.083 52.2501C46.7497 55.9167 46.7497 55.9167 57.7497 65.0834C68.7497 74.2501 76.083 65.0834 77.9163 63.2501C79.7497 61.4167 82.4997 55.9167 81.583 54.0834C80.6663 52.2501 80.6663 53.1667 77.9163 57.7501C75.1663 62.3334 68.7497 65.0834 62.333 63.2501C55.9163 61.4167 46.7497 50.4167 44.9163 50.4167Z" fill="#AD966F"/>
<path id="Line 509" opacity="0.9" d="M73.333 62.3333L75.1663 65.9999" stroke="#847253" stroke-width="0.916667" stroke-linecap="round"/>
<path id="Line 512" opacity="0.9" d="M60.5 62.3333L58.6667 65.9999" stroke="#847253" stroke-width="0.916667" stroke-linecap="round"/>
<path id="Line 513" opacity="0.9" d="M58.666 60.5L56.8327 64.1667" stroke="#847253" stroke-width="0.916667" stroke-linecap="round"/>
<path id="Line 514" opacity="0.9" d="M49.5 53.1667L47.6667 56.8334" stroke="#847253" stroke-width="0.916667" stroke-linecap="round"/>
<path id="Line 510" opacity="0.9" d="M75.166 60.5L76.9993 64.1667" stroke="#847253" stroke-width="0.916667" stroke-linecap="round"/>
<path id="Line 511" opacity="0.9" d="M77 58.6667L78.8333 62.3334" stroke="#847253" stroke-width="0.916667" stroke-linecap="round"/>
</g>
</g>
</g>
<defs>
<filter id="filter0_i_2136_30165" x="64.2002" y="16.5" width="21.0764" height="31.6506" filterUnits="userSpaceOnUse" color-interpolation-filters="sRGB">
<feFlood flood-opacity="0" result="BackgroundImageFix"/>
<feBlend mode="normal" in="SourceGraphic" in2="BackgroundImageFix" result="shape"/>
<feColorMatrix in="SourceAlpha" type="matrix" values="0 0 0 0 0 0 0 0 0 0 0 0 0 0 0 0 0 0 127 0" result="hardAlpha"/>
<feOffset dx="6.79416" dy="15.853"/>
<feGaussianBlur stdDeviation="13.5883"/>
<feComposite in2="hardAlpha" operator="arithmetic" k2="-1" k3="1"/>
<feColorMatrix type="matrix" values="0 0 0 0 1 0 0 0 0 1 0 0 0 0 1 0 0 0 0.45 0"/>
<feBlend mode="normal" in2="shape" result="effect1_innerShadow_2136_30165"/>
</filter>
<filter id="filter1_i_2136_30165" x="-9.15005" y="30.5808" width="77.5192" height="52.8492" filterUnits="userSpaceOnUse" color-interpolation-filters="sRGB">
<feFlood flood-opacity="0" result="BackgroundImageFix"/>
<feBlend mode="normal" in="SourceGraphic" in2="BackgroundImageFix" result="shape"/>
<feColorMatrix in="SourceAlpha" type="matrix" values="0 0 0 0 0 0 0 0 0 0 0 0 0 0 0 0 0 0 127 0" result="hardAlpha"/>
<feOffset dx="-23.7795" dy="-16.9854"/>
<feGaussianBlur stdDeviation="8.75471"/>
<feComposite in2="hardAlpha" operator="arithmetic" k2="-1" k3="1"/>
<feColorMatrix type="matrix" values="0 0 0 0 0.794424 0 0 0 0 0.333689 0 0 0 0 0.271846 0 0 0 1 0"/>
<feBlend mode="normal" in2="shape" result="effect1_innerShadow_2136_30165"/>
</filter>
<filter id="filter2_i_2136_30165" x="63.6357" y="44.2477" width="27.376" height="48.8104" filterUnits="userSpaceOnUse" color-interpolation-filters="sRGB">
<feFlood flood-opacity="0" result="BackgroundImageFix"/>
<feBlend mode="normal" in="SourceGraphic" in2="BackgroundImageFix" result="shape"/>
<feColorMatrix in="SourceAlpha" type="matrix" values="0 0 0 0 0 0 0 0 0 0 0 0 0 0 0 0 0 0 127 0" result="hardAlpha"/>
<feOffset dy="-8.71051"/>
<feGaussianBlur stdDeviation="8.27499"/>
<feComposite in2="hardAlpha" operator="arithmetic" k2="-1" k3="1"/>
<feColorMatrix type="matrix" values="0 0 0 0 0.794424 0 0 0 0 0.333689 0 0 0 0 0.271846 0 0 0 1 0"/>
<feBlend mode="normal" in2="shape" result="effect1_innerShadow_2136_30165"/>
</filter>
<filter id="filter3_i_2136_30165" x="34.9319" y="24.1816" width="52.3074" height="73.4245" filterUnits="userSpaceOnUse" color-interpolation-filters="sRGB">
<feFlood flood-opacity="0" result="BackgroundImageFix"/>
<feBlend mode="normal" in="SourceGraphic" in2="BackgroundImageFix" result="shape"/>
<feColorMatrix in="SourceAlpha" type="matrix" values="0 0 0 0 0 0 0 0 0 0 0 0 0 0 0 0 0 0 127 0" result="hardAlpha"/>
<feOffset dx="-2.365" dy="4.85833"/>
<feGaussianBlur stdDeviation="10.835"/>
<feComposite in2="hardAlpha" operator="arithmetic" k2="-1" k3="1"/>
<feColorMatrix type="matrix" values="0 0 0 0 1 0 0 0 0 1 0 0 0 0 1 0 0 0 0.45 0"/>
<feBlend mode="normal" in2="shape" result="effect1_innerShadow_2136_30165"/>
</filter>
<filter id="filter4_i_2136_30165" x="64.2002" y="16.5" width="21.0764" height="31.6506" filterUnits="userSpaceOnUse" color-interpolation-filters="sRGB">
<feFlood flood-opacity="0" result="BackgroundImageFix"/>
<feBlend mode="normal" in="SourceGraphic" in2="BackgroundImageFix" result="shape"/>
<feColorMatrix in="SourceAlpha" type="matrix" values="0 0 0 0 0 0 0 0 0 0 0 0 0 0 0 0 0 0 127 0" result="hardAlpha"/>
<feOffset dx="6.79416" dy="15.853"/>
<feGaussianBlur stdDeviation="13.5883"/>
<feComposite in2="hardAlpha" operator="arithmetic" k2="-1" k3="1"/>
<feColorMatrix type="matrix" values="0 0 0 0 1 0 0 0 0 1 0 0 0 0 1 0 0 0 0.45 0"/>
<feBlend mode="normal" in2="shape" result="effect1_innerShadow_2136_30165"/>
</filter>
<filter id="filter5_i_2136_30165" x="-9.15005" y="30.5817" width="77.5192" height="52.8492" filterUnits="userSpaceOnUse" color-interpolation-filters="sRGB">
<feFlood flood-opacity="0" result="BackgroundImageFix"/>
<feBlend mode="normal" in="SourceGraphic" in2="BackgroundImageFix" result="shape"/>
<feColorMatrix in="SourceAlpha" type="matrix" values="0 0 0 0 0 0 0 0 0 0 0 0 0 0 0 0 0 0 127 0" result="hardAlpha"/>
<feOffset dx="-23.7795" dy="-16.9854"/>
<feGaussianBlur stdDeviation="8.75471"/>
<feComposite in2="hardAlpha" operator="arithmetic" k2="-1" k3="1"/>
<feColorMatrix type="matrix" values="0 0 0 0 0.794424 0 0 0 0 0.333689 0 0 0 0 0.271846 0 0 0 1 0"/>
<feBlend mode="normal" in2="shape" result="effect1_innerShadow_2136_30165"/>
</filter>
<filter id="filter6_i_2136_30165" x="63.6357" y="44.2477" width="27.376" height="48.8104" filterUnits="userSpaceOnUse" color-interpolation-filters="sRGB">
<feFlood flood-opacity="0" result="BackgroundImageFix"/>
<feBlend mode="normal" in="SourceGraphic" in2="BackgroundImageFix" result="shape"/>
<feColorMatrix in="SourceAlpha" type="matrix" values="0 0 0 0 0 0 0 0 0 0 0 0 0 0 0 0 0 0 127 0" result="hardAlpha"/>
<feOffset dy="-8.71051"/>
<feGaussianBlur stdDeviation="8.27499"/>
<feComposite in2="hardAlpha" operator="arithmetic" k2="-1" k3="1"/>
<feColorMatrix type="matrix" values="0 0 0 0 0.794424 0 0 0 0 0.333689 0 0 0 0 0.271846 0 0 0 1 0"/>
<feBlend mode="normal" in2="shape" result="effect1_innerShadow_2136_30165"/>
</filter>
<filter id="filter7_i_2136_30165" x="34.9319" y="24.1807" width="52.3074" height="73.4245" filterUnits="userSpaceOnUse" color-interpolation-filters="sRGB">
<feFlood flood-opacity="0" result="BackgroundImageFix"/>
<feBlend mode="normal" in="SourceGraphic" in2="BackgroundImageFix" result="shape"/>
<feColorMatrix in="SourceAlpha" type="matrix" values="0 0 0 0 0 0 0 0 0 0 0 0 0 0 0 0 0 0 127 0" result="hardAlpha"/>
<feOffset dx="-2.365" dy="4.85833"/>
<feGaussianBlur stdDeviation="10.835"/>
<feComposite in2="hardAlpha" operator="arithmetic" k2="-1" k3="1"/>
<feColorMatrix type="matrix" values="0 0 0 0 1 0 0 0 0 1 0 0 0 0 1 0 0 0 0.45 0"/>
<feBlend mode="normal" in2="shape" result="effect1_innerShadow_2136_30165"/>
</filter>
<filter id="filter8_i_2136_30165" x="26.8978" y="50.4167" width="61.4977" height="45.6651" filterUnits="userSpaceOnUse" color-interpolation-filters="sRGB">
<feFlood flood-opacity="0" result="BackgroundImageFix"/>
<feBlend mode="normal" in="SourceGraphic" in2="BackgroundImageFix" result="shape"/>
<feColorMatrix in="SourceAlpha" type="matrix" values="0 0 0 0 0 0 0 0 0 0 0 0 0 0 0 0 0 0 127 0" result="hardAlpha"/>
<feOffset dx="-11" dy="7.33333"/>
<feGaussianBlur stdDeviation="4.58333"/>
<feComposite in2="hardAlpha" operator="arithmetic" k2="-1" k3="1"/>
<feColorMatrix type="matrix" values="0 0 0 0 0.772113 0 0 0 0 0.712268 0 0 0 0 0.610791 0 0 0 0.8 0"/>
<feBlend mode="normal" in2="shape" result="effect1_innerShadow_2136_30165"/>
</filter>
</defs>
</svg>
