<svg width="110" height="110" viewBox="0 0 110 110" fill="none" xmlns="http://www.w3.org/2000/svg">
<g id="&#235;&#169;&#152;&#237;&#139;&#176;_60">
<g id="&#235;&#169;&#152;&#237;&#139;&#176;_60_2">
<path id="Union" fill-rule="evenodd" clip-rule="evenodd" d="M31.9567 71.2485C32.1115 71.0013 32.2408 70.7373 32.3116 70.4543L33.0029 67.6891C33.2549 66.6809 34.1607 65.9736 35.2 65.9736H37.6896C38.2302 65.9736 38.7529 65.7803 39.1634 65.4284L41.5511 63.3818C42.1366 62.88 42.9372 62.7105 43.6757 62.9321L46.7195 63.8452C47.5885 64.1059 48.5293 63.8229 49.1101 63.1259L49.835 62.256C50.5078 61.4486 51.6476 61.2102 52.5876 61.6802L54.6737 62.7232C55.2109 62.9918 55.8328 63.036 56.4027 62.8461L61.2561 61.2283C61.9191 61.0073 62.647 61.1048 63.2285 61.4924L65.5078 63.0119C65.6382 63.0989 65.7773 63.1721 65.9229 63.2303L67.7646 63.967C68.2619 64.1659 68.8137 64.1822 69.3219 64.0128L70.701 63.5531C71.4635 63.2989 72.3036 63.4679 72.9084 63.9972L75.821 66.5457C76.2338 66.9069 76.7637 67.106 77.3123 67.106H77.5937C78.8445 67.106 79.8584 68.1199 79.8584 69.3707V73.3182C79.8584 73.3274 79.852 73.3353 79.8431 73.3372C79.8332 73.3393 79.8266 73.3485 79.8278 73.3585C79.8481 73.5369 79.8584 73.7174 79.8584 73.9002C79.8584 79.8413 68.9585 84.6576 55.5127 84.6576C42.0669 84.6576 31.167 79.8413 31.167 73.9002C31.167 72.9576 31.4414 72.0718 31.9567 71.2485Z" fill="#CDAF77"/>
<g id="Vector 625" filter="url(#filter0_i_2136_30147)">
<path d="M53.1059 47.7134C54.9258 47.0625 57.7976 44.5892 54.7258 39.9029C50.8861 34.045 48.5464 34.5874 48.1864 35.184C47.8468 35.747 47.6674 37.517 49.4623 40.6309C48.3686 38.8698 46.442 36.3056 45.3666 36.8112C44.0156 37.4463 45.4879 40.5899 46.3634 42.1986C45.6003 40.8992 44.209 39.0215 43.1468 39.252C41.6469 39.5774 42.7268 47.0082 46.2666 48.0388C49.0983 48.8632 52.0061 48.1654 53.1059 47.7134Z" fill="#FF6854"/>
</g>
<g id="Union_2" filter="url(#filter1_i_2136_30147)">
<path fill-rule="evenodd" clip-rule="evenodd" d="M68.9039 58.4145C69.8334 56.6129 70.3587 54.6091 70.3587 52.4979C70.3587 43.0453 63.3446 37.6671 54.781 38.2782C46.4705 38.2782 39.7335 44.1861 39.7335 52.4979C39.7335 55.6186 40.7416 58.4527 42.459 60.7551C39.0324 63.971 36.8262 68.2944 36.8262 73.0486C36.8262 84.4277 43.8818 91.0348 56.7288 91.0348C67 91.0348 75.3264 82.9821 75.3264 73.0486C75.3264 66.3708 73.0761 61.4146 68.9039 58.4145Z" fill="#FF6854"/>
</g>
<circle id="Ellipse 2669" cx="1.41405" cy="1.41405" r="1.41405" transform="matrix(-0.974168 0.225826 0.225826 0.974168 66.0205 45.0239)" fill="#272727"/>
<path id="Ellipse 2670" d="M51.7928 52.3682C51.9692 53.129 52.7289 53.6028 53.4897 53.4264C54.2504 53.2501 54.7242 52.4904 54.5478 51.7296C54.3715 50.9688 53.6118 50.495 52.851 50.6714C52.0902 50.8477 51.6164 51.6074 51.7928 52.3682Z" fill="#272727"/>
<path id="Vector 619" d="M62.4526 49.6849C60.476 49.4137 58.0545 51.5708 57.0908 52.6832C55.8937 54.0712 58.2346 54.8958 59.5539 54.3007C60.8934 53.6964 65.9491 54.7793 66.5884 53.4825C67.2278 52.1858 64.9233 50.0238 62.4526 49.6849Z" fill="#FFED6F"/>
<path id="Union_3" fill-rule="evenodd" clip-rule="evenodd" d="M33.0553 71.4294L33.8452 70.0307C34.2014 69.4001 35.0499 69.2613 35.5884 69.7456L39.1812 72.9768C39.4311 73.2015 39.7678 73.3037 40.1004 73.2556L42.8619 72.8565C43.2535 72.7998 43.6463 72.9518 43.8979 73.2573L45.8584 75.6376C46.1245 75.9605 46.5469 76.1105 46.9571 76.0275L51.4741 75.1135C51.7402 75.0596 52.0169 75.1032 52.2535 75.2362L56.6646 77.7156C56.834 77.8109 57.0251 77.8609 57.2194 77.8609H61.9708C62.317 77.8609 62.6442 77.7025 62.859 77.4309L64.1574 75.7887C64.5029 75.3518 65.1149 75.231 65.6005 75.5039L69.0407 77.4376C69.4854 77.6876 70.0423 77.6094 70.4009 77.2465L71.6997 75.9325C71.9124 75.7173 72.2024 75.5962 72.505 75.5962H72.8939C73.4513 75.1144 73.9739 74.6466 74.4611 74.2104C75.0877 73.6495 75.6557 73.141 76.1638 72.7228L76.3432 72.4506C76.4518 72.2858 76.6015 72.1522 76.7776 72.0632L78.2229 71.332C78.9761 70.951 79.8665 71.4983 79.8665 72.3424V75.3457C79.8665 75.5107 79.8304 75.6737 79.7608 75.8233L79.1473 77.1423C77.9755 86.3859 70.3347 95.9786 55.8038 95.9786C39.9529 95.9786 32.3008 84.0032 32.3008 74.0786C32.3008 72.7049 32.5652 71.862 33.0553 71.4294Z" fill="#FFEDCB"/>
<g id="Union_4" filter="url(#filter2_i_2136_30147)">
<path fill-rule="evenodd" clip-rule="evenodd" d="M31.4265 72.4012L32.736 70.0509C33.0913 69.4131 33.9485 69.2733 34.4881 69.7652L38.131 73.0864C38.3818 73.3151 38.7221 73.4192 39.058 73.37L41.8536 72.9603C42.2486 72.9025 42.6448 73.0569 42.8966 73.3667L44.8882 75.8179C45.1545 76.1456 45.5809 76.298 45.9946 76.2131L50.5656 75.2755C50.8348 75.2203 51.115 75.2648 51.3537 75.4009L55.8183 77.9448C55.9891 78.0421 56.1823 78.0933 56.3789 78.0933H61.1878C61.5367 78.0933 61.8661 77.9325 62.0807 77.6574L63.403 75.9621C63.7489 75.5187 64.3678 75.3963 64.8565 75.6747L68.3406 77.66C68.7885 77.9152 69.3522 77.8357 69.712 77.4667L71.0324 76.1124C71.2456 75.8938 71.5379 75.7705 71.8432 75.7705H73.162C73.462 75.7705 73.7497 75.6514 73.962 75.4395L76.3358 73.0695C76.419 72.9864 76.5146 72.9168 76.6192 72.8632L78.2094 72.0477C78.9629 71.6613 79.8584 72.2085 79.8584 73.0553V75.5707C79.8584 75.5893 79.858 75.6078 79.8571 75.6263C79.858 75.6982 79.8584 75.7717 79.8584 75.8467C79.8584 85.7714 71.4634 97.1106 55.2329 97.1106C39.0024 97.1106 31.167 85.1349 31.167 75.2102C31.167 74.4767 31.2442 73.8945 31.3926 73.4454L31.3607 73.3638C31.238 73.0492 31.2622 72.6962 31.4265 72.4012Z" fill="#FFD992"/>
</g>
</g>
</g>
<defs>
<filter id="filter0_i_2136_30147" x="42.4902" y="34.833" width="20.382" height="29.4414" filterUnits="userSpaceOnUse" color-interpolation-filters="sRGB">
<feFlood flood-opacity="0" result="BackgroundImageFix"/>
<feBlend mode="normal" in="SourceGraphic" in2="BackgroundImageFix" result="shape"/>
<feColorMatrix in="SourceAlpha" type="matrix" values="0 0 0 0 0 0 0 0 0 0 0 0 0 0 0 0 0 0 127 0" result="hardAlpha"/>
<feOffset dx="6.79416" dy="15.853"/>
<feGaussianBlur stdDeviation="13.5883"/>
<feComposite in2="hardAlpha" operator="arithmetic" k2="-1" k3="1"/>
<feColorMatrix type="matrix" values="0 0 0 0 1 0 0 0 0 1 0 0 0 0 1 0 0 0 0.45 0"/>
<feBlend mode="normal" in2="shape" result="effect1_innerShadow_2136_30147"/>
</filter>
<filter id="filter1_i_2136_30147" x="36.8262" y="38.2312" width="45.2942" height="68.6567" filterUnits="userSpaceOnUse" color-interpolation-filters="sRGB">
<feFlood flood-opacity="0" result="BackgroundImageFix"/>
<feBlend mode="normal" in="SourceGraphic" in2="BackgroundImageFix" result="shape"/>
<feColorMatrix in="SourceAlpha" type="matrix" values="0 0 0 0 0 0 0 0 0 0 0 0 0 0 0 0 0 0 127 0" result="hardAlpha"/>
<feOffset dx="6.79416" dy="15.853"/>
<feGaussianBlur stdDeviation="13.5883"/>
<feComposite in2="hardAlpha" operator="arithmetic" k2="-1" k3="1"/>
<feColorMatrix type="matrix" values="0 0 0 0 1 0 0 0 0 1 0 0 0 0 1 0 0 0 0.45 0"/>
<feBlend mode="normal" in2="shape" result="effect1_innerShadow_2136_30147"/>
</filter>
<filter id="filter2_i_2136_30147" x="28.9023" y="66.0724" width="50.9561" height="31.0382" filterUnits="userSpaceOnUse" color-interpolation-filters="sRGB">
<feFlood flood-opacity="0" result="BackgroundImageFix"/>
<feBlend mode="normal" in="SourceGraphic" in2="BackgroundImageFix" result="shape"/>
<feColorMatrix in="SourceAlpha" type="matrix" values="0 0 0 0 0 0 0 0 0 0 0 0 0 0 0 0 0 0 127 0" result="hardAlpha"/>
<feOffset dx="-2.26472" dy="-3.39708"/>
<feGaussianBlur stdDeviation="2.26472"/>
<feComposite in2="hardAlpha" operator="arithmetic" k2="-1" k3="1"/>
<feColorMatrix type="matrix" values="0 0 0 0 0.946077 0 0 0 0 0.731321 0 0 0 0 0.330065 0 0 0 1 0"/>
<feBlend mode="normal" in2="shape" result="effect1_innerShadow_2136_30147"/>
</filter>
</defs>
</svg>
