<svg width="217" height="167" viewBox="0 0 217 167" fill="none" xmlns="http://www.w3.org/2000/svg">
<path d="M135.441 62.1777C109.65 65.9437 101.986 90.218 101.378 101.884C97.9309 123.784 115.165 130.334 153.689 127.878C184.508 125.913 196.133 112.869 198.093 106.592C203.23 102.908 213.381 94.2706 212.894 89.1947C212.408 84.1188 210.394 84.3507 209.448 85.1012C211.745 82.9862 216.301 76.9142 216.139 69.546C215.976 62.1777 212.556 62.6553 210.867 63.8151C214.179 60.0628 219.667 51.3709 215.125 46.6225C209.448 40.6869 196.066 51.1253 181.67 58.0842C167.274 65.0431 167.679 57.4702 135.441 62.1777Z" fill="#FFE73C"/>
<path d="M78.9745 68.2808C102.855 72.9575 108.885 95.7236 108.915 106.522C111.121 126.9 94.7455 132.145 58.9294 128.085C30.2765 124.837 20.0355 112.253 18.4966 106.368C13.8757 102.728 4.80585 94.2817 5.49348 89.6184C6.1811 84.955 8.04883 85.2629 8.89673 85.9997C6.851 83.9403 2.88218 78.1229 3.37282 71.3282C3.86346 64.5336 7.03098 65.1336 8.5534 66.2829C5.63758 62.6647 0.919555 54.3852 5.37412 50.2129C10.9423 44.9975 22.9423 55.2566 36.0479 62.3508C49.1536 69.4449 49.1242 62.4349 78.9745 68.2808Z" fill="#FFE73C"/>
<path d="M168.246 107.18C168.246 141.872 146.777 162.015 107.686 162.015C76.4325 162.015 51.0967 137.465 51.0967 107.18C51.0967 71.8658 71.6971 52.3438 107.686 52.3438C138.939 52.3438 168.246 76.8946 168.246 107.18Z" fill="#FFED6F"/>
<path d="M144.567 43.6915C144.567 67.742 122.387 87.2389 97.0228 87.2389C71.6585 87.2389 51.0967 68.3975 51.0967 43.6915C51.0967 18.2368 71.6585 0.144021 97.0228 0.144021C123.16 -1.72764 144.567 14.743 144.567 43.6915Z" fill="#FFED6F"/>
<path d="M152.008 55.3301C152.742 68.4449 142.34 71.0373 135.123 71.0373C127.906 71.0373 125.873 64.005 125.873 55.3301C125.873 46.6553 129.521 34.8955 136.738 34.8955C143.955 34.8955 151.502 46.3016 152.008 55.3301Z" fill="#FFED6F"/>
<path d="M76.0224 60.8664C76.0224 69.1565 73.8896 76.0227 66.3183 76.0227C58.7471 76.0227 48.6045 69.1565 48.6045 60.8664C48.6045 52.5764 54.7422 39.8809 62.3135 39.8809C69.8847 39.8809 76.0224 52.5764 76.0224 60.8664Z" fill="#FFED6F"/>
<circle cx="99.7017" cy="44.8658" r="3.73881" fill="#272727"/>
<circle cx="68.5445" cy="44.8658" r="3.73881" fill="#272727"/>
<path fill-rule="evenodd" clip-rule="evenodd" d="M95.3949 146.297C93.7622 146.337 92.471 147.693 92.5109 149.326C92.5508 150.958 93.827 156.659 93.827 156.659C93.827 156.659 92.0431 151.526 91.1423 150.164C90.2414 148.801 88.4068 148.427 87.0446 149.328C85.6823 150.229 85.3082 152.064 86.2091 153.426L93.2228 164.032C94.1236 165.395 95.9582 165.769 97.3205 164.868C98.0675 164.374 98.5173 163.599 98.6228 162.776C98.7024 162.496 98.7417 162.199 98.7342 161.893L98.4234 149.181C98.3835 147.548 97.0276 146.257 95.3949 146.297Z" fill="#272727"/>
<path fill-rule="evenodd" clip-rule="evenodd" d="M132.229 147.999C130.728 147.355 128.99 148.05 128.346 149.551C127.702 151.052 126.488 156.766 126.488 156.766C126.488 156.766 127.004 151.357 126.753 149.743C126.501 148.129 124.989 147.025 123.375 147.276C121.762 147.528 120.657 149.04 120.909 150.654L122.867 163.217C123.118 164.831 124.63 165.936 126.244 165.684C127.129 165.546 127.861 165.029 128.3 164.324C128.489 164.103 128.648 163.85 128.769 163.569L133.781 151.883C134.425 150.382 133.73 148.643 132.229 147.999Z" fill="#272727"/>
<g filter="url(#filter0_d_31_10810)">
<g filter="url(#filter1_i_31_10810)">
<rect x="53.4346" y="52.3428" width="60.5322" height="38.3371" transform="rotate(11.0118 53.4346 52.3428)" fill="#F9F8F3"/>
</g>
<g filter="url(#filter2_d_31_10810)">
<path d="M112.852 63.9051L53.4346 52.3428L79.8674 74.959L112.852 63.9051Z" fill="#F9F8F3"/>
</g>
<g filter="url(#filter3_ddiii_31_10810)">
<path fill-rule="evenodd" clip-rule="evenodd" d="M78.2277 82.7998C81.7209 83.4795 85.2072 82.324 86.1265 78.6807C87.0458 75.0374 86.6413 73.7979 84.8026 71.6357C83.5724 70.189 81.9883 69.1116 80.4136 68.9098C78.6428 68.6827 77.4281 69.696 76.3381 70.6053C76.0168 70.8733 75.7064 71.1323 75.3958 71.3478C73.9565 72.3462 73.181 73.4706 72.7992 75.4323C72.0556 79.2539 75.4049 82.2505 78.2277 82.7998ZM78.318 71.1544C77.6505 71.1587 77.0591 71.5852 76.8444 72.2172L76.6196 72.8788C76.0639 74.5143 75.7325 76.2176 75.6343 77.9421L75.5946 78.6397C75.5566 79.3061 75.945 79.9233 76.5621 80.1775C78.0053 80.7721 79.5525 81.0732 81.1134 81.0632C81.7808 81.0589 82.3723 80.6324 82.587 80.0004L82.8118 79.3388C83.3675 77.7033 83.6989 76 83.7971 74.2755L83.8368 73.5779C83.8747 72.9115 83.4864 72.2943 82.8693 72.0401C81.426 71.4455 79.8788 71.1444 78.318 71.1544Z" fill="#71A3D3"/>
</g>
<g filter="url(#filter4_i_31_10810)">
<path fill-rule="evenodd" clip-rule="evenodd" d="M78.1876 71.1141C77.4133 71.1061 76.7196 71.5912 76.4614 72.3212L76.3174 72.7283C75.7207 74.4148 75.3772 76.1803 75.2979 77.9675L75.2787 78.3989C75.2444 79.1725 75.7055 79.8823 76.4262 80.1652C77.9643 80.7691 79.5996 81.0874 81.2519 81.1043C82.0261 81.1122 82.7198 80.6271 82.978 79.8972L83.1221 79.49C83.7187 77.8035 84.0623 76.038 84.1416 74.2509L84.1607 73.8194C84.1951 73.0459 83.7339 72.3361 83.0132 72.0531C81.4751 71.4492 79.8398 71.131 78.1876 71.1141ZM78.4628 71.9992C77.829 71.9931 77.2615 72.3905 77.0504 72.9881L76.9289 73.332C76.4391 74.7188 76.1567 76.1703 76.0907 77.6397L76.0743 78.004C76.0459 78.6371 76.423 79.2183 77.0128 79.4503C78.276 79.9472 79.6194 80.2086 80.9768 80.2217C81.6105 80.2278 82.1781 79.8304 82.3891 79.2328L82.5106 78.8889C83.0004 77.5021 83.2829 76.0506 83.3488 74.5812L83.3652 74.2169C83.3936 73.5838 83.0165 73.0026 82.4267 72.7706C81.1635 72.2737 79.8201 72.0123 78.4628 71.9992Z" fill="#71A3D3"/>
</g>
<path d="M77.0513 72.989C77.2624 72.3914 77.83 71.994 78.4637 72.0001C79.821 72.0132 81.1645 72.2746 82.4276 72.7715C83.0174 73.0035 83.3946 73.5847 83.3661 74.2178L83.3498 74.5821C83.2838 76.0515 83.0013 77.503 82.5115 78.8898L82.3901 79.2337C82.179 79.8313 81.6114 80.2287 80.9777 80.2226C79.6204 80.2095 78.2769 79.9481 77.0138 79.4512C76.424 79.2192 76.0468 78.638 76.0753 78.0049L76.0916 77.6406C76.1576 76.1712 76.4401 74.7197 76.9299 73.3328L77.0513 72.989Z" fill="#71A3D3"/>
<g filter="url(#filter5_f_31_10810)">
<path fill-rule="evenodd" clip-rule="evenodd" d="M85.5858 77.357C85.7854 76.0729 85.1945 74.9511 84.678 73.885L85.5593 73.2365C86.1286 74.4116 86.1613 76.0287 85.9412 77.4442L85.9145 77.6158C85.833 78.1404 85.6998 78.6498 85.5188 79.1295L84.9858 80.2996L84.6645 80.0821L85.1974 78.9121C85.3628 78.4736 85.4845 78.0081 85.5591 77.5287L85.5858 77.357Z" fill="url(#paint0_linear_31_10810)"/>
</g>
<g filter="url(#filter6_f_31_10810)">
<path fill-rule="evenodd" clip-rule="evenodd" d="M73.3354 76.7988C73.2405 77.9142 73.8009 78.8445 74.2955 79.7311L73.5916 80.3395C73.0464 79.3622 72.9271 77.9739 73.0317 76.7443L73.0443 76.5952C73.0831 76.1396 73.1661 75.694 73.291 75.2711L73.9718 73.4997L74.2543 73.6682L73.5734 75.4396C73.4593 75.8261 73.3834 76.2332 73.348 76.6497L73.3354 76.7988Z" fill="url(#paint1_linear_31_10810)"/>
</g>
<g filter="url(#filter7_f_31_10810)">
<path d="M81.5971 80.6101C81.5876 80.6586 80.1979 80.6659 79.0245 80.4375C77.851 80.2092 76.1011 79.4451 76.1105 79.3967C76.12 79.3482 77.8715 80.104 79.0449 80.3323C80.2184 80.5607 81.6065 80.5617 81.5971 80.6101Z" fill="#B2D1ED"/>
</g>
<g filter="url(#filter8_f_31_10810)">
<path d="M77.8707 71.5251C77.8787 71.4763 79.2676 71.4285 80.4473 71.6225C81.6269 71.8165 83.3983 72.5292 83.3903 72.5779C83.3823 72.6267 81.6095 71.9223 80.4299 71.7283C79.2502 71.5343 77.8627 71.5738 77.8707 71.5251Z" fill="#B2D1ED"/>
</g>
<g filter="url(#filter9_f_31_10810)">
<path d="M75.6617 78.6915C75.6137 78.6821 75.6784 76.9351 75.9678 75.4477C76.2573 73.9603 77.1129 71.7203 77.161 71.7297C77.2091 71.739 76.3616 73.9806 76.0721 75.468C75.7827 76.9554 75.7098 78.7008 75.6617 78.6915Z" fill="#B2D1ED"/>
</g>
<g filter="url(#filter10_f_31_10810)">
<path d="M83.8627 73.288C83.9108 73.2973 83.846 75.0444 83.5566 76.5318C83.2671 78.0192 82.4115 80.2592 82.3634 80.2498C82.3154 80.2405 83.1629 77.9989 83.4523 76.5115C83.7417 75.0241 83.8146 73.2786 83.8627 73.288Z" fill="#B2D1ED"/>
</g>
<g filter="url(#filter11_f_31_10810)">
<path fill-rule="evenodd" clip-rule="evenodd" d="M74.1315 76.8287L74.6372 76.8525L74.9512 78.5686L74.7745 79.1964L74.4636 77.8952L74.4602 78.0155C74.4125 79.6971 75.2367 81.0045 76.4075 81.1044L76.3342 81.6185C74.9888 81.5037 74.0416 80.0013 74.0964 78.0688L74.1315 76.8287Z" fill="url(#paint2_linear_31_10810)"/>
</g>
</g>
<g filter="url(#filter12_d_31_10810)">
<path d="M92.2235 54.7249C92.2235 57.4169 79.5747 63.5596 74.7496 63.5596C69.9244 63.5596 73.4392 57.7713 74.7501 54.7249C76.1922 51.3738 78.6617 49.8506 83.4868 49.8506C88.312 49.8506 92.2235 52.0329 92.2235 54.7249Z" fill="#FFFCE6"/>
</g>
<defs>
<filter id="filter0_d_31_10810" x="44.1113" y="52.3428" width="74.7412" height="57.1934" filterUnits="userSpaceOnUse" color-interpolation-filters="sRGB">
<feFlood flood-opacity="0" result="BackgroundImageFix"/>
<feColorMatrix in="SourceAlpha" type="matrix" values="0 0 0 0 0 0 0 0 0 0 0 0 0 0 0 0 0 0 127 0" result="hardAlpha"/>
<feOffset dx="2" dy="4"/>
<feGaussianBlur stdDeviation="2"/>
<feComposite in2="hardAlpha" operator="out"/>
<feColorMatrix type="matrix" values="0 0 0 0 0.823016 0 0 0 0 0.595757 0 0 0 0 0.517743 0 0 0 0.3 0"/>
<feBlend mode="normal" in2="BackgroundImageFix" result="effect1_dropShadow_31_10810"/>
<feBlend mode="normal" in="SourceGraphic" in2="effect1_dropShadow_31_10810" result="shape"/>
</filter>
<filter id="filter1_i_31_10810" x="46.1113" y="50.3428" width="66.7412" height="51.1934" filterUnits="userSpaceOnUse" color-interpolation-filters="sRGB">
<feFlood flood-opacity="0" result="BackgroundImageFix"/>
<feBlend mode="normal" in="SourceGraphic" in2="BackgroundImageFix" result="shape"/>
<feColorMatrix in="SourceAlpha" type="matrix" values="0 0 0 0 0 0 0 0 0 0 0 0 0 0 0 0 0 0 127 0" result="hardAlpha"/>
<feMorphology radius="2" operator="erode" in="SourceAlpha" result="effect1_innerShadow_31_10810"/>
<feOffset dy="-2"/>
<feGaussianBlur stdDeviation="2.5"/>
<feComposite in2="hardAlpha" operator="arithmetic" k2="-1" k3="1"/>
<feColorMatrix type="matrix" values="0 0 0 0 0.913725 0 0 0 0 0.901961 0 0 0 0 0.858824 0 0 0 0.6 0"/>
<feBlend mode="normal" in2="shape" result="effect1_innerShadow_31_10810"/>
</filter>
<filter id="filter2_d_31_10810" x="51.4346" y="51.3428" width="63.418" height="26.6162" filterUnits="userSpaceOnUse" color-interpolation-filters="sRGB">
<feFlood flood-opacity="0" result="BackgroundImageFix"/>
<feColorMatrix in="SourceAlpha" type="matrix" values="0 0 0 0 0 0 0 0 0 0 0 0 0 0 0 0 0 0 127 0" result="hardAlpha"/>
<feOffset dy="1"/>
<feGaussianBlur stdDeviation="1"/>
<feComposite in2="hardAlpha" operator="out"/>
<feColorMatrix type="matrix" values="0 0 0 0 0.913725 0 0 0 0 0.901961 0 0 0 0 0.858824 0 0 0 1 0"/>
<feBlend mode="normal" in2="BackgroundImageFix" result="effect1_dropShadow_31_10810"/>
<feBlend mode="normal" in="SourceGraphic" in2="effect1_dropShadow_31_10810" result="shape"/>
</filter>
<filter id="filter3_ddiii_31_10810" x="51.7818" y="60.3999" width="38.7752" height="38.9754" filterUnits="userSpaceOnUse" color-interpolation-filters="sRGB">
<feFlood flood-opacity="0" result="BackgroundImageFix"/>
<feColorMatrix in="SourceAlpha" type="matrix" values="0 0 0 0 0 0 0 0 0 0 0 0 0 0 0 0 0 0 127 0" result="hardAlpha"/>
<feOffset dx="-8.47805" dy="3.95642"/>
<feGaussianBlur stdDeviation="6.21724"/>
<feComposite in2="hardAlpha" operator="out"/>
<feColorMatrix type="matrix" values="0 0 0 0 0 0 0 0 0 0 0 0 0 0 0 0 0 0 0.25 0"/>
<feBlend mode="normal" in2="BackgroundImageFix" result="effect1_dropShadow_31_10810"/>
<feColorMatrix in="SourceAlpha" type="matrix" values="0 0 0 0 0 0 0 0 0 0 0 0 0 0 0 0 0 0 127 0" result="hardAlpha"/>
<feOffset dx="0.5" dy="0.5"/>
<feGaussianBlur stdDeviation="1"/>
<feComposite in2="hardAlpha" operator="out"/>
<feColorMatrix type="matrix" values="0 0 0 0 0.2 0 0 0 0 0.2 0 0 0 0 0.2 0 0 0 0.3 0"/>
<feBlend mode="normal" in2="effect1_dropShadow_31_10810" result="effect2_dropShadow_31_10810"/>
<feBlend mode="normal" in="SourceGraphic" in2="effect2_dropShadow_31_10810" result="shape"/>
<feColorMatrix in="SourceAlpha" type="matrix" values="0 0 0 0 0 0 0 0 0 0 0 0 0 0 0 0 0 0 127 0" result="hardAlpha"/>
<feOffset dx="-2.26081" dy="-1.69561"/>
<feGaussianBlur stdDeviation="1.97821"/>
<feComposite in2="hardAlpha" operator="arithmetic" k2="-1" k3="1"/>
<feColorMatrix type="matrix" values="0 0 0 0 0.303409 0 0 0 0 0.541624 0 0 0 0 0.77085 0 0 0 1 0"/>
<feBlend mode="normal" in2="shape" result="effect3_innerShadow_31_10810"/>
<feColorMatrix in="SourceAlpha" type="matrix" values="0 0 0 0 0 0 0 0 0 0 0 0 0 0 0 0 0 0 127 0" result="hardAlpha"/>
<feOffset/>
<feGaussianBlur stdDeviation="3.39122"/>
<feComposite in2="hardAlpha" operator="arithmetic" k2="-1" k3="1"/>
<feColorMatrix type="matrix" values="0 0 0 0 0.63577 0 0 0 0 0.775083 0 0 0 0 0.91123 0 0 0 1 0"/>
<feBlend mode="normal" in2="effect3_innerShadow_31_10810" result="effect4_innerShadow_31_10810"/>
<feColorMatrix in="SourceAlpha" type="matrix" values="0 0 0 0 0 0 0 0 0 0 0 0 0 0 0 0 0 0 127 0" result="hardAlpha"/>
<feOffset dx="1.69561" dy="-1.41301"/>
<feGaussianBlur stdDeviation="2.82602"/>
<feComposite in2="hardAlpha" operator="arithmetic" k2="-1" k3="1"/>
<feColorMatrix type="matrix" values="0 0 0 0 0.252996 0 0 0 0 0.495668 0 0 0 0 0.728434 0 0 0 1 0"/>
<feBlend mode="normal" in2="effect4_innerShadow_31_10810" result="effect5_innerShadow_31_10810"/>
</filter>
<filter id="filter4_i_31_10810" x="75.2773" y="70.1143" width="8.88477" height="10.9902" filterUnits="userSpaceOnUse" color-interpolation-filters="sRGB">
<feFlood flood-opacity="0" result="BackgroundImageFix"/>
<feBlend mode="normal" in="SourceGraphic" in2="BackgroundImageFix" result="shape"/>
<feColorMatrix in="SourceAlpha" type="matrix" values="0 0 0 0 0 0 0 0 0 0 0 0 0 0 0 0 0 0 127 0" result="hardAlpha"/>
<feOffset dy="-1"/>
<feGaussianBlur stdDeviation="0.5"/>
<feComposite in2="hardAlpha" operator="arithmetic" k2="-1" k3="1"/>
<feColorMatrix type="matrix" values="0 0 0 0 0.206202 0 0 0 0 0.384342 0 0 0 0 0.558919 0 0 0 1 0"/>
<feBlend mode="normal" in2="shape" result="effect1_innerShadow_31_10810"/>
</filter>
<filter id="filter5_f_31_10810" x="81.5554" y="70.1277" width="7.62056" height="13.2807" filterUnits="userSpaceOnUse" color-interpolation-filters="sRGB">
<feFlood flood-opacity="0" result="BackgroundImageFix"/>
<feBlend mode="normal" in="SourceGraphic" in2="BackgroundImageFix" result="shape"/>
<feGaussianBlur stdDeviation="1.55431" result="effect1_foregroundBlur_31_10810"/>
</filter>
<filter id="filter6_f_31_10810" x="69.8885" y="70.3914" width="7.51607" height="13.0571" filterUnits="userSpaceOnUse" color-interpolation-filters="sRGB">
<feFlood flood-opacity="0" result="BackgroundImageFix"/>
<feBlend mode="normal" in="SourceGraphic" in2="BackgroundImageFix" result="shape"/>
<feGaussianBlur stdDeviation="1.55431" result="effect1_foregroundBlur_31_10810"/>
</filter>
<filter id="filter7_f_31_10810" x="74.1321" y="77.4163" width="9.44275" height="5.19959" filterUnits="userSpaceOnUse" color-interpolation-filters="sRGB">
<feFlood flood-opacity="0" result="BackgroundImageFix"/>
<feBlend mode="normal" in="SourceGraphic" in2="BackgroundImageFix" result="shape"/>
<feGaussianBlur stdDeviation="0.989106" result="effect1_foregroundBlur_31_10810"/>
</filter>
<filter id="filter8_f_31_10810" x="76.1755" y="69.7858" width="8.91075" height="4.48985" filterUnits="userSpaceOnUse" color-interpolation-filters="sRGB">
<feFlood flood-opacity="0" result="BackgroundImageFix"/>
<feBlend mode="normal" in="SourceGraphic" in2="BackgroundImageFix" result="shape"/>
<feGaussianBlur stdDeviation="0.847805" result="effect1_foregroundBlur_31_10810"/>
</filter>
<filter id="filter9_f_31_10810" x="73.9519" y="70.0339" width="4.90685" height="10.3531" filterUnits="userSpaceOnUse" color-interpolation-filters="sRGB">
<feFlood flood-opacity="0" result="BackgroundImageFix"/>
<feBlend mode="normal" in="SourceGraphic" in2="BackgroundImageFix" result="shape"/>
<feGaussianBlur stdDeviation="0.847805" result="effect1_foregroundBlur_31_10810"/>
</filter>
<filter id="filter10_f_31_10810" x="80.6657" y="71.5925" width="4.90685" height="10.3531" filterUnits="userSpaceOnUse" color-interpolation-filters="sRGB">
<feFlood flood-opacity="0" result="BackgroundImageFix"/>
<feBlend mode="normal" in="SourceGraphic" in2="BackgroundImageFix" result="shape"/>
<feGaussianBlur stdDeviation="0.847805" result="effect1_foregroundBlur_31_10810"/>
</filter>
<filter id="filter11_f_31_10810" x="72.1155" y="74.8509" width="6.2699" height="8.74549" filterUnits="userSpaceOnUse" color-interpolation-filters="sRGB">
<feFlood flood-opacity="0" result="BackgroundImageFix"/>
<feBlend mode="normal" in="SourceGraphic" in2="BackgroundImageFix" result="shape"/>
<feGaussianBlur stdDeviation="0.989106" result="effect1_foregroundBlur_31_10810"/>
</filter>
<filter id="filter12_d_31_10810" x="71.7832" y="49.3506" width="21.9404" height="15.709" filterUnits="userSpaceOnUse" color-interpolation-filters="sRGB">
<feFlood flood-opacity="0" result="BackgroundImageFix"/>
<feColorMatrix in="SourceAlpha" type="matrix" values="0 0 0 0 0 0 0 0 0 0 0 0 0 0 0 0 0 0 127 0" result="hardAlpha"/>
<feOffset dx="0.5" dy="0.5"/>
<feGaussianBlur stdDeviation="0.5"/>
<feComposite in2="hardAlpha" operator="out"/>
<feColorMatrix type="matrix" values="0 0 0 0 1 0 0 0 0 0.84 0 0 0 0 0.435294 0 0 0 0.6 0"/>
<feBlend mode="normal" in2="BackgroundImageFix" result="effect1_dropShadow_31_10810"/>
<feBlend mode="normal" in="SourceGraphic" in2="effect1_dropShadow_31_10810" result="shape"/>
</filter>
<linearGradient id="paint0_linear_31_10810" x1="85.4741" y1="73.2317" x2="85.0702" y2="80.3044" gradientUnits="userSpaceOnUse">
<stop stop-color="white" stop-opacity="0"/>
<stop offset="0.655" stop-color="white" stop-opacity="0.4"/>
<stop offset="1" stop-color="white" stop-opacity="0"/>
</linearGradient>
<linearGradient id="paint1_linear_31_10810" x1="73.6635" y1="80.3388" x2="73.6012" y2="74.2353" gradientUnits="userSpaceOnUse">
<stop stop-color="white" stop-opacity="0"/>
<stop offset="0.585" stop-color="white" stop-opacity="0.4"/>
<stop offset="1" stop-color="white" stop-opacity="0.1"/>
</linearGradient>
<linearGradient id="paint2_linear_31_10810" x1="75.6988" y1="76.8292" x2="74.8359" y2="81.2635" gradientUnits="userSpaceOnUse">
<stop stop-color="#98C1E7"/>
<stop offset="1" stop-color="#85B1DB" stop-opacity="0"/>
</linearGradient>
</defs>
</svg>
